solid JSCAD
facet normal 1 0 0
outer loop
vertex 21.999868978323384 34.999770798892804 4.499983578876982
vertex 21.999868978323384 49.99986828370833 8.999967157753964
vertex 21.999868978323384 44.500243538385064 8.999967157753964
endloop
endfacet
facet normal 1 0 0
outer loop
vertex 21.999868978323384 34.999770798892804 4.499983578876982
vertex 21.999868978323384 44.500243538385064 8.999967157753964
vertex 21.999868978323384 25.500211390754078 8.999967157753964
endloop
endfacet
facet normal 0.9999999999999999 0 0
outer loop
vertex 21.999868978323384 34.999770798892804 4.499983578876982
vertex 21.999868978323384 25.500211390754078 8.999967157753964
vertex 21.999868978323384 19.99967331407727 8.999967157753964
endloop
endfacet
facet normal 1 0 0
outer loop
vertex 21.999868978323384 34.999770798892804 4.499983578876982
vertex 21.999868978323384 19.99967331407727 8.999967157753964
vertex 21.999868978323384 2.9998368306923986 8.999967157753964
endloop
endfacet
facet normal 1 0 0
outer loop
vertex 21.999868978323384 34.999770798892804 4.499983578876982
vertex 21.999868978323384 2.9998368306923986 8.999967157753964
vertex 21.999868978323384 2.9998368306923986 0
endloop
endfacet
facet normal 1 0 0
outer loop
vertex 21.999868978323384 34.999770798892804 4.499983578876982
vertex 21.999868978323384 2.9998368306923986 0
vertex 21.999868978323384 19.99967331407727 0
endloop
endfacet
facet normal 0.9999999999999999 0 0
outer loop
vertex 21.999868978323384 34.999770798892804 4.499983578876982
vertex 21.999868978323384 19.99967331407727 0
vertex 21.999868978323384 25.500211390754078 0
endloop
endfacet
facet normal 1 0 0
outer loop
vertex 21.999868978323384 34.999770798892804 4.499983578876982
vertex 21.999868978323384 25.500211390754078 0
vertex 21.999868978323384 44.500243538385064 0
endloop
endfacet
facet normal 1 0 0
outer loop
vertex 21.999868978323384 34.999770798892804 4.499983578876982
vertex 21.999868978323384 44.500243538385064 0
vertex 21.999868978323384 49.99986828370833 0
endloop
endfacet
facet normal 1 0 0
outer loop
vertex 21.999868978323384 34.999770798892804 4.499983578876982
vertex 21.999868978323384 49.99986828370833 0
vertex 21.999868978323384 66.9997047670932 0
endloop
endfacet
facet normal 1 0 0
outer loop
vertex 21.999868978323384 34.999770798892804 4.499983578876982
vertex 21.999868978323384 66.9997047670932 0
vertex 21.999868978323384 66.9997047670932 8.999967157753964
endloop
endfacet
facet normal 1 0 0
outer loop
vertex 21.999868978323384 34.999770798892804 4.499983578876982
vertex 21.999868978323384 66.9997047670932 8.999967157753964
vertex 21.999868978323384 49.99986828370833 8.999967157753964
endloop
endfacet
facet normal 0.9914404029214611 0.13056005305962048 0
outer loop
vertex 21.999868978323384 66.9997047670932 8.999967157753964
vertex 21.999868978323384 66.9997047670932 0
vertex 21.897575866727234 67.77649308327645 0
endloop
endfacet
facet normal 0.9914404029214611 0.13056005305962048 0
outer loop
vertex 21.999868978323384 66.9997047670932 8.999967157753964
vertex 21.897575866727234 67.77649308327645 0
vertex 21.897575866727234 67.77649308327645 8.999967157753964
endloop
endfacet
facet normal 0.9239030979123293 0.38262653549904346 0
outer loop
vertex 21.897575866727234 67.77649308327645 8.999967157753964
vertex 21.897575866727234 67.77649308327645 0
vertex 21.598003182767087 68.49985151527778 0
endloop
endfacet
facet normal 0.9239030979123293 0.38262653549904346 0
outer loop
vertex 21.897575866727234 67.77649308327645 8.999967157753964
vertex 21.598003182767087 68.49985151527778 0
vertex 21.598003182767087 68.49985151527778 8.999967157753964
endloop
endfacet
facet normal 0.7934468180262328 0.6086395870825737 0
outer loop
vertex 21.598003182767087 68.49985151527778 8.999967157753964
vertex 21.598003182767087 68.49985151527778 0
vertex 21.121244216220752 69.12137350135974 0
endloop
endfacet
facet normal 0.7934468180262328 0.6086395870825737 0
outer loop
vertex 21.598003182767087 68.49985151527778 8.999967157753964
vertex 21.121244216220752 69.12137350135974 0
vertex 21.121244216220752 69.12137350135974 8.999967157753964
endloop
endfacet
facet normal 0.6086395870825725 0.793446818026234 0
outer loop
vertex 21.121244216220752 69.12137350135974 8.999967157753964
vertex 21.121244216220752 69.12137350135974 0
vertex 20.4997222301388 69.59813246790607 0
endloop
endfacet
facet normal 0.6086395870825725 0.793446818026234 0
outer loop
vertex 21.121244216220752 69.12137350135974 8.999967157753964
vertex 20.4997222301388 69.59813246790607 0
vertex 20.4997222301388 69.59813246790607 8.999967157753964
endloop
endfacet
facet normal 0.3826265354990474 0.9239030979123278 0
outer loop
vertex 20.4997222301388 69.59813246790607 8.999967157753964
vertex 20.4997222301388 69.59813246790607 0
vertex 19.776363798137467 69.89770515186622 0
endloop
endfacet
facet normal 0.3826265354990474 0.9239030979123278 0
outer loop
vertex 20.4997222301388 69.59813246790607 8.999967157753964
vertex 19.776363798137467 69.89770515186622 0
vertex 19.776363798137467 69.89770515186622 8.999967157753964
endloop
endfacet
facet normal 0.13063554282744835 0.9914304589582561 0
outer loop
vertex 19.776363798137467 69.89770515186622 8.999967157753964
vertex 19.776363798137467 69.89770515186622 0
vertex 19.000032147630986 69.99999826346237 0
endloop
endfacet
facet normal 0.13063554282744835 0.9914304589582561 0
outer loop
vertex 19.776363798137467 69.89770515186622 8.999967157753964
vertex 19.000032147630986 69.99999826346237 0
vertex 19.000032147630986 69.99999826346237 8.999967157753964
endloop
endfacet
facet normal 0 1 0
outer loop
vertex 19.000032147630986 69.99999826346237 8.999967157753964
vertex 19.000032147630986 69.99999826346237 0
vertex 2.9998368306923986 69.99999826346237 0
endloop
endfacet
facet normal 0 1 0
outer loop
vertex 19.000032147630986 69.99999826346237 8.999967157753964
vertex 2.9998368306923986 69.99999826346237 0
vertex 2.9998368306923986 69.99999826346237 8.999967157753964
endloop
endfacet
facet normal -0.13063554282744835 0.9914304589582561 0
outer loop
vertex 2.9998368306923986 69.99999826346237 8.999967157753964
vertex 2.9998368306923986 69.99999826346237 0
vertex 2.223505180185917 69.89770515186622 0
endloop
endfacet
facet normal -0.13063554282744835 0.9914304589582561 0
outer loop
vertex 2.9998368306923986 69.99999826346237 8.999967157753964
vertex 2.223505180185917 69.89770515186622 0
vertex 2.223505180185917 69.89770515186622 8.999967157753964
endloop
endfacet
facet normal -0.3826265354990474 0.9239030979123278 0
outer loop
vertex 2.223505180185917 69.89770515186622 8.999967157753964
vertex 2.223505180185917 69.89770515186622 0
vertex 1.5001467481845836 69.59813246790607 0
endloop
endfacet
facet normal -0.3826265354990474 0.9239030979123278 0
outer loop
vertex 2.223505180185917 69.89770515186622 8.999967157753964
vertex 1.5001467481845836 69.59813246790607 0
vertex 1.5001467481845836 69.59813246790607 8.999967157753964
endloop
endfacet
facet normal -0.6086395870825713 0.7934468180262352 0
outer loop
vertex 1.5001467481845836 69.59813246790607 8.999967157753964
vertex 1.5001467481845836 69.59813246790607 0
vertex 0.8786247621026297 69.12137350135974 0
endloop
endfacet
facet normal -0.6086395870825713 0.7934468180262352 0
outer loop
vertex 1.5001467481845836 69.59813246790607 8.999967157753964
vertex 0.8786247621026297 69.12137350135974 0
vertex 0.8786247621026297 69.12137350135974 8.999967157753964
endloop
endfacet
facet normal -0.7934468180262338 0.6086395870825727 0
outer loop
vertex 0.8786247621026297 69.12137350135974 8.999967157753964
vertex 0.8786247621026297 69.12137350135974 0
vertex 0.40186579555629637 68.49985151527778 0
endloop
endfacet
facet normal -0.7934468180262338 0.6086395870825727 0
outer loop
vertex 0.8786247621026297 69.12137350135974 8.999967157753964
vertex 0.40186579555629637 68.49985151527778 0
vertex 0.40186579555629637 68.49985151527778 8.999967157753964
endloop
endfacet
facet normal -0.9239030979123287 0.38262653549904513 0
outer loop
vertex 0.40186579555629637 68.49985151527778 8.999967157753964
vertex 0.40186579555629637 68.49985151527778 0
vertex 0.10229311159614816 67.77649308327645 0
endloop
endfacet
facet normal -0.9239030979123287 0.38262653549904513 0
outer loop
vertex 0.40186579555629637 68.49985151527778 8.999967157753964
vertex 0.10229311159614816 67.77649308327645 0
vertex 0.10229311159614816 67.77649308327645 8.999967157753964
endloop
endfacet
facet normal -0.9914404029214615 0.13056005305961754 0
outer loop
vertex 0.10229311159614816 67.77649308327645 8.999967157753964
vertex 0.10229311159614816 67.77649308327645 0
vertex 0 66.9997047670932 0
endloop
endfacet
facet normal -0.9914404029214615 0.13056005305961754 0
outer loop
vertex 0.10229311159614816 67.77649308327645 8.999967157753964
vertex 0 66.9997047670932 0
vertex 0 66.9997047670932 8.999967157753964
endloop
endfacet
facet normal -0.991430458958257 -0.13063554282744094 0
outer loop
vertex 0 2.9998368306923986 8.999967157753964
vertex 0 2.9998368306923986 0
vertex 0.10229311159614816 2.223505180185917 0
endloop
endfacet
facet normal -0.991430458958257 -0.13063554282744094 0
outer loop
vertex 0 2.9998368306923986 8.999967157753964
vertex 0.10229311159614816 2.223505180185917 0
vertex 0.10229311159614816 2.223505180185917 8.999967157753964
endloop
endfacet
facet normal -0.9239030979123287 -0.38262653549904513 0
outer loop
vertex 0.10229311159614816 2.223505180185917 8.999967157753964
vertex 0.10229311159614816 2.223505180185917 0
vertex 0.40186579555629637 1.5001467481845836 0
endloop
endfacet
facet normal -0.9239030979123287 -0.38262653549904513 0
outer loop
vertex 0.10229311159614816 2.223505180185917 8.999967157753964
vertex 0.40186579555629637 1.5001467481845836 0
vertex 0.40186579555629637 1.5001467481845836 8.999967157753964
endloop
endfacet
facet normal -0.7934468180262315 -0.6086395870825758 0
outer loop
vertex 0.40186579555629637 1.5001467481845836 8.999967157753964
vertex 0.40186579555629637 1.5001467481845836 0
vertex 0.8786247621026297 0.8786247621026297 0
endloop
endfacet
facet normal -0.7934468180262315 -0.6086395870825758 0
outer loop
vertex 0.40186579555629637 1.5001467481845836 8.999967157753964
vertex 0.8786247621026297 0.8786247621026297 0
vertex 0.8786247621026297 0.8786247621026297 8.999967157753964
endloop
endfacet
facet normal -0.6086395870825758 -0.7934468180262315 0
outer loop
vertex 0.8786247621026297 0.8786247621026297 8.999967157753964
vertex 0.8786247621026297 0.8786247621026297 0
vertex 1.5001467481845836 0.40186579555629637 0
endloop
endfacet
facet normal -0.6086395870825758 -0.7934468180262315 0
outer loop
vertex 0.8786247621026297 0.8786247621026297 8.999967157753964
vertex 1.5001467481845836 0.40186579555629637 0
vertex 1.5001467481845836 0.40186579555629637 8.999967157753964
endloop
endfacet
facet normal -0.38262653549904513 -0.9239030979123287 0
outer loop
vertex 1.5001467481845836 0.40186579555629637 8.999967157753964
vertex 1.5001467481845836 0.40186579555629637 0
vertex 2.223505180185917 0.10229311159614816 0
endloop
endfacet
facet normal -0.38262653549904513 -0.9239030979123287 0
outer loop
vertex 1.5001467481845836 0.40186579555629637 8.999967157753964
vertex 2.223505180185917 0.10229311159614816 0
vertex 2.223505180185917 0.10229311159614816 8.999967157753964
endloop
endfacet
facet normal -0.13063554282744094 -0.991430458958257 0
outer loop
vertex 2.223505180185917 0.10229311159614816 8.999967157753964
vertex 2.223505180185917 0.10229311159614816 0
vertex 2.9998368306923986 0 0
endloop
endfacet
facet normal -0.13063554282744094 -0.991430458958257 0
outer loop
vertex 2.223505180185917 0.10229311159614816 8.999967157753964
vertex 2.9998368306923986 0 0
vertex 2.9998368306923986 0 8.999967157753964
endloop
endfacet
facet normal 0 -1 0
outer loop
vertex 2.9998368306923986 0 8.999967157753964
vertex 2.9998368306923986 0 0
vertex 19.000032147630986 0 0
endloop
endfacet
facet normal 0 -1 0
outer loop
vertex 2.9998368306923986 0 8.999967157753964
vertex 19.000032147630986 0 0
vertex 19.000032147630986 0 8.999967157753964
endloop
endfacet
facet normal 0.13063554282744094 -0.991430458958257 0
outer loop
vertex 19.000032147630986 0 8.999967157753964
vertex 19.000032147630986 0 0
vertex 19.776363798137467 0.10229311159614816 0
endloop
endfacet
facet normal 0.13063554282744094 -0.991430458958257 0
outer loop
vertex 19.000032147630986 0 8.999967157753964
vertex 19.776363798137467 0.10229311159614816 0
vertex 19.776363798137467 0.10229311159614816 8.999967157753964
endloop
endfacet
facet normal 0.38262653549904513 -0.9239030979123287 0
outer loop
vertex 19.776363798137467 0.10229311159614816 8.999967157753964
vertex 19.776363798137467 0.10229311159614816 0
vertex 20.4997222301388 0.40186579555629637 0
endloop
endfacet
facet normal 0.38262653549904513 -0.9239030979123287 0
outer loop
vertex 19.776363798137467 0.10229311159614816 8.999967157753964
vertex 20.4997222301388 0.40186579555629637 0
vertex 20.4997222301388 0.40186579555629637 8.999967157753964
endloop
endfacet
facet normal 0.6086395870825771 -0.7934468180262305 0
outer loop
vertex 20.4997222301388 0.40186579555629637 8.999967157753964
vertex 20.4997222301388 0.40186579555629637 0
vertex 21.121244216220752 0.8786247621026297 0
endloop
endfacet
facet normal 0.6086395870825771 -0.7934468180262305 0
outer loop
vertex 20.4997222301388 0.40186579555629637 8.999967157753964
vertex 21.121244216220752 0.8786247621026297 0
vertex 21.121244216220752 0.8786247621026297 8.999967157753964
endloop
endfacet
facet normal 0.7934468180262306 -0.6086395870825768 0
outer loop
vertex 21.121244216220752 0.8786247621026297 8.999967157753964
vertex 21.121244216220752 0.8786247621026297 0
vertex 21.598003182767087 1.5001467481845836 0
endloop
endfacet
facet normal 0.7934468180262306 -0.6086395870825768 0
outer loop
vertex 21.121244216220752 0.8786247621026297 8.999967157753964
vertex 21.598003182767087 1.5001467481845836 0
vertex 21.598003182767087 1.5001467481845836 8.999967157753964
endloop
endfacet
facet normal 0.9239030979123293 -0.38262653549904346 0
outer loop
vertex 21.598003182767087 1.5001467481845836 8.999967157753964
vertex 21.598003182767087 1.5001467481845836 0
vertex 21.897575866727234 2.223505180185917 0
endloop
endfacet
facet normal 0.9239030979123293 -0.38262653549904346 0
outer loop
vertex 21.598003182767087 1.5001467481845836 8.999967157753964
vertex 21.897575866727234 2.223505180185917 0
vertex 21.897575866727234 2.223505180185917 8.999967157753964
endloop
endfacet
facet normal 0.9914304589582564 -0.13063554282744386 0
outer loop
vertex 21.897575866727234 2.223505180185917 8.999967157753964
vertex 21.897575866727234 2.223505180185917 0
vertex 21.999868978323384 2.9998368306923986 0
endloop
endfacet
facet normal 0.9914304589582564 -0.13063554282744386 0
outer loop
vertex 21.897575866727234 2.223505180185917 8.999967157753964
vertex 21.999868978323384 2.9998368306923986 0
vertex 21.999868978323384 2.9998368306923986 8.999967157753964
endloop
endfacet
facet normal -1 0 0
outer loop
vertex 0 19.99967331407727 8.999967157753964
vertex 0 19.99967331407727 0
vertex 0 2.9998368306923986 0
endloop
endfacet
facet normal -1 0 0
outer loop
vertex 0 19.99967331407727 8.999967157753964
vertex 0 2.9998368306923986 0
vertex 0 2.9998368306923986 8.999967157753964
endloop
endfacet
facet normal -1 0 0
outer loop
vertex 0 66.9997047670932 8.999967157753964
vertex 0 66.9997047670932 0
vertex 0 49.99986828370833 0
endloop
endfacet
facet normal -1 0 0
outer loop
vertex 0 66.9997047670932 8.999967157753964
vertex 0 49.99986828370833 0
vertex 0 49.99986828370833 8.999967157753964
endloop
endfacet
facet normal -0.13071111918294703 0.991420497731382 0
outer loop
vertex -13.000358486246187 49.99986828370833 8.999967157753964
vertex -13.000358486246187 49.99986828370833 0
vertex -13.7762334710759 49.897575172112184 0
endloop
endfacet
facet normal -0.13071111918294703 0.991420497731382 0
outer loop
vertex -13.000358486246187 49.99986828370833 8.999967157753964
vertex -13.7762334710759 49.897575172112184 0
vertex -13.7762334710759 49.897575172112184 8.999967157753964
endloop
endfacet
facet normal -0.3826265354990474 0.9239030979123278 0
outer loop
vertex -13.7762334710759 49.897575172112184 8.999967157753964
vertex -13.7762334710759 49.897575172112184 0
vertex -14.499591903077233 49.598002488152034 0
endloop
endfacet
facet normal -0.3826265354990474 0.9239030979123278 0
outer loop
vertex -13.7762334710759 49.897575172112184 8.999967157753964
vertex -14.499591903077233 49.598002488152034 0
vertex -14.499591903077233 49.598002488152034 8.999967157753964
endloop
endfacet
facet normal -0.608639587082576 0.7934468180262313 0
outer loop
vertex -14.499591903077233 49.598002488152034 8.999967157753964
vertex -14.499591903077233 49.598002488152034 0
vertex -15.121113889159188 49.1212435216057 0
endloop
endfacet
facet normal -0.608639587082576 0.7934468180262313 0
outer loop
vertex -14.499591903077233 49.598002488152034 8.999967157753964
vertex -15.121113889159188 49.1212435216057 0
vertex -15.121113889159188 49.1212435216057 8.999967157753964
endloop
endfacet
facet normal -0.7932307047328837 0.6089212174567188 0
outer loop
vertex -15.121113889159188 49.1212435216057 8.999967157753964
vertex -15.121113889159188 49.1212435216057 0
vertex -15.597872855705521 48.50017820120052 0
endloop
endfacet
facet normal -0.7932307047328837 0.6089212174567188 0
outer loop
vertex -15.121113889159188 49.1212435216057 8.999967157753964
vertex -15.597872855705521 48.50017820120052 0
vertex -15.597872855705521 48.50017820120052 8.999967157753964
endloop
endfacet
facet normal -0.9237823443146955 0.38291798120804577 0
outer loop
vertex -15.597872855705521 48.50017820120052 8.999967157753964
vertex -15.597872855705521 48.50017820120052 0
vertex -15.897902205342438 47.776363103522414 0
endloop
endfacet
facet normal -0.9237823443146955 0.38291798120804577 0
outer loop
vertex -15.597872855705521 48.50017820120052 8.999967157753964
vertex -15.897902205342438 47.776363103522414 0
vertex -15.897902205342438 47.776363103522414 8.999967157753964
endloop
endfacet
facet normal -0.9915058319892271 0.13006223560799757 0
outer loop
vertex -15.897902205342438 47.776363103522414 8.999967157753964
vertex -15.897902205342438 47.776363103522414 0
vertex -15.999738651261817 47.000031453015936 0
endloop
endfacet
facet normal -0.9915058319892271 0.13006223560799757 0
outer loop
vertex -15.897902205342438 47.776363103522414 8.999967157753964
vertex -15.999738651261817 47.000031453015936 0
vertex -15.999738651261817 47.000031453015936 8.999967157753964
endloop
endfacet
facet normal -1 0 0
outer loop
vertex -15.999738651261817 35.00022746456957 4.499983578876982
vertex -15.999738651261817 25.500211390754078 8.999967157753964
vertex -15.999738651261817 44.500243538385064 8.999967157753964
endloop
endfacet
facet normal -1 0 0
outer loop
vertex -15.999738651261817 35.00022746456957 4.499983578876982
vertex -15.999738651261817 44.500243538385064 8.999967157753964
vertex -15.999738651261817 47.000031453015936 8.999967157753964
endloop
endfacet
facet normal -0.9999999999999999 0 0
outer loop
vertex -15.999738651261817 35.00022746456957 4.499983578876982
vertex -15.999738651261817 47.000031453015936 8.999967157753964
vertex -15.999738651261817 47.000031453015936 0
endloop
endfacet
facet normal -1 0 0
outer loop
vertex -15.999738651261817 35.00022746456957 4.499983578876982
vertex -15.999738651261817 47.000031453015936 0
vertex -15.999738651261817 44.500243538385064 0
endloop
endfacet
facet normal -1 0 0
outer loop
vertex -15.999738651261817 35.00022746456957 4.499983578876982
vertex -15.999738651261817 44.500243538385064 0
vertex -15.999738651261817 25.500211390754078 0
endloop
endfacet
facet normal -1 0 0
outer loop
vertex -15.999738651261817 35.00022746456957 4.499983578876982
vertex -15.999738651261817 25.500211390754078 0
vertex -15.999738651261817 22.999966810446438 0
endloop
endfacet
facet normal -1 0 0
outer loop
vertex -15.999738651261817 35.00022746456957 4.499983578876982
vertex -15.999738651261817 22.999966810446438 0
vertex -15.999738651261817 22.999966810446438 8.999967157753964
endloop
endfacet
facet normal -1 0 0
outer loop
vertex -15.999738651261817 35.00022746456957 4.499983578876982
vertex -15.999738651261817 22.999966810446438 8.999967157753964
vertex -15.999738651261817 25.500211390754078 8.999967157753964
endloop
endfacet
facet normal -0.9915058319892273 -0.13006223560799698 0
outer loop
vertex -15.999738651261817 22.999966810446438 8.999967157753964
vertex -15.999738651261817 22.999966810446438 0
vertex -15.897902205342438 22.223635159939956 0
endloop
endfacet
facet normal -0.9915058319892273 -0.13006223560799698 0
outer loop
vertex -15.999738651261817 22.999966810446438 8.999967157753964
vertex -15.897902205342438 22.223635159939956 0
vertex -15.897902205342438 22.223635159939956 8.999967157753964
endloop
endfacet
facet normal -0.9237823443146949 -0.3829179812080474 0
outer loop
vertex -15.897902205342438 22.223635159939956 8.999967157753964
vertex -15.897902205342438 22.223635159939956 0
vertex -15.597872855705521 21.499820062261854 0
endloop
endfacet
facet normal -0.9237823443146949 -0.3829179812080474 0
outer loop
vertex -15.897902205342438 22.223635159939956 8.999967157753964
vertex -15.597872855705521 21.499820062261854 0
vertex -15.597872855705521 21.499820062261854 8.999967157753964
endloop
endfacet
facet normal -0.7932307047328854 -0.6089212174567167 0
outer loop
vertex -15.597872855705521 21.499820062261854 8.999967157753964
vertex -15.597872855705521 21.499820062261854 0
vertex -15.121113889159188 20.87875474185667 0
endloop
endfacet
facet normal -0.7932307047328854 -0.6089212174567167 0
outer loop
vertex -15.597872855705521 21.499820062261854 8.999967157753964
vertex -15.121113889159188 20.87875474185667 0
vertex -15.121113889159188 20.87875474185667 8.999967157753964
endloop
endfacet
facet normal -0.608639587082576 -0.7934468180262313 0
outer loop
vertex -15.121113889159188 20.87875474185667 8.999967157753964
vertex -15.121113889159188 20.87875474185667 0
vertex -14.499591903077233 20.401995775310336 0
endloop
endfacet
facet normal -0.608639587082576 -0.7934468180262313 0
outer loop
vertex -15.121113889159188 20.87875474185667 8.999967157753964
vertex -14.499591903077233 20.401995775310336 0
vertex -14.499591903077233 20.401995775310336 8.999967157753964
endloop
endfacet
facet normal -0.3831242481305204 -0.9236968174105741 0
outer loop
vertex -14.499591903077233 20.401995775310336 8.999967157753964
vertex -14.499591903077233 20.401995775310336 0
vertex -13.7762334710759 20.10196642567342 0
endloop
endfacet
facet normal -0.3831242481305204 -0.9236968174105741 0
outer loop
vertex -14.499591903077233 20.401995775310336 8.999967157753964
vertex -13.7762334710759 20.10196642567342 0
vertex -13.7762334710759 20.10196642567342 8.999967157753964
endloop
endfacet
facet normal -0.13071111918295153 -0.9914204977313816 0
outer loop
vertex -13.7762334710759 20.10196642567342 8.999967157753964
vertex -13.7762334710759 20.10196642567342 0
vertex -13.000358486246187 19.99967331407727 0
endloop
endfacet
facet normal -0.13071111918295153 -0.9914204977313816 0
outer loop
vertex -13.7762334710759 20.10196642567342 8.999967157753964
vertex -13.000358486246187 19.99967331407727 0
vertex -13.000358486246187 19.99967331407727 8.999967157753964
endloop
endfacet
facet normal 0 1 0
outer loop
vertex 0 49.99986828370833 8.999967157753964
vertex 0 49.99986828370833 0
vertex -13.000358486246187 49.99986828370833 0
endloop
endfacet
facet normal 0 1 0
outer loop
vertex 0 49.99986828370833 8.999967157753964
vertex -13.000358486246187 49.99986828370833 0
vertex -13.000358486246187 49.99986828370833 8.999967157753964
endloop
endfacet
facet normal 0 -1 0
outer loop
vertex -13.000358486246187 19.99967331407727 8.999967157753964
vertex -13.000358486246187 19.99967331407727 0
vertex 0 19.99967331407727 0
endloop
endfacet
facet normal 0 -1 0
outer loop
vertex -13.000358486246187 19.99967331407727 8.999967157753964
vertex 0 19.99967331407727 0
vertex 0 19.99967331407727 8.999967157753964
endloop
endfacet
facet normal 1 0 0
outer loop
vertex -5.00003249493851 25.500211390754078 8.999967157753964
vertex -5.00003249493851 25.500211390754078 0
vertex -5.00003249493851 44.500243538385064 0
endloop
endfacet
facet normal 1 0 0
outer loop
vertex -5.00003249493851 25.500211390754078 8.999967157753964
vertex -5.00003249493851 44.500243538385064 0
vertex -5.00003249493851 44.500243538385064 8.999967157753964
endloop
endfacet
facet normal 0 1 0
outer loop
vertex 11.999803988446363 25.500211390754078 8.999967157753964
vertex 11.999803988446363 25.500211390754078 0
vertex -5.00003249493851 25.500211390754078 0
endloop
endfacet
facet normal 0 1 0
outer loop
vertex 11.999803988446363 25.500211390754078 8.999967157753964
vertex -5.00003249493851 25.500211390754078 0
vertex -5.00003249493851 25.500211390754078 8.999967157753964
endloop
endfacet
facet normal -1 0 0
outer loop
vertex 11.999803988446363 44.500243538385064 8.999967157753964
vertex 11.999803988446363 44.500243538385064 0
vertex 11.999803988446363 25.500211390754078 0
endloop
endfacet
facet normal -1 0 0
outer loop
vertex 11.999803988446363 44.500243538385064 8.999967157753964
vertex 11.999803988446363 25.500211390754078 0
vertex 11.999803988446363 25.500211390754078 8.999967157753964
endloop
endfacet
facet normal 0 -1 0
outer loop
vertex -5.00003249493851 44.500243538385064 8.999967157753964
vertex -5.00003249493851 44.500243538385064 0
vertex 11.999803988446363 44.500243538385064 0
endloop
endfacet
facet normal 0 -1 0
outer loop
vertex -5.00003249493851 44.500243538385064 8.999967157753964
vertex 11.999803988446363 44.500243538385064 0
vertex 11.999803988446363 44.500243538385064 8.999967157753964
endloop
endfacet
facet normal 0 0 1
outer loop
vertex 11.000162822000076 66.48686921208215 8.999967157753964
vertex 2.9998368306923986 69.99999826346237 8.999967157753964
vertex 2.223505180185917 69.89770515186622 8.999967157753964
endloop
endfacet
facet normal 0 0 1
outer loop
vertex 11.000162822000076 66.48686921208215 8.999967157753964
vertex 2.223505180185917 69.89770515186622 8.999967157753964
vertex 1.5001467481845836 69.59813246790607 8.999967157753964
endloop
endfacet
facet normal 0 0 0.9999999999999999
outer loop
vertex 11.000162822000076 66.48686921208215 8.999967157753964
vertex 1.5001467481845836 69.59813246790607 8.999967157753964
vertex 0.8786247621026297 69.12137350135974 8.999967157753964
endloop
endfacet
facet normal 0 0 1
outer loop
vertex 11.000162822000076 66.48686921208215 8.999967157753964
vertex 0.8786247621026297 69.12137350135974 8.999967157753964
vertex 0.40186579555629637 68.49985151527778 8.999967157753964
endloop
endfacet
facet normal 0 0 1
outer loop
vertex 11.000162822000076 66.48686921208215 8.999967157753964
vertex 0.40186579555629637 68.49985151527778 8.999967157753964
vertex 0.10229311159614816 67.77649308327645 8.999967157753964
endloop
endfacet
facet normal 0 0 1
outer loop
vertex 11.000162822000076 66.48686921208215 8.999967157753964
vertex 0.10229311159614816 67.77649308327645 8.999967157753964
vertex 0 66.9997047670932 8.999967157753964
endloop
endfacet
facet normal 0 0 1
outer loop
vertex 11.000162822000076 66.48686921208215 8.999967157753964
vertex 0 66.9997047670932 8.999967157753964
vertex 0 49.99986828370833 8.999967157753964
endloop
endfacet
facet normal 0 0 1
outer loop
vertex 11.000162822000076 66.48686921208215 8.999967157753964
vertex 0 49.99986828370833 8.999967157753964
vertex 21.999868978323384 49.99986828370833 8.999967157753964
endloop
endfacet
facet normal 0 0 1
outer loop
vertex 11.000162822000076 66.48686921208215 8.999967157753964
vertex 21.999868978323384 49.99986828370833 8.999967157753964
vertex 21.999868978323384 66.9997047670932 8.999967157753964
endloop
endfacet
facet normal 0 0 1
outer loop
vertex 11.000162822000076 66.48686921208215 8.999967157753964
vertex 21.999868978323384 66.9997047670932 8.999967157753964
vertex 21.897575866727234 67.77649308327645 8.999967157753964
endloop
endfacet
facet normal 0 0 1
outer loop
vertex 11.000162822000076 66.48686921208215 8.999967157753964
vertex 21.897575866727234 67.77649308327645 8.999967157753964
vertex 21.598003182767087 68.49985151527778 8.999967157753964
endloop
endfacet
facet normal 0 0 1
outer loop
vertex 11.000162822000076 66.48686921208215 8.999967157753964
vertex 21.598003182767087 68.49985151527778 8.999967157753964
vertex 21.121244216220752 69.12137350135974 8.999967157753964
endloop
endfacet
facet normal 0 0 0.9999999999999999
outer loop
vertex 11.000162822000076 66.48686921208215 8.999967157753964
vertex 21.121244216220752 69.12137350135974 8.999967157753964
vertex 20.4997222301388 69.59813246790607 8.999967157753964
endloop
endfacet
facet normal 0 0 1
outer loop
vertex 11.000162822000076 66.48686921208215 8.999967157753964
vertex 20.4997222301388 69.59813246790607 8.999967157753964
vertex 19.776363798137467 69.89770515186622 8.999967157753964
endloop
endfacet
facet normal 0 0 1
outer loop
vertex 11.000162822000076 66.48686921208215 8.999967157753964
vertex 19.776363798137467 69.89770515186622 8.999967157753964
vertex 19.000032147630986 69.99999826346237 8.999967157753964
endloop
endfacet
facet normal 0 0 0.9999999999999999
outer loop
vertex 11.000162822000076 66.48686921208215 8.999967157753964
vertex 19.000032147630986 69.99999826346237 8.999967157753964
vertex 2.9998368306923986 69.99999826346237 8.999967157753964
endloop
endfacet
facet normal 0 0 1
outer loop
vertex -5.299605178898658 47.684116636815176 8.999967157753964
vertex 0 49.99986828370833 8.999967157753964
vertex -13.000358486246187 49.99986828370833 8.999967157753964
endloop
endfacet
facet normal 0 0 1
outer loop
vertex -5.299605178898658 47.684116636815176 8.999967157753964
vertex -13.000358486246187 49.99986828370833 8.999967157753964
vertex -13.7762334710759 49.897575172112184 8.999967157753964
endloop
endfacet
facet normal 0 0 1
outer loop
vertex -5.299605178898658 47.684116636815176 8.999967157753964
vertex -13.7762334710759 49.897575172112184 8.999967157753964
vertex -14.499591903077233 49.598002488152034 8.999967157753964
endloop
endfacet
facet normal 0 0 1
outer loop
vertex -5.299605178898658 47.684116636815176 8.999967157753964
vertex -14.499591903077233 49.598002488152034 8.999967157753964
vertex -15.121113889159188 49.1212435216057 8.999967157753964
endloop
endfacet
facet normal 0 0 1
outer loop
vertex -5.299605178898658 47.684116636815176 8.999967157753964
vertex -15.121113889159188 49.1212435216057 8.999967157753964
vertex -15.597872855705521 48.50017820120052 8.999967157753964
endloop
endfacet
facet normal 0 0 1
outer loop
vertex -5.299605178898658 47.684116636815176 8.999967157753964
vertex -15.597872855705521 48.50017820120052 8.999967157753964
vertex -15.897902205342438 47.776363103522414 8.999967157753964
endloop
endfacet
facet normal 0 0 1
outer loop
vertex -5.299605178898658 47.684116636815176 8.999967157753964
vertex -15.897902205342438 47.776363103522414 8.999967157753964
vertex -15.999738651261817 47.000031453015936 8.999967157753964
endloop
endfacet
facet normal 0 0 0.9999999999999999
outer loop
vertex -5.299605178898658 47.684116636815176 8.999967157753964
vertex -15.999738651261817 47.000031453015936 8.999967157753964
vertex -15.999738651261817 44.500243538385064 8.999967157753964
endloop
endfacet
facet normal 0 0 1
outer loop
vertex -5.299605178898658 47.684116636815176 8.999967157753964
vertex -15.999738651261817 44.500243538385064 8.999967157753964
vertex -5.00003249493851 44.500243538385064 8.999967157753964
endloop
endfacet
facet normal 0 0 1
outer loop
vertex -5.299605178898658 47.684116636815176 8.999967157753964
vertex -5.00003249493851 44.500243538385064 8.999967157753964
vertex 11.999803988446363 44.500243538385064 8.999967157753964
endloop
endfacet
facet normal 0 0 0.9999999999999999
outer loop
vertex -5.299605178898658 47.684116636815176 8.999967157753964
vertex 11.999803988446363 44.500243538385064 8.999967157753964
vertex 21.999868978323384 44.500243538385064 8.999967157753964
endloop
endfacet
facet normal 0 0 1
outer loop
vertex -5.299605178898658 47.684116636815176 8.999967157753964
vertex 21.999868978323384 44.500243538385064 8.999967157753964
vertex 21.999868978323384 49.99986828370833 8.999967157753964
endloop
endfacet
facet normal 0 0 0.9999999999999999
outer loop
vertex -5.299605178898658 47.684116636815176 8.999967157753964
vertex 21.999868978323384 49.99986828370833 8.999967157753964
vertex 0 49.99986828370833 8.999967157753964
endloop
endfacet
facet normal 0 0 1
outer loop
vertex 11.999803988446363 44.500243538385064 8.999967157753964
vertex 11.999803988446363 25.500211390754078 8.999967157753964
vertex 21.999868978323384 25.500211390754078 8.999967157753964
endloop
endfacet
facet normal 0 0 1
outer loop
vertex 11.999803988446363 44.500243538385064 8.999967157753964
vertex 21.999868978323384 25.500211390754078 8.999967157753964
vertex 21.999868978323384 44.500243538385064 8.999967157753964
endloop
endfacet
facet normal 0 0 1
outer loop
vertex -15.999738651261817 44.500243538385064 8.999967157753964
vertex -15.999738651261817 25.500211390754078 8.999967157753964
vertex -5.00003249493851 25.500211390754078 8.999967157753964
endloop
endfacet
facet normal 0 0 1
outer loop
vertex -15.999738651261817 44.500243538385064 8.999967157753964
vertex -5.00003249493851 25.500211390754078 8.999967157753964
vertex -5.00003249493851 44.500243538385064 8.999967157753964
endloop
endfacet
facet normal 0 0 1
outer loop
vertex -5.299605178898658 22.315881626647197 8.999967157753964
vertex 11.999803988446363 25.500211390754078 8.999967157753964
vertex -5.00003249493851 25.500211390754078 8.999967157753964
endloop
endfacet
facet normal 0 0 1
outer loop
vertex -5.299605178898658 22.315881626647197 8.999967157753964
vertex -5.00003249493851 25.500211390754078 8.999967157753964
vertex -15.999738651261817 25.500211390754078 8.999967157753964
endloop
endfacet
facet normal 0 0 1
outer loop
vertex -5.299605178898658 22.315881626647197 8.999967157753964
vertex -15.999738651261817 25.500211390754078 8.999967157753964
vertex -15.999738651261817 22.999966810446438 8.999967157753964
endloop
endfacet
facet normal 0 0 1
outer loop
vertex -5.299605178898658 22.315881626647197 8.999967157753964
vertex -15.999738651261817 22.999966810446438 8.999967157753964
vertex -15.897902205342438 22.223635159939956 8.999967157753964
endloop
endfacet
facet normal 0 0 1
outer loop
vertex -5.299605178898658 22.315881626647197 8.999967157753964
vertex -15.897902205342438 22.223635159939956 8.999967157753964
vertex -15.597872855705521 21.499820062261854 8.999967157753964
endloop
endfacet
facet normal 0 0 1
outer loop
vertex -5.299605178898658 22.315881626647197 8.999967157753964
vertex -15.597872855705521 21.499820062261854 8.999967157753964
vertex -15.121113889159188 20.87875474185667 8.999967157753964
endloop
endfacet
facet normal 0 0 1
outer loop
vertex -5.299605178898658 22.315881626647197 8.999967157753964
vertex -15.121113889159188 20.87875474185667 8.999967157753964
vertex -14.499591903077233 20.401995775310336 8.999967157753964
endloop
endfacet
facet normal 0 0 1
outer loop
vertex -5.299605178898658 22.315881626647197 8.999967157753964
vertex -14.499591903077233 20.401995775310336 8.999967157753964
vertex -13.7762334710759 20.10196642567342 8.999967157753964
endloop
endfacet
facet normal 0 0 1
outer loop
vertex -5.299605178898658 22.315881626647197 8.999967157753964
vertex -13.7762334710759 20.10196642567342 8.999967157753964
vertex -13.000358486246187 19.99967331407727 8.999967157753964
endloop
endfacet
facet normal 0 0 0.9999999999999999
outer loop
vertex -5.299605178898658 22.315881626647197 8.999967157753964
vertex -13.000358486246187 19.99967331407727 8.999967157753964
vertex 0 19.99967331407727 8.999967157753964
endloop
endfacet
facet normal 0 0 1
outer loop
vertex -5.299605178898658 22.315881626647197 8.999967157753964
vertex 0 19.99967331407727 8.999967157753964
vertex 21.999868978323384 19.99967331407727 8.999967157753964
endloop
endfacet
facet normal 0 0 1
outer loop
vertex -5.299605178898658 22.315881626647197 8.999967157753964
vertex 21.999868978323384 19.99967331407727 8.999967157753964
vertex 21.999868978323384 25.500211390754078 8.999967157753964
endloop
endfacet
facet normal 0 0 1
outer loop
vertex -5.299605178898658 22.315881626647197 8.999967157753964
vertex 21.999868978323384 25.500211390754078 8.999967157753964
vertex 11.999803988446363 25.500211390754078 8.999967157753964
endloop
endfacet
facet normal 0 0 1
outer loop
vertex 11.000162822000076 3.5131290513802136 8.999967157753964
vertex 0 19.99967331407727 8.999967157753964
vertex 0 2.9998368306923986 8.999967157753964
endloop
endfacet
facet normal 0 0 1
outer loop
vertex 11.000162822000076 3.5131290513802136 8.999967157753964
vertex 0 2.9998368306923986 8.999967157753964
vertex 0.10229311159614816 2.223505180185917 8.999967157753964
endloop
endfacet
facet normal 0 0 1
outer loop
vertex 11.000162822000076 3.5131290513802136 8.999967157753964
vertex 0.10229311159614816 2.223505180185917 8.999967157753964
vertex 0.40186579555629637 1.5001467481845836 8.999967157753964
endloop
endfacet
facet normal 0 0 1
outer loop
vertex 11.000162822000076 3.5131290513802136 8.999967157753964
vertex 0.40186579555629637 1.5001467481845836 8.999967157753964
vertex 0.8786247621026297 0.8786247621026297 8.999967157753964
endloop
endfacet
facet normal 0 0 0.9999999999999999
outer loop
vertex 11.000162822000076 3.5131290513802136 8.999967157753964
vertex 0.8786247621026297 0.8786247621026297 8.999967157753964
vertex 1.5001467481845836 0.40186579555629637 8.999967157753964
endloop
endfacet
facet normal 0 0 1
outer loop
vertex 11.000162822000076 3.5131290513802136 8.999967157753964
vertex 1.5001467481845836 0.40186579555629637 8.999967157753964
vertex 2.223505180185917 0.10229311159614816 8.999967157753964
endloop
endfacet
facet normal 0 0 1
outer loop
vertex 11.000162822000076 3.5131290513802136 8.999967157753964
vertex 2.223505180185917 0.10229311159614816 8.999967157753964
vertex 2.9998368306923986 0 8.999967157753964
endloop
endfacet
facet normal 0 0 1
outer loop
vertex 11.000162822000076 3.5131290513802136 8.999967157753964
vertex 2.9998368306923986 0 8.999967157753964
vertex 19.000032147630986 0 8.999967157753964
endloop
endfacet
facet normal 0 0 1
outer loop
vertex 11.000162822000076 3.5131290513802136 8.999967157753964
vertex 19.000032147630986 0 8.999967157753964
vertex 19.776363798137467 0.10229311159614816 8.999967157753964
endloop
endfacet
facet normal 0 0 0.9999999999999999
outer loop
vertex 11.000162822000076 3.5131290513802136 8.999967157753964
vertex 19.776363798137467 0.10229311159614816 8.999967157753964
vertex 20.4997222301388 0.40186579555629637 8.999967157753964
endloop
endfacet
facet normal 0 0 0.9999999999999999
outer loop
vertex 11.000162822000076 3.5131290513802136 8.999967157753964
vertex 20.4997222301388 0.40186579555629637 8.999967157753964
vertex 21.121244216220752 0.8786247621026297 8.999967157753964
endloop
endfacet
facet normal 0 0 0.9999999999999999
outer loop
vertex 11.000162822000076 3.5131290513802136 8.999967157753964
vertex 21.121244216220752 0.8786247621026297 8.999967157753964
vertex 21.598003182767087 1.5001467481845836 8.999967157753964
endloop
endfacet
facet normal 0 0 1
outer loop
vertex 11.000162822000076 3.5131290513802136 8.999967157753964
vertex 21.598003182767087 1.5001467481845836 8.999967157753964
vertex 21.897575866727234 2.223505180185917 8.999967157753964
endloop
endfacet
facet normal 0 0 1
outer loop
vertex 11.000162822000076 3.5131290513802136 8.999967157753964
vertex 21.897575866727234 2.223505180185917 8.999967157753964
vertex 21.999868978323384 2.9998368306923986 8.999967157753964
endloop
endfacet
facet normal 0 0 1
outer loop
vertex 11.000162822000076 3.5131290513802136 8.999967157753964
vertex 21.999868978323384 2.9998368306923986 8.999967157753964
vertex 21.999868978323384 19.99967331407727 8.999967157753964
endloop
endfacet
facet normal 0 0 1
outer loop
vertex 11.000162822000076 3.5131290513802136 8.999967157753964
vertex 21.999868978323384 19.99967331407727 8.999967157753964
vertex 0 19.99967331407727 8.999967157753964
endloop
endfacet
facet normal 0 0 -1
outer loop
vertex 10.999706156323308 66.48686921208215 0
vertex 19.000032147630986 69.99999826346237 0
vertex 19.776363798137467 69.89770515186622 0
endloop
endfacet
facet normal 0 0 -1
outer loop
vertex 10.999706156323308 66.48686921208215 0
vertex 19.776363798137467 69.89770515186622 0
vertex 20.4997222301388 69.59813246790607 0
endloop
endfacet
facet normal 0 0 -0.9999999999999999
outer loop
vertex 10.999706156323308 66.48686921208215 0
vertex 20.4997222301388 69.59813246790607 0
vertex 21.121244216220752 69.12137350135974 0
endloop
endfacet
facet normal 0 0 -1
outer loop
vertex 10.999706156323308 66.48686921208215 0
vertex 21.121244216220752 69.12137350135974 0
vertex 21.598003182767087 68.49985151527778 0
endloop
endfacet
facet normal 0 0 -1
outer loop
vertex 10.999706156323308 66.48686921208215 0
vertex 21.598003182767087 68.49985151527778 0
vertex 21.897575866727234 67.77649308327645 0
endloop
endfacet
facet normal 0 0 -1
outer loop
vertex 10.999706156323308 66.48686921208215 0
vertex 21.897575866727234 67.77649308327645 0
vertex 21.999868978323384 66.9997047670932 0
endloop
endfacet
facet normal 0 0 -1
outer loop
vertex 10.999706156323308 66.48686921208215 0
vertex 21.999868978323384 66.9997047670932 0
vertex 21.999868978323384 49.99986828370833 0
endloop
endfacet
facet normal 0 0 -1
outer loop
vertex 10.999706156323308 66.48686921208215 0
vertex 21.999868978323384 49.99986828370833 0
vertex 0 49.99986828370833 0
endloop
endfacet
facet normal 0 0 -1
outer loop
vertex 10.999706156323308 66.48686921208215 0
vertex 0 49.99986828370833 0
vertex 0 66.9997047670932 0
endloop
endfacet
facet normal 0 0 -1
outer loop
vertex 10.999706156323308 66.48686921208215 0
vertex 0 66.9997047670932 0
vertex 0.10229311159614816 67.77649308327645 0
endloop
endfacet
facet normal 0 0 -1
outer loop
vertex 10.999706156323308 66.48686921208215 0
vertex 0.10229311159614816 67.77649308327645 0
vertex 0.40186579555629637 68.49985151527778 0
endloop
endfacet
facet normal 0 0 -1
outer loop
vertex 10.999706156323308 66.48686921208215 0
vertex 0.40186579555629637 68.49985151527778 0
vertex 0.8786247621026297 69.12137350135974 0
endloop
endfacet
facet normal 0 0 -0.9999999999999999
outer loop
vertex 10.999706156323308 66.48686921208215 0
vertex 0.8786247621026297 69.12137350135974 0
vertex 1.5001467481845836 69.59813246790607 0
endloop
endfacet
facet normal 0 0 -1
outer loop
vertex 10.999706156323308 66.48686921208215 0
vertex 1.5001467481845836 69.59813246790607 0
vertex 2.223505180185917 69.89770515186622 0
endloop
endfacet
facet normal 0 0 -1
outer loop
vertex 10.999706156323308 66.48686921208215 0
vertex 2.223505180185917 69.89770515186622 0
vertex 2.9998368306923986 69.99999826346237 0
endloop
endfacet
facet normal 0 0 -0.9999999999999999
outer loop
vertex 10.999706156323308 66.48686921208215 0
vertex 2.9998368306923986 69.99999826346237 0
vertex 19.000032147630986 69.99999826346237 0
endloop
endfacet
facet normal 0 0 -0.9999999999999999
outer loop
vertex -5.299605178898658 47.684116636815176 0
vertex 0 49.99986828370833 0
vertex 21.999868978323384 49.99986828370833 0
endloop
endfacet
facet normal 0 0 -1
outer loop
vertex -5.299605178898658 47.684116636815176 0
vertex 21.999868978323384 49.99986828370833 0
vertex 21.999868978323384 44.500243538385064 0
endloop
endfacet
facet normal 0 0 -0.9999999999999999
outer loop
vertex -5.299605178898658 47.684116636815176 0
vertex 21.999868978323384 44.500243538385064 0
vertex 11.999803988446363 44.500243538385064 0
endloop
endfacet
facet normal 0 0 -1
outer loop
vertex -5.299605178898658 47.684116636815176 0
vertex 11.999803988446363 44.500243538385064 0
vertex -5.00003249493851 44.500243538385064 0
endloop
endfacet
facet normal 0 0 -1
outer loop
vertex -5.299605178898658 47.684116636815176 0
vertex -5.00003249493851 44.500243538385064 0
vertex -15.999738651261817 44.500243538385064 0
endloop
endfacet
facet normal 0 0 -0.9999999999999999
outer loop
vertex -5.299605178898658 47.684116636815176 0
vertex -15.999738651261817 44.500243538385064 0
vertex -15.999738651261817 47.000031453015936 0
endloop
endfacet
facet normal 0 0 -1
outer loop
vertex -5.299605178898658 47.684116636815176 0
vertex -15.999738651261817 47.000031453015936 0
vertex -15.897902205342438 47.776363103522414 0
endloop
endfacet
facet normal 0 0 -1
outer loop
vertex -5.299605178898658 47.684116636815176 0
vertex -15.897902205342438 47.776363103522414 0
vertex -15.597872855705521 48.50017820120052 0
endloop
endfacet
facet normal 0 0 -1
outer loop
vertex -5.299605178898658 47.684116636815176 0
vertex -15.597872855705521 48.50017820120052 0
vertex -15.121113889159188 49.1212435216057 0
endloop
endfacet
facet normal 0 0 -1
outer loop
vertex -5.299605178898658 47.684116636815176 0
vertex -15.121113889159188 49.1212435216057 0
vertex -14.499591903077233 49.598002488152034 0
endloop
endfacet
facet normal 0 0 -1
outer loop
vertex -5.299605178898658 47.684116636815176 0
vertex -14.499591903077233 49.598002488152034 0
vertex -13.7762334710759 49.897575172112184 0
endloop
endfacet
facet normal 0 0 -1
outer loop
vertex -5.299605178898658 47.684116636815176 0
vertex -13.7762334710759 49.897575172112184 0
vertex -13.000358486246187 49.99986828370833 0
endloop
endfacet
facet normal 0 0 -1
outer loop
vertex -5.299605178898658 47.684116636815176 0
vertex -13.000358486246187 49.99986828370833 0
vertex 0 49.99986828370833 0
endloop
endfacet
facet normal 0 0 -0.9999999999999999
outer loop
vertex 41.99999895807743 44.000194622323534 0
vertex 41.99999895807743 25.999803641138836 0
vertex 21.999868978323384 25.999803641138836 0
endloop
endfacet
facet normal 0 0 -0.9999999999999999
outer loop
vertex 41.99999895807743 44.000194622323534 0
vertex 21.999868978323384 25.999803641138836 0
vertex 21.999868978323384 44.000194622323534 0
endloop
endfacet
facet normal 0 0 -1
outer loop
vertex -5.00003249493851 44.500243538385064 0
vertex -5.00003249493851 25.500211390754078 0
vertex -15.999738651261817 25.500211390754078 0
endloop
endfacet
facet normal 0 0 -1
outer loop
vertex -5.00003249493851 44.500243538385064 0
vertex -15.999738651261817 25.500211390754078 0
vertex -15.999738651261817 44.500243538385064 0
endloop
endfacet
facet normal 0 0 -1
outer loop
vertex 21.999868978323384 44.500243538385064 0
vertex 21.999868978323384 25.500211390754078 0
vertex 11.999803988446363 25.500211390754078 0
endloop
endfacet
facet normal 0 0 -1
outer loop
vertex 21.999868978323384 44.500243538385064 0
vertex 11.999803988446363 25.500211390754078 0
vertex 11.999803988446363 44.500243538385064 0
endloop
endfacet
facet normal 0 0 -1
outer loop
vertex -5.299605178898658 22.315881626647197 0
vertex -5.00003249493851 25.500211390754078 0
vertex 11.999803988446363 25.500211390754078 0
endloop
endfacet
facet normal 0 0 -1
outer loop
vertex -5.299605178898658 22.315881626647197 0
vertex 11.999803988446363 25.500211390754078 0
vertex 21.999868978323384 25.500211390754078 0
endloop
endfacet
facet normal 0 0 -1
outer loop
vertex -5.299605178898658 22.315881626647197 0
vertex 21.999868978323384 25.500211390754078 0
vertex 21.999868978323384 19.99967331407727 0
endloop
endfacet
facet normal 0 0 -1
outer loop
vertex -5.299605178898658 22.315881626647197 0
vertex 21.999868978323384 19.99967331407727 0
vertex 0 19.99967331407727 0
endloop
endfacet
facet normal 0 0 -0.9999999999999999
outer loop
vertex -5.299605178898658 22.315881626647197 0
vertex 0 19.99967331407727 0
vertex -13.000358486246187 19.99967331407727 0
endloop
endfacet
facet normal 0 0 -1
outer loop
vertex -5.299605178898658 22.315881626647197 0
vertex -13.000358486246187 19.99967331407727 0
vertex -13.7762334710759 20.10196642567342 0
endloop
endfacet
facet normal 0 0 -1
outer loop
vertex -5.299605178898658 22.315881626647197 0
vertex -13.7762334710759 20.10196642567342 0
vertex -14.499591903077233 20.401995775310336 0
endloop
endfacet
facet normal 0 0 -1
outer loop
vertex -5.299605178898658 22.315881626647197 0
vertex -14.499591903077233 20.401995775310336 0
vertex -15.121113889159188 20.87875474185667 0
endloop
endfacet
facet normal 0 0 -1
outer loop
vertex -5.299605178898658 22.315881626647197 0
vertex -15.121113889159188 20.87875474185667 0
vertex -15.597872855705521 21.499820062261854 0
endloop
endfacet
facet normal 0 0 -1
outer loop
vertex -5.299605178898658 22.315881626647197 0
vertex -15.597872855705521 21.499820062261854 0
vertex -15.897902205342438 22.223635159939956 0
endloop
endfacet
facet normal 0 0 -1
outer loop
vertex -5.299605178898658 22.315881626647197 0
vertex -15.897902205342438 22.223635159939956 0
vertex -15.999738651261817 22.999966810446438 0
endloop
endfacet
facet normal 0 0 -1
outer loop
vertex -5.299605178898658 22.315881626647197 0
vertex -15.999738651261817 22.999966810446438 0
vertex -15.999738651261817 25.500211390754078 0
endloop
endfacet
facet normal 0 0 -1
outer loop
vertex -5.299605178898658 22.315881626647197 0
vertex -15.999738651261817 25.500211390754078 0
vertex -5.00003249493851 25.500211390754078 0
endloop
endfacet
facet normal 0 0 -1
outer loop
vertex 10.999706156323308 3.5131290513802136 0
vertex 21.999868978323384 19.99967331407727 0
vertex 21.999868978323384 2.9998368306923986 0
endloop
endfacet
facet normal 0 0 -1
outer loop
vertex 10.999706156323308 3.5131290513802136 0
vertex 21.999868978323384 2.9998368306923986 0
vertex 21.897575866727234 2.223505180185917 0
endloop
endfacet
facet normal 0 0 -1
outer loop
vertex 10.999706156323308 3.5131290513802136 0
vertex 21.897575866727234 2.223505180185917 0
vertex 21.598003182767087 1.5001467481845836 0
endloop
endfacet
facet normal 0 0 -0.9999999999999999
outer loop
vertex 10.999706156323308 3.5131290513802136 0
vertex 21.598003182767087 1.5001467481845836 0
vertex 21.121244216220752 0.8786247621026297 0
endloop
endfacet
facet normal 0 0 -0.9999999999999999
outer loop
vertex 10.999706156323308 3.5131290513802136 0
vertex 21.121244216220752 0.8786247621026297 0
vertex 20.4997222301388 0.40186579555629637 0
endloop
endfacet
facet normal 0 0 -1
outer loop
vertex 10.999706156323308 3.5131290513802136 0
vertex 20.4997222301388 0.40186579555629637 0
vertex 19.776363798137467 0.10229311159614816 0
endloop
endfacet
facet normal 0 0 -1
outer loop
vertex 10.999706156323308 3.5131290513802136 0
vertex 19.776363798137467 0.10229311159614816 0
vertex 19.000032147630986 0 0
endloop
endfacet
facet normal 0 0 -1
outer loop
vertex 10.999706156323308 3.5131290513802136 0
vertex 19.000032147630986 0 0
vertex 2.9998368306923986 0 0
endloop
endfacet
facet normal 0 0 -1
outer loop
vertex 10.999706156323308 3.5131290513802136 0
vertex 2.9998368306923986 0 0
vertex 2.223505180185917 0.10229311159614816 0
endloop
endfacet
facet normal 0 0 -0.9999999999999999
outer loop
vertex 10.999706156323308 3.5131290513802136 0
vertex 2.223505180185917 0.10229311159614816 0
vertex 1.5001467481845836 0.40186579555629637 0
endloop
endfacet
facet normal 0 0 -0.9999999999999999
outer loop
vertex 10.999706156323308 3.5131290513802136 0
vertex 1.5001467481845836 0.40186579555629637 0
vertex 0.8786247621026297 0.8786247621026297 0
endloop
endfacet
facet normal 0 0 -1
outer loop
vertex 10.999706156323308 3.5131290513802136 0
vertex 0.8786247621026297 0.8786247621026297 0
vertex 0.40186579555629637 1.5001467481845836 0
endloop
endfacet
facet normal 0 0 -1
outer loop
vertex 10.999706156323308 3.5131290513802136 0
vertex 0.40186579555629637 1.5001467481845836 0
vertex 0.10229311159614816 2.223505180185917 0
endloop
endfacet
facet normal 0 0 -1
outer loop
vertex 10.999706156323308 3.5131290513802136 0
vertex 0.10229311159614816 2.223505180185917 0
vertex 0 2.9998368306923986 0
endloop
endfacet
facet normal 0 0 -1
outer loop
vertex 10.999706156323308 3.5131290513802136 0
vertex 0 2.9998368306923986 0
vertex 0 19.99967331407727 0
endloop
endfacet
facet normal 0 0 -1
outer loop
vertex 10.999706156323308 3.5131290513802136 0
vertex 0 19.99967331407727 0
vertex 21.999868978323384 19.99967331407727 0
endloop
endfacet
facet normal 0 -0.9999999999999999 0
outer loop
vertex 31.999933968200402 25.999803641138836 2.0001956642461116
vertex 41.99999895807743 25.999803641138836 2.0001956642461116
vertex 31.999933968200402 25.999803641138836 5.00003249493851
endloop
endfacet
facet normal 0 -1 0
outer loop
vertex 31.999933968200402 25.999803641138836 1.200117398547667
vertex 31.999933968200402 25.999803641138836 2.0001956642461116
vertex 21.999868978323384 25.999803641138836 2.0001956642461116
endloop
endfacet
facet normal 0 -1 0
outer loop
vertex 31.999933968200402 25.999803641138836 1.200117398547667
vertex 21.999868978323384 25.999803641138836 2.0001956642461116
vertex 21.999868978323384 25.999803641138836 0
endloop
endfacet
facet normal 0 -1 0
outer loop
vertex 31.999933968200402 25.999803641138836 1.200117398547667
vertex 21.999868978323384 25.999803641138836 0
vertex 41.99999895807743 25.999803641138836 0
endloop
endfacet
facet normal 0 -1 0
outer loop
vertex 31.999933968200402 25.999803641138836 1.200117398547667
vertex 41.99999895807743 25.999803641138836 0
vertex 41.99999895807743 25.999803641138836 2.0001956642461116
endloop
endfacet
facet normal 0 -1 0
outer loop
vertex 31.999933968200402 25.999803641138836 1.200117398547667
vertex 41.99999895807743 25.999803641138836 2.0001956642461116
vertex 31.999933968200402 25.999803641138836 2.0001956642461116
endloop
endfacet
facet normal 0 0.9999999999999999 0
outer loop
vertex 41.99999895807743 44.000194622323534 2.0001956642461116
vertex 31.999933968200402 44.000194622323534 2.0001956642461116
vertex 31.999933968200402 44.000194622323534 5.00003249493851
endloop
endfacet
facet normal 0 1 0
outer loop
vertex 31.999933968200402 44.000194622323534 1.200117398547667
vertex 31.999933968200402 44.000194622323534 2.0001956642461116
vertex 41.99999895807743 44.000194622323534 2.0001956642461116
endloop
endfacet
facet normal 0 1 0
outer loop
vertex 31.999933968200402 44.000194622323534 1.200117398547667
vertex 41.99999895807743 44.000194622323534 2.0001956642461116
vertex 41.99999895807743 44.000194622323534 0
endloop
endfacet
facet normal 0 1 0
outer loop
vertex 31.999933968200402 44.000194622323534 1.200117398547667
vertex 41.99999895807743 44.000194622323534 0
vertex 21.999868978323384 44.000194622323534 0
endloop
endfacet
facet normal 0 1 0
outer loop
vertex 31.999933968200402 44.000194622323534 1.200117398547667
vertex 21.999868978323384 44.000194622323534 0
vertex 21.999868978323384 44.000194622323534 2.0001956642461116
endloop
endfacet
facet normal 0 1 0
outer loop
vertex 31.999933968200402 44.000194622323534 1.200117398547667
vertex 21.999868978323384 44.000194622323534 2.0001956642461116
vertex 31.999933968200402 44.000194622323534 2.0001956642461116
endloop
endfacet
facet normal -1 0 0
outer loop
vertex 31.999933968200402 25.999803641138836 2.0001956642461116
vertex 31.999933968200402 25.999803641138836 5.00003249493851
vertex 31.999933968200402 44.000194622323534 5.00003249493851
endloop
endfacet
facet normal -1 0 0
outer loop
vertex 31.999933968200402 25.999803641138836 2.0001956642461116
vertex 31.999933968200402 44.000194622323534 5.00003249493851
vertex 31.999933968200402 44.000194622323534 2.0001956642461116
endloop
endfacet
facet normal 0.28733183393902034 0 0.957831100562745
outer loop
vertex 41.99999895807743 25.999803641138836 2.0001956642461116
vertex 41.99999895807743 44.000194622323534 2.0001956642461116
vertex 31.999933968200402 44.000194622323534 5.00003249493851
endloop
endfacet
facet normal 0.28733183393902034 0 0.957831100562745
outer loop
vertex 41.99999895807743 25.999803641138836 2.0001956642461116
vertex 31.999933968200402 44.000194622323534 5.00003249493851
vertex 31.999933968200402 25.999803641138836 5.00003249493851
endloop
endfacet
facet normal -1 0 0
outer loop
vertex 21.999868978323384 44.000194622323534 2.0001956642461116
vertex 21.999868978323384 44.000194622323534 0
vertex 21.999868978323384 25.999803641138836 0
endloop
endfacet
facet normal -1 0 0
outer loop
vertex 21.999868978323384 44.000194622323534 2.0001956642461116
vertex 21.999868978323384 25.999803641138836 0
vertex 21.999868978323384 25.999803641138836 2.0001956642461116
endloop
endfacet
facet normal 1 0 0
outer loop
vertex 41.99999895807743 25.999803641138836 2.0001956642461116
vertex 41.99999895807743 25.999803641138836 0
vertex 41.99999895807743 44.000194622323534 0
endloop
endfacet
facet normal 1 0 0
outer loop
vertex 41.99999895807743 25.999803641138836 2.0001956642461116
vertex 41.99999895807743 44.000194622323534 0
vertex 41.99999895807743 44.000194622323534 2.0001956642461116
endloop
endfacet
facet normal 0 0 0.9999999999999999
outer loop
vertex 21.999868978323384 44.000194622323534 2.0001956642461116
vertex 21.999868978323384 25.999803641138836 2.0001956642461116
vertex 31.999933968200402 25.999803641138836 2.0001956642461116
endloop
endfacet
facet normal 0 0 0.9999999999999999
outer loop
vertex 21.999868978323384 44.000194622323534 2.0001956642461116
vertex 31.999933968200402 25.999803641138836 2.0001956642461116
vertex 31.999933968200402 44.000194622323534 2.0001956642461116
endloop
endfacet
endsolid JSCAD
