solid JSCAD
facet normal 1 0 0
outer loop
vertex 21.999765294566107 34.999976907256915 4.000204598472075
vertex 21.999765294566107 49.99983748684033 7.9999558646007145
vertex 21.999765294566107 44.500009496284655 7.9999558646007145
endloop
endfacet
facet normal 1 0 0
outer loop
vertex 21.999765294566107 34.999976907256915 4.000204598472075
vertex 21.999765294566107 44.500009496284655 7.9999558646007145
vertex 21.999765294566107 25.499944318229172 7.9999558646007145
endloop
endfacet
facet normal 1 0 0
outer loop
vertex 21.999765294566107 34.999976907256915 4.000204598472075
vertex 21.999765294566107 25.499944318229172 7.9999558646007145
vertex 21.999765294566107 19.99966299533007 7.9999558646007145
endloop
endfacet
facet normal 1 0 0
outer loop
vertex 21.999765294566107 34.999976907256915 4.000204598472075
vertex 21.999765294566107 19.99966299533007 7.9999558646007145
vertex 21.999765294566107 3.000153448854056 7.9999558646007145
endloop
endfacet
facet normal 1 0 0
outer loop
vertex 21.999765294566107 34.999976907256915 4.000204598472075
vertex 21.999765294566107 3.000153448854056 7.9999558646007145
vertex 21.999765294566107 3.000153448854056 0
endloop
endfacet
facet normal 1 0 0
outer loop
vertex 21.999765294566107 34.999976907256915 4.000204598472075
vertex 21.999765294566107 3.000153448854056 0
vertex 21.999765294566107 19.99966299533007 0
endloop
endfacet
facet normal 1 0 0
outer loop
vertex 21.999765294566107 34.999976907256915 4.000204598472075
vertex 21.999765294566107 19.99966299533007 0
vertex 21.999765294566107 25.499944318229172 0
endloop
endfacet
facet normal 1 0 0
outer loop
vertex 21.999765294566107 34.999976907256915 4.000204598472075
vertex 21.999765294566107 25.499944318229172 0
vertex 21.999765294566107 44.500009496284655 0
endloop
endfacet
facet normal 1 0 0
outer loop
vertex 21.999765294566107 34.999976907256915 4.000204598472075
vertex 21.999765294566107 44.500009496284655 0
vertex 21.999765294566107 49.99983748684033 0
endloop
endfacet
facet normal 1 0 0
outer loop
vertex 21.999765294566107 34.999976907256915 4.000204598472075
vertex 21.999765294566107 49.99983748684033 0
vertex 21.999765294566107 66.99980036565977 0
endloop
endfacet
facet normal 1 0 0
outer loop
vertex 21.999765294566107 34.999976907256915 4.000204598472075
vertex 21.999765294566107 66.99980036565977 0
vertex 21.999765294566107 66.99980036565977 7.9999558646007145
endloop
endfacet
facet normal 1 0 0
outer loop
vertex 21.999765294566107 34.999976907256915 4.000204598472075
vertex 21.999765294566107 66.99980036565977 7.9999558646007145
vertex 21.999765294566107 49.99983748684033 7.9999558646007145
endloop
endfacet
facet normal 0.9914838208033994 0.1302299239233917 0
outer loop
vertex 21.999765294566107 66.99980036565977 7.9999558646007145
vertex 21.999765294566107 66.99980036565977 0
vertex 21.897765517293188 67.77635866996424 0
endloop
endfacet
facet normal 0.9914838208033994 0.1302299239233917 0
outer loop
vertex 21.999765294566107 66.99980036565977 7.9999558646007145
vertex 21.897765517293188 67.77635866996424 0
vertex 21.897765517293188 67.77635866996424 7.9999558646007145
endloop
endfacet
facet normal 0.9238968965559814 0.3826415091625922 0
outer loop
vertex 21.897765517293188 67.77635866996424 7.9999558646007145
vertex 21.897765517293188 67.77635866996424 0
vertex 21.598112838282532 68.4998770900868 0
endloop
endfacet
facet normal 0.9238968965559814 0.3826415091625922 0
outer loop
vertex 21.897765517293188 67.77635866996424 7.9999558646007145
vertex 21.598112838282532 68.4998770900868 0
vertex 21.598112838282532 68.4998770900868 7.9999558646007145
endloop
endfacet
facet normal 0.7936343116149011 0.6083950849797706 0
outer loop
vertex 21.598112838282532 68.4998770900868 7.9999558646007145
vertex 21.598112838282532 68.4998770900868 0
vertex 21.12166054533215 69.12139573293643 0
endloop
endfacet
facet normal 0.7936343116149011 0.6083950849797706 0
outer loop
vertex 21.598112838282532 68.4998770900868 7.9999558646007145
vertex 21.12166054533215 69.12139573293643 0
vertex 21.12166054533215 69.12139573293643 7.9999558646007145
endloop
endfacet
facet normal 0.6083950849797735 0.7936343116148988 0
outer loop
vertex 21.12166054533215 69.12139573293643 7.9999558646007145
vertex 21.12166054533215 69.12139573293643 0
vertex 20.500141902482515 69.59784802588682 0
endloop
endfacet
facet normal 0.6083950849797735 0.7936343116148988 0
outer loop
vertex 21.12166054533215 69.12139573293643 7.9999558646007145
vertex 20.500141902482515 69.59784802588682 0
vertex 20.500141902482515 69.59784802588682 7.9999558646007145
endloop
endfacet
facet normal 0.38264150916260153 0.9238968965559775 0
outer loop
vertex 20.500141902482515 69.59784802588682 7.9999558646007145
vertex 20.500141902482515 69.59784802588682 0
vertex 19.77662348235996 69.89750070489748 0
endloop
endfacet
facet normal 0.38264150916260153 0.9238968965559775 0
outer loop
vertex 20.500141902482515 69.59784802588682 7.9999558646007145
vertex 19.77662348235996 69.89750070489748 0
vertex 19.77662348235996 69.89750070489748 7.9999558646007145
endloop
endfacet
facet normal 0.13079884281999785 0.9914089281002817 0
outer loop
vertex 19.77662348235996 69.89750070489748 7.9999558646007145
vertex 19.77662348235996 69.89750070489748 0
vertex 19.000065178055486 69.99995381451383 0
endloop
endfacet
facet normal 0.13079884281999785 0.9914089281002817 0
outer loop
vertex 19.77662348235996 69.89750070489748 7.9999558646007145
vertex 19.000065178055486 69.99995381451383 0
vertex 19.000065178055486 69.99995381451383 7.9999558646007145
endloop
endfacet
facet normal 0 1 0
outer loop
vertex 19.000065178055486 69.99995381451383 7.9999558646007145
vertex 19.000065178055486 69.99995381451383 0
vertex 3.000153448854056 69.99995381451383 0
endloop
endfacet
facet normal 0 1 0
outer loop
vertex 19.000065178055486 69.99995381451383 7.9999558646007145
vertex 3.000153448854056 69.99995381451383 0
vertex 3.000153448854056 69.99995381451383 7.9999558646007145
endloop
endfacet
facet normal -0.1307988428199979 0.9914089281002816 0
outer loop
vertex 3.000153448854056 69.99995381451383 7.9999558646007145
vertex 3.000153448854056 69.99995381451383 0
vertex 2.223595144549584 69.89750070489748 0
endloop
endfacet
facet normal -0.1307988428199979 0.9914089281002816 0
outer loop
vertex 3.000153448854056 69.99995381451383 7.9999558646007145
vertex 2.223595144549584 69.89750070489748 0
vertex 2.223595144549584 69.89750070489748 7.9999558646007145
endloop
endfacet
facet normal -0.38264150916260153 0.9238968965559775 0
outer loop
vertex 2.223595144549584 69.89750070489748 7.9999558646007145
vertex 2.223595144549584 69.89750070489748 0
vertex 1.500076724427028 69.59784802588682 0
endloop
endfacet
facet normal -0.38264150916260153 0.9238968965559775 0
outer loop
vertex 2.223595144549584 69.89750070489748 7.9999558646007145
vertex 1.500076724427028 69.59784802588682 0
vertex 1.500076724427028 69.59784802588682 7.9999558646007145
endloop
endfacet
facet normal -0.6083950849797719 0.7936343116149 0
outer loop
vertex 1.500076724427028 69.59784802588682 7.9999558646007145
vertex 1.500076724427028 69.59784802588682 0
vertex 0.878558081577389 69.12139573293643 0
endloop
endfacet
facet normal -0.6083950849797719 0.7936343116149 0
outer loop
vertex 1.500076724427028 69.59784802588682 7.9999558646007145
vertex 0.878558081577389 69.12139573293643 0
vertex 0.878558081577389 69.12139573293643 7.9999558646007145
endloop
endfacet
facet normal -0.7933548216543015 0.6087594984539227 0
outer loop
vertex 0.878558081577389 69.12139573293643 7.9999558646007145
vertex 0.878558081577389 69.12139573293643 0
vertex 0.40165245628357416 68.4998770900868 0
endloop
endfacet
facet normal -0.7933548216543015 0.6087594984539227 0
outer loop
vertex 0.878558081577389 69.12139573293643 7.9999558646007145
vertex 0.40165245628357416 68.4998770900868 0
vertex 0.40165245628357416 68.4998770900868 7.9999558646007145
endloop
endfacet
facet normal -0.92410145706241 0.3821472190859571 0
outer loop
vertex 0.40165245628357416 68.4998770900868 7.9999558646007145
vertex 0.40165245628357416 68.4998770900868 0
vertex 0.10245310961635187 67.77635866996424 0
endloop
endfacet
facet normal -0.92410145706241 0.3821472190859571 0
outer loop
vertex 0.40165245628357416 68.4998770900868 7.9999558646007145
vertex 0.10245310961635187 67.77635866996424 0
vertex 0.10245310961635187 67.77635866996424 7.9999558646007145
endloop
endfacet
facet normal -0.9914089281002811 0.13079884282000198 0
outer loop
vertex 0.10245310961635187 67.77635866996424 7.9999558646007145
vertex 0.10245310961635187 67.77635866996424 0
vertex 0 66.99980036565977 0
endloop
endfacet
facet normal -0.9914089281002811 0.13079884282000198 0
outer loop
vertex 0.10245310961635187 67.77635866996424 7.9999558646007145
vertex 0 66.99980036565977 0
vertex 0 66.99980036565977 7.9999558646007145
endloop
endfacet
facet normal -0.9914089281002811 -0.13079884282000204 0
outer loop
vertex 0 3.000153448854056 7.9999558646007145
vertex 0 3.000153448854056 0
vertex 0.10245310961635187 2.223595144549584 0
endloop
endfacet
facet normal -0.9914089281002811 -0.13079884282000204 0
outer loop
vertex 0 3.000153448854056 7.9999558646007145
vertex 0.10245310961635187 2.223595144549584 0
vertex 0.10245310961635187 2.223595144549584 7.9999558646007145
endloop
endfacet
facet normal -0.9241014570624095 -0.3821472190859588 0
outer loop
vertex 0.10245310961635187 2.223595144549584 7.9999558646007145
vertex 0.10245310961635187 2.223595144549584 0
vertex 0.40165245628357416 1.500076724427028 0
endloop
endfacet
facet normal -0.9241014570624095 -0.3821472190859588 0
outer loop
vertex 0.10245310961635187 2.223595144549584 7.9999558646007145
vertex 0.40165245628357416 1.500076724427028 0
vertex 0.40165245628357416 1.500076724427028 7.9999558646007145
endloop
endfacet
facet normal -0.7933548216543026 -0.6087594984539213 0
outer loop
vertex 0.40165245628357416 1.500076724427028 7.9999558646007145
vertex 0.40165245628357416 1.500076724427028 0
vertex 0.878558081577389 0.878558081577389 0
endloop
endfacet
facet normal -0.7933548216543026 -0.6087594984539213 0
outer loop
vertex 0.40165245628357416 1.500076724427028 7.9999558646007145
vertex 0.878558081577389 0.878558081577389 0
vertex 0.878558081577389 0.878558081577389 7.9999558646007145
endloop
endfacet
facet normal -0.6087594984539213 -0.7933548216543026 0
outer loop
vertex 0.878558081577389 0.878558081577389 7.9999558646007145
vertex 0.878558081577389 0.878558081577389 0
vertex 1.500076724427028 0.40165245628357416 0
endloop
endfacet
facet normal -0.6087594984539213 -0.7933548216543026 0
outer loop
vertex 0.878558081577389 0.878558081577389 7.9999558646007145
vertex 1.500076724427028 0.40165245628357416 0
vertex 1.500076724427028 0.40165245628357416 7.9999558646007145
endloop
endfacet
facet normal -0.3821472190859588 -0.9241014570624095 0
outer loop
vertex 1.500076724427028 0.40165245628357416 7.9999558646007145
vertex 1.500076724427028 0.40165245628357416 0
vertex 2.223595144549584 0.10245310961635187 0
endloop
endfacet
facet normal -0.3821472190859588 -0.9241014570624095 0
outer loop
vertex 1.500076724427028 0.40165245628357416 7.9999558646007145
vertex 2.223595144549584 0.10245310961635187 0
vertex 2.223595144549584 0.10245310961635187 7.9999558646007145
endloop
endfacet
facet normal -0.13079884282000204 -0.9914089281002811 0
outer loop
vertex 2.223595144549584 0.10245310961635187 7.9999558646007145
vertex 2.223595144549584 0.10245310961635187 0
vertex 3.000153448854056 0 0
endloop
endfacet
facet normal -0.13079884282000204 -0.9914089281002811 0
outer loop
vertex 2.223595144549584 0.10245310961635187 7.9999558646007145
vertex 3.000153448854056 0 0
vertex 3.000153448854056 0 7.9999558646007145
endloop
endfacet
facet normal 0 -1 0
outer loop
vertex 3.000153448854056 0 7.9999558646007145
vertex 3.000153448854056 0 0
vertex 19.000065178055486 0 0
endloop
endfacet
facet normal 0 -1 0
outer loop
vertex 3.000153448854056 0 7.9999558646007145
vertex 19.000065178055486 0 0
vertex 19.000065178055486 0 7.9999558646007145
endloop
endfacet
facet normal 0.13079884282000198 -0.9914089281002811 0
outer loop
vertex 19.000065178055486 0 7.9999558646007145
vertex 19.000065178055486 0 0
vertex 19.77662348235996 0.10245310961635187 0
endloop
endfacet
facet normal 0.13079884282000198 -0.9914089281002811 0
outer loop
vertex 19.000065178055486 0 7.9999558646007145
vertex 19.77662348235996 0.10245310961635187 0
vertex 19.77662348235996 0.10245310961635187 7.9999558646007145
endloop
endfacet
facet normal 0.3821472190859588 -0.9241014570624095 0
outer loop
vertex 19.77662348235996 0.10245310961635187 7.9999558646007145
vertex 19.77662348235996 0.10245310961635187 0
vertex 20.500141902482515 0.40165245628357416 0
endloop
endfacet
facet normal 0.3821472190859588 -0.9241014570624095 0
outer loop
vertex 19.77662348235996 0.10245310961635187 7.9999558646007145
vertex 20.500141902482515 0.40165245628357416 0
vertex 20.500141902482515 0.40165245628357416 7.9999558646007145
endloop
endfacet
facet normal 0.6087594984539227 -0.7933548216543015 0
outer loop
vertex 20.500141902482515 0.40165245628357416 7.9999558646007145
vertex 20.500141902482515 0.40165245628357416 0
vertex 21.12166054533215 0.878558081577389 0
endloop
endfacet
facet normal 0.6087594984539227 -0.7933548216543015 0
outer loop
vertex 20.500141902482515 0.40165245628357416 7.9999558646007145
vertex 21.12166054533215 0.878558081577389 0
vertex 21.12166054533215 0.878558081577389 7.9999558646007145
endloop
endfacet
facet normal 0.7936343116149022 -0.6083950849797691 0
outer loop
vertex 21.12166054533215 0.878558081577389 7.9999558646007145
vertex 21.12166054533215 0.878558081577389 0
vertex 21.598112838282532 1.500076724427028 0
endloop
endfacet
facet normal 0.7936343116149022 -0.6083950849797691 0
outer loop
vertex 21.12166054533215 0.878558081577389 7.9999558646007145
vertex 21.598112838282532 1.500076724427028 0
vertex 21.598112838282532 1.500076724427028 7.9999558646007145
endloop
endfacet
facet normal 0.9238968965559808 -0.3826415091625939 0
outer loop
vertex 21.598112838282532 1.500076724427028 7.9999558646007145
vertex 21.598112838282532 1.500076724427028 0
vertex 21.897765517293188 2.223595144549584 0
endloop
endfacet
facet normal 0.9238968965559808 -0.3826415091625939 0
outer loop
vertex 21.598112838282532 1.500076724427028 7.9999558646007145
vertex 21.897765517293188 2.223595144549584 0
vertex 21.897765517293188 2.223595144549584 7.9999558646007145
endloop
endfacet
facet normal 0.9914838208033995 -0.1302299239233918 0
outer loop
vertex 21.897765517293188 2.223595144549584 7.9999558646007145
vertex 21.897765517293188 2.223595144549584 0
vertex 21.999765294566107 3.000153448854056 0
endloop
endfacet
facet normal 0.9914838208033995 -0.1302299239233918 0
outer loop
vertex 21.897765517293188 2.223595144549584 7.9999558646007145
vertex 21.999765294566107 3.000153448854056 0
vertex 21.999765294566107 3.000153448854056 7.9999558646007145
endloop
endfacet
facet normal -1 0 0
outer loop
vertex 0 19.99966299533007 7.9999558646007145
vertex 0 19.99966299533007 0
vertex 0 3.000153448854056 0
endloop
endfacet
facet normal -1 0 0
outer loop
vertex 0 19.99966299533007 7.9999558646007145
vertex 0 3.000153448854056 0
vertex 0 3.000153448854056 7.9999558646007145
endloop
endfacet
facet normal -1 0 0
outer loop
vertex 0 66.99980036565977 7.9999558646007145
vertex 0 66.99980036565977 0
vertex 0 49.99983748684033 0
endloop
endfacet
facet normal -1 0 0
outer loop
vertex 0 66.99980036565977 7.9999558646007145
vertex 0 49.99983748684033 0
vertex 0 49.99983748684033 7.9999558646007145
endloop
endfacet
facet normal -0.130304701577286 0.9914739960013346 0
outer loop
vertex -13.000211612690808 49.99983748684033 7.9999558646007145
vertex -13.000211612690808 49.99983748684033 0
vertex -13.776316584651845 49.897837709567405 0
endloop
endfacet
facet normal -0.130304701577286 0.9914739960013346 0
outer loop
vertex -13.000211612690808 49.99983748684033 7.9999558646007145
vertex -13.776316584651845 49.897837709567405 0
vertex -13.776316584651845 49.897837709567405 7.9999558646007145
endloop
endfacet
facet normal -0.38313547088586075 0.9236921624378274 0
outer loop
vertex -13.776316584651845 49.897837709567405 7.9999558646007145
vertex -13.776316584651845 49.897837709567405 0
vertex -14.4998350047744 49.597731698213316 0
endloop
endfacet
facet normal -0.38313547088586075 0.9236921624378274 0
outer loop
vertex -13.776316584651845 49.897837709567405 7.9999558646007145
vertex -14.4998350047744 49.597731698213316 0
vertex -14.4998350047744 49.597731698213316 7.9999558646007145
endloop
endfacet
facet normal -0.6083950849797711 0.7936343116149004 0
outer loop
vertex -14.4998350047744 49.597731698213316 7.9999558646007145
vertex -14.4998350047744 49.597731698213316 0
vertex -15.12135364762404 49.12127940526293 0
endloop
endfacet
facet normal -0.6083950849797711 0.7936343116149004 0
outer loop
vertex -14.4998350047744 49.597731698213316 7.9999558646007145
vertex -15.12135364762404 49.12127940526293 0
vertex -15.12135364762404 49.12127940526293 7.9999558646007145
endloop
endfacet
facet normal -0.7934198973335488 0.6086746803631813 0
outer loop
vertex -15.12135364762404 49.12127940526293 7.9999558646007145
vertex -15.12135364762404 49.12127940526293 0
vertex -15.59780594057442 48.50021409475673 0
endloop
endfacet
facet normal -0.7934198973335488 0.6086746803631813 0
outer loop
vertex -15.12135364762404 49.12127940526293 7.9999558646007145
vertex -15.59780594057442 48.50021409475673 0
vertex -15.59780594057442 48.50021409475673 7.9999558646007145
endloop
endfacet
facet normal -0.923777051343841 0.3829307501500481 0
outer loop
vertex -15.59780594057442 48.50021409475673 7.9999558646007145
vertex -15.59780594057442 48.50021409475673 0
vertex -15.897911951928512 47.77624234229074 0
endloop
endfacet
facet normal -0.923777051343841 0.3829307501500481 0
outer loop
vertex -15.59780594057442 48.50021409475673 7.9999558646007145
vertex -15.897911951928512 47.77624234229074 0
vertex -15.897911951928512 47.77624234229074 7.9999558646007145
endloop
endfacet
facet normal -0.9914739960013355 0.1303047015772787 0
outer loop
vertex -15.897911951928512 47.77624234229074 7.9999558646007145
vertex -15.897911951928512 47.77624234229074 0
vertex -15.999911729201429 47.0001373703297 0
endloop
endfacet
facet normal -0.9914739960013355 0.1303047015772787 0
outer loop
vertex -15.897911951928512 47.77624234229074 7.9999558646007145
vertex -15.999911729201429 47.0001373703297 0
vertex -15.999911729201429 47.0001373703297 7.9999558646007145
endloop
endfacet
facet normal -1 0 0
outer loop
vertex -15.999911729201429 34.999976907256915 4.000204598472075
vertex -15.999911729201429 25.499944318229172 7.9999558646007145
vertex -15.999911729201429 44.500009496284655 7.9999558646007145
endloop
endfacet
facet normal -1 0 0
outer loop
vertex -15.999911729201429 34.999976907256915 4.000204598472075
vertex -15.999911729201429 44.500009496284655 7.9999558646007145
vertex -15.999911729201429 47.0001373703297 7.9999558646007145
endloop
endfacet
facet normal -1 0 0
outer loop
vertex -15.999911729201429 34.999976907256915 4.000204598472075
vertex -15.999911729201429 47.0001373703297 7.9999558646007145
vertex -15.999911729201429 47.0001373703297 0
endloop
endfacet
facet normal -1 0 0
outer loop
vertex -15.999911729201429 34.999976907256915 4.000204598472075
vertex -15.999911729201429 47.0001373703297 0
vertex -15.999911729201429 44.500009496284655 0
endloop
endfacet
facet normal -1 0 0
outer loop
vertex -15.999911729201429 34.999976907256915 4.000204598472075
vertex -15.999911729201429 44.500009496284655 0
vertex -15.999911729201429 25.499944318229172 0
endloop
endfacet
facet normal -1 0 0
outer loop
vertex -15.999911729201429 34.999976907256915 4.000204598472075
vertex -15.999911729201429 25.499944318229172 0
vertex -15.999911729201429 22.999816444184123 0
endloop
endfacet
facet normal -1 0 0
outer loop
vertex -15.999911729201429 34.999976907256915 4.000204598472075
vertex -15.999911729201429 22.999816444184123 0
vertex -15.999911729201429 22.999816444184123 7.9999558646007145
endloop
endfacet
facet normal -1 0 0
outer loop
vertex -15.999911729201429 34.999976907256915 4.000204598472075
vertex -15.999911729201429 22.999816444184123 7.9999558646007145
vertex -15.999911729201429 25.499944318229172 7.9999558646007145
endloop
endfacet
facet normal -0.9914739960013355 -0.13030470157727927 0
outer loop
vertex -15.999911729201429 22.999816444184123 7.9999558646007145
vertex -15.999911729201429 22.999816444184123 0
vertex -15.897911951928512 22.223711472223087 0
endloop
endfacet
facet normal -0.9914739960013355 -0.13030470157727927 0
outer loop
vertex -15.999911729201429 22.999816444184123 7.9999558646007145
vertex -15.897911951928512 22.223711472223087 0
vertex -15.897911951928512 22.223711472223087 7.9999558646007145
endloop
endfacet
facet normal -0.9237770513438424 -0.3829307501500449 0
outer loop
vertex -15.897911951928512 22.223711472223087 7.9999558646007145
vertex -15.897911951928512 22.223711472223087 0
vertex -15.59780594057442 21.499739719757095 0
endloop
endfacet
facet normal -0.9237770513438424 -0.3829307501500449 0
outer loop
vertex -15.897911951928512 22.223711472223087 7.9999558646007145
vertex -15.59780594057442 21.499739719757095 0
vertex -15.59780594057442 21.499739719757095 7.9999558646007145
endloop
endfacet
facet normal -0.7934198973335488 -0.6086746803631813 0
outer loop
vertex -15.59780594057442 21.499739719757095 7.9999558646007145
vertex -15.59780594057442 21.499739719757095 0
vertex -15.12135364762404 20.87867440925089 0
endloop
endfacet
facet normal -0.7934198973335488 -0.6086746803631813 0
outer loop
vertex -15.59780594057442 21.499739719757095 7.9999558646007145
vertex -15.12135364762404 20.87867440925089 0
vertex -15.12135364762404 20.87867440925089 7.9999558646007145
endloop
endfacet
facet normal -0.6083950849797655 -0.7936343116149048 0
outer loop
vertex -15.12135364762404 20.87867440925089 7.9999558646007145
vertex -15.12135364762404 20.87867440925089 0
vertex -14.4998350047744 20.402222116300514 0
endloop
endfacet
facet normal -0.6083950849797655 -0.7936343116149048 0
outer loop
vertex -15.12135364762404 20.87867440925089 7.9999558646007145
vertex -14.4998350047744 20.402222116300514 0
vertex -14.4998350047744 20.402222116300514 7.9999558646007145
endloop
endfacet
facet normal -0.3831354708858646 -0.9236921624378257 0
outer loop
vertex -14.4998350047744 20.402222116300514 7.9999558646007145
vertex -14.4998350047744 20.402222116300514 0
vertex -13.776316584651845 20.102116104946422 0
endloop
endfacet
facet normal -0.3831354708858646 -0.9236921624378257 0
outer loop
vertex -14.4998350047744 20.402222116300514 7.9999558646007145
vertex -13.776316584651845 20.102116104946422 0
vertex -13.776316584651845 20.102116104946422 7.9999558646007145
endloop
endfacet
facet normal -0.1308739357900113 -0.991399018019905 0
outer loop
vertex -13.776316584651845 20.102116104946422 7.9999558646007145
vertex -13.776316584651845 20.102116104946422 0
vertex -13.000211612690808 19.99966299533007 0
endloop
endfacet
facet normal -0.1308739357900113 -0.991399018019905 0
outer loop
vertex -13.776316584651845 20.102116104946422 7.9999558646007145
vertex -13.000211612690808 19.99966299533007 0
vertex -13.000211612690808 19.99966299533007 7.9999558646007145
endloop
endfacet
facet normal 0 1 0
outer loop
vertex 0 49.99983748684033 7.9999558646007145
vertex 0 49.99983748684033 0
vertex -13.000211612690808 49.99983748684033 0
endloop
endfacet
facet normal 0 1 0
outer loop
vertex 0 49.99983748684033 7.9999558646007145
vertex -13.000211612690808 49.99983748684033 0
vertex -13.000211612690808 49.99983748684033 7.9999558646007145
endloop
endfacet
facet normal 0 -1 0
outer loop
vertex -13.000211612690808 19.99966299533007 7.9999558646007145
vertex -13.000211612690808 19.99966299533007 0
vertex 0 19.99966299533007 0
endloop
endfacet
facet normal 0 -1 0
outer loop
vertex -13.000211612690808 19.99966299533007 7.9999558646007145
vertex 0 19.99966299533007 0
vertex 0 19.99966299533007 7.9999558646007145
endloop
endfacet
facet normal 1 0 0
outer loop
vertex -7.9999558646007145 25.499944318229172 7.9999558646007145
vertex -7.9999558646007145 25.499944318229172 0
vertex -7.9999558646007145 44.500009496284655 0
endloop
endfacet
facet normal 1 0 0
outer loop
vertex -7.9999558646007145 25.499944318229172 7.9999558646007145
vertex -7.9999558646007145 44.500009496284655 0
vertex -7.9999558646007145 44.500009496284655 7.9999558646007145
endloop
endfacet
facet normal 0 1 0
outer loop
vertex 9.000007014218733 25.499944318229172 7.9999558646007145
vertex 9.000007014218733 25.499944318229172 0
vertex -7.9999558646007145 25.499944318229172 0
endloop
endfacet
facet normal 0 1 0
outer loop
vertex 9.000007014218733 25.499944318229172 7.9999558646007145
vertex -7.9999558646007145 25.499944318229172 0
vertex -7.9999558646007145 25.499944318229172 7.9999558646007145
endloop
endfacet
facet normal -1 0 0
outer loop
vertex 9.000007014218733 44.500009496284655 7.9999558646007145
vertex 9.000007014218733 44.500009496284655 0
vertex 9.000007014218733 25.499944318229172 0
endloop
endfacet
facet normal -1 0 0
outer loop
vertex 9.000007014218733 44.500009496284655 7.9999558646007145
vertex 9.000007014218733 25.499944318229172 0
vertex 9.000007014218733 25.499944318229172 7.9999558646007145
endloop
endfacet
facet normal 0 -1 0
outer loop
vertex -7.9999558646007145 44.500009496284655 7.9999558646007145
vertex -7.9999558646007145 44.500009496284655 0
vertex 9.000007014218733 44.500009496284655 0
endloop
endfacet
facet normal 0 -1 0
outer loop
vertex -7.9999558646007145 44.500009496284655 7.9999558646007145
vertex 9.000007014218733 44.500009496284655 0
vertex 9.000007014218733 44.500009496284655 7.9999558646007145
endloop
endfacet
facet normal 0 0 0.9999999999999999
outer loop
vertex 11.00010931345477 66.48662815289114 7.9999558646007145
vertex 3.000153448854056 69.99995381451383 7.9999558646007145
vertex 2.223595144549584 69.89750070489748 7.9999558646007145
endloop
endfacet
facet normal 0 0 1
outer loop
vertex 11.00010931345477 66.48662815289114 7.9999558646007145
vertex 2.223595144549584 69.89750070489748 7.9999558646007145
vertex 1.500076724427028 69.59784802588682 7.9999558646007145
endloop
endfacet
facet normal 0 0 1
outer loop
vertex 11.00010931345477 66.48662815289114 7.9999558646007145
vertex 1.500076724427028 69.59784802588682 7.9999558646007145
vertex 0.878558081577389 69.12139573293643 7.9999558646007145
endloop
endfacet
facet normal 0 0 1
outer loop
vertex 11.00010931345477 66.48662815289114 7.9999558646007145
vertex 0.878558081577389 69.12139573293643 7.9999558646007145
vertex 0.40165245628357416 68.4998770900868 7.9999558646007145
endloop
endfacet
facet normal 0 0 1
outer loop
vertex 11.00010931345477 66.48662815289114 7.9999558646007145
vertex 0.40165245628357416 68.4998770900868 7.9999558646007145
vertex 0.10245310961635187 67.77635866996424 7.9999558646007145
endloop
endfacet
facet normal 0 0 1
outer loop
vertex 11.00010931345477 66.48662815289114 7.9999558646007145
vertex 0.10245310961635187 67.77635866996424 7.9999558646007145
vertex 0 66.99980036565977 7.9999558646007145
endloop
endfacet
facet normal 0 0 0.9999999999999999
outer loop
vertex 11.00010931345477 66.48662815289114 7.9999558646007145
vertex 0 66.99980036565977 7.9999558646007145
vertex 0 49.99983748684033 7.9999558646007145
endloop
endfacet
facet normal 0 0 1
outer loop
vertex 11.00010931345477 66.48662815289114 7.9999558646007145
vertex 0 49.99983748684033 7.9999558646007145
vertex 21.999765294566107 49.99983748684033 7.9999558646007145
endloop
endfacet
facet normal 0 0 1
outer loop
vertex 11.00010931345477 66.48662815289114 7.9999558646007145
vertex 21.999765294566107 49.99983748684033 7.9999558646007145
vertex 21.999765294566107 66.99980036565977 7.9999558646007145
endloop
endfacet
facet normal 0 0 1
outer loop
vertex 11.00010931345477 66.48662815289114 7.9999558646007145
vertex 21.999765294566107 66.99980036565977 7.9999558646007145
vertex 21.897765517293188 67.77635866996424 7.9999558646007145
endloop
endfacet
facet normal 0 0 1
outer loop
vertex 11.00010931345477 66.48662815289114 7.9999558646007145
vertex 21.897765517293188 67.77635866996424 7.9999558646007145
vertex 21.598112838282532 68.4998770900868 7.9999558646007145
endloop
endfacet
facet normal 0 0 0.9999999999999999
outer loop
vertex 11.00010931345477 66.48662815289114 7.9999558646007145
vertex 21.598112838282532 68.4998770900868 7.9999558646007145
vertex 21.12166054533215 69.12139573293643 7.9999558646007145
endloop
endfacet
facet normal 0 0 0.9999999999999999
outer loop
vertex 11.00010931345477 66.48662815289114 7.9999558646007145
vertex 21.12166054533215 69.12139573293643 7.9999558646007145
vertex 20.500141902482515 69.59784802588682 7.9999558646007145
endloop
endfacet
facet normal 0 0 1
outer loop
vertex 11.00010931345477 66.48662815289114 7.9999558646007145
vertex 20.500141902482515 69.59784802588682 7.9999558646007145
vertex 19.77662348235996 69.89750070489748 7.9999558646007145
endloop
endfacet
facet normal 0 0 0.9999999999999999
outer loop
vertex 11.00010931345477 66.48662815289114 7.9999558646007145
vertex 19.77662348235996 69.89750070489748 7.9999558646007145
vertex 19.000065178055486 69.99995381451383 7.9999558646007145
endloop
endfacet
facet normal 0 0 1
outer loop
vertex 11.00010931345477 66.48662815289114 7.9999558646007145
vertex 19.000065178055486 69.99995381451383 7.9999558646007145
vertex 3.000153448854056 69.99995381451383 7.9999558646007145
endloop
endfacet
facet normal 0 0 0.9999999999999999
outer loop
vertex -5.760947420374334 47.6842158765734 7.9999558646007145
vertex 0 49.99983748684033 7.9999558646007145
vertex -13.000211612690808 49.99983748684033 7.9999558646007145
endloop
endfacet
facet normal 0 0 1
outer loop
vertex -5.760947420374334 47.6842158765734 7.9999558646007145
vertex -13.000211612690808 49.99983748684033 7.9999558646007145
vertex -13.776316584651845 49.897837709567405 7.9999558646007145
endloop
endfacet
facet normal 0 0 1
outer loop
vertex -5.760947420374334 47.6842158765734 7.9999558646007145
vertex -13.776316584651845 49.897837709567405 7.9999558646007145
vertex -14.4998350047744 49.597731698213316 7.9999558646007145
endloop
endfacet
facet normal 0 0 1
outer loop
vertex -5.760947420374334 47.6842158765734 7.9999558646007145
vertex -14.4998350047744 49.597731698213316 7.9999558646007145
vertex -15.12135364762404 49.12127940526293 7.9999558646007145
endloop
endfacet
facet normal 0 0 0.9999999999999999
outer loop
vertex -5.760947420374334 47.6842158765734 7.9999558646007145
vertex -15.12135364762404 49.12127940526293 7.9999558646007145
vertex -15.59780594057442 48.50021409475673 7.9999558646007145
endloop
endfacet
facet normal 0 0 1
outer loop
vertex -5.760947420374334 47.6842158765734 7.9999558646007145
vertex -15.59780594057442 48.50021409475673 7.9999558646007145
vertex -15.897911951928512 47.77624234229074 7.9999558646007145
endloop
endfacet
facet normal 0 0 0.9999999999999999
outer loop
vertex -5.760947420374334 47.6842158765734 7.9999558646007145
vertex -15.897911951928512 47.77624234229074 7.9999558646007145
vertex -15.999911729201429 47.0001373703297 7.9999558646007145
endloop
endfacet
facet normal 0 0 1
outer loop
vertex -5.760947420374334 47.6842158765734 7.9999558646007145
vertex -15.999911729201429 47.0001373703297 7.9999558646007145
vertex -15.999911729201429 44.500009496284655 7.9999558646007145
endloop
endfacet
facet normal 0 0 1
outer loop
vertex -5.760947420374334 47.6842158765734 7.9999558646007145
vertex -15.999911729201429 44.500009496284655 7.9999558646007145
vertex -7.9999558646007145 44.500009496284655 7.9999558646007145
endloop
endfacet
facet normal 0 0 1
outer loop
vertex -5.760947420374334 47.6842158765734 7.9999558646007145
vertex -7.9999558646007145 44.500009496284655 7.9999558646007145
vertex 9.000007014218733 44.500009496284655 7.9999558646007145
endloop
endfacet
facet normal 0 0 1
outer loop
vertex -5.760947420374334 47.6842158765734 7.9999558646007145
vertex 9.000007014218733 44.500009496284655 7.9999558646007145
vertex 21.999765294566107 44.500009496284655 7.9999558646007145
endloop
endfacet
facet normal 0 0 1
outer loop
vertex -5.760947420374334 47.6842158765734 7.9999558646007145
vertex 21.999765294566107 44.500009496284655 7.9999558646007145
vertex 21.999765294566107 49.99983748684033 7.9999558646007145
endloop
endfacet
facet normal 0 0 1
outer loop
vertex -5.760947420374334 47.6842158765734 7.9999558646007145
vertex 21.999765294566107 49.99983748684033 7.9999558646007145
vertex 0 49.99983748684033 7.9999558646007145
endloop
endfacet
facet normal 0 0 0.9999999999999999
outer loop
vertex 9.000007014218733 44.500009496284655 7.9999558646007145
vertex 9.000007014218733 25.499944318229172 7.9999558646007145
vertex 21.999765294566107 25.499944318229172 7.9999558646007145
endloop
endfacet
facet normal 0 0 0.9999999999999999
outer loop
vertex 9.000007014218733 44.500009496284655 7.9999558646007145
vertex 21.999765294566107 25.499944318229172 7.9999558646007145
vertex 21.999765294566107 44.500009496284655 7.9999558646007145
endloop
endfacet
facet normal 0 0 1
outer loop
vertex -15.999911729201429 44.500009496284655 7.9999558646007145
vertex -15.999911729201429 25.499944318229172 7.9999558646007145
vertex -7.9999558646007145 25.499944318229172 7.9999558646007145
endloop
endfacet
facet normal 0 0 1
outer loop
vertex -15.999911729201429 44.500009496284655 7.9999558646007145
vertex -7.9999558646007145 25.499944318229172 7.9999558646007145
vertex -7.9999558646007145 44.500009496284655 7.9999558646007145
endloop
endfacet
facet normal 0 0 1
outer loop
vertex -5.760947420374334 22.31573793794043 7.9999558646007145
vertex 9.000007014218733 25.499944318229172 7.9999558646007145
vertex -7.9999558646007145 25.499944318229172 7.9999558646007145
endloop
endfacet
facet normal 0 0 1
outer loop
vertex -5.760947420374334 22.31573793794043 7.9999558646007145
vertex -7.9999558646007145 25.499944318229172 7.9999558646007145
vertex -15.999911729201429 25.499944318229172 7.9999558646007145
endloop
endfacet
facet normal 0 0 1
outer loop
vertex -5.760947420374334 22.31573793794043 7.9999558646007145
vertex -15.999911729201429 25.499944318229172 7.9999558646007145
vertex -15.999911729201429 22.999816444184123 7.9999558646007145
endloop
endfacet
facet normal 0 0 1
outer loop
vertex -5.760947420374334 22.31573793794043 7.9999558646007145
vertex -15.999911729201429 22.999816444184123 7.9999558646007145
vertex -15.897911951928512 22.223711472223087 7.9999558646007145
endloop
endfacet
facet normal 0 0 1
outer loop
vertex -5.760947420374334 22.31573793794043 7.9999558646007145
vertex -15.897911951928512 22.223711472223087 7.9999558646007145
vertex -15.59780594057442 21.499739719757095 7.9999558646007145
endloop
endfacet
facet normal 0 0 1
outer loop
vertex -5.760947420374334 22.31573793794043 7.9999558646007145
vertex -15.59780594057442 21.499739719757095 7.9999558646007145
vertex -15.12135364762404 20.87867440925089 7.9999558646007145
endloop
endfacet
facet normal 0 0 1
outer loop
vertex -5.760947420374334 22.31573793794043 7.9999558646007145
vertex -15.12135364762404 20.87867440925089 7.9999558646007145
vertex -14.4998350047744 20.402222116300514 7.9999558646007145
endloop
endfacet
facet normal 0 0 1
outer loop
vertex -5.760947420374334 22.31573793794043 7.9999558646007145
vertex -14.4998350047744 20.402222116300514 7.9999558646007145
vertex -13.776316584651845 20.102116104946422 7.9999558646007145
endloop
endfacet
facet normal 0 0 1
outer loop
vertex -5.760947420374334 22.31573793794043 7.9999558646007145
vertex -13.776316584651845 20.102116104946422 7.9999558646007145
vertex -13.000211612690808 19.99966299533007 7.9999558646007145
endloop
endfacet
facet normal 0 0 0.9999999999999999
outer loop
vertex -5.760947420374334 22.31573793794043 7.9999558646007145
vertex -13.000211612690808 19.99966299533007 7.9999558646007145
vertex 0 19.99966299533007 7.9999558646007145
endloop
endfacet
facet normal 0 0 1
outer loop
vertex -5.760947420374334 22.31573793794043 7.9999558646007145
vertex 0 19.99966299533007 7.9999558646007145
vertex 21.999765294566107 19.99966299533007 7.9999558646007145
endloop
endfacet
facet normal 0 0 1
outer loop
vertex -5.760947420374334 22.31573793794043 7.9999558646007145
vertex 21.999765294566107 19.99966299533007 7.9999558646007145
vertex 21.999765294566107 25.499944318229172 7.9999558646007145
endloop
endfacet
facet normal 0 0 1
outer loop
vertex -5.760947420374334 22.31573793794043 7.9999558646007145
vertex 21.999765294566107 25.499944318229172 7.9999558646007145
vertex 9.000007014218733 25.499944318229172 7.9999558646007145
endloop
endfacet
facet normal 0 0 1
outer loop
vertex 11.00010931345477 3.513325661622686 7.9999558646007145
vertex 0 19.99966299533007 7.9999558646007145
vertex 0 3.000153448854056 7.9999558646007145
endloop
endfacet
facet normal 0 0 1
outer loop
vertex 11.00010931345477 3.513325661622686 7.9999558646007145
vertex 0 3.000153448854056 7.9999558646007145
vertex 0.10245310961635187 2.223595144549584 7.9999558646007145
endloop
endfacet
facet normal 0 0 1
outer loop
vertex 11.00010931345477 3.513325661622686 7.9999558646007145
vertex 0.10245310961635187 2.223595144549584 7.9999558646007145
vertex 0.40165245628357416 1.500076724427028 7.9999558646007145
endloop
endfacet
facet normal 0 0 1
outer loop
vertex 11.00010931345477 3.513325661622686 7.9999558646007145
vertex 0.40165245628357416 1.500076724427028 7.9999558646007145
vertex 0.878558081577389 0.878558081577389 7.9999558646007145
endloop
endfacet
facet normal 0 0 0.9999999999999999
outer loop
vertex 11.00010931345477 3.513325661622686 7.9999558646007145
vertex 0.878558081577389 0.878558081577389 7.9999558646007145
vertex 1.500076724427028 0.40165245628357416 7.9999558646007145
endloop
endfacet
facet normal 0 0 1
outer loop
vertex 11.00010931345477 3.513325661622686 7.9999558646007145
vertex 1.500076724427028 0.40165245628357416 7.9999558646007145
vertex 2.223595144549584 0.10245310961635187 7.9999558646007145
endloop
endfacet
facet normal 0 0 1
outer loop
vertex 11.00010931345477 3.513325661622686 7.9999558646007145
vertex 2.223595144549584 0.10245310961635187 7.9999558646007145
vertex 3.000153448854056 0 7.9999558646007145
endloop
endfacet
facet normal 0 0 1
outer loop
vertex 11.00010931345477 3.513325661622686 7.9999558646007145
vertex 3.000153448854056 0 7.9999558646007145
vertex 19.000065178055486 0 7.9999558646007145
endloop
endfacet
facet normal 0 0 1
outer loop
vertex 11.00010931345477 3.513325661622686 7.9999558646007145
vertex 19.000065178055486 0 7.9999558646007145
vertex 19.77662348235996 0.10245310961635187 7.9999558646007145
endloop
endfacet
facet normal 0 0 1
outer loop
vertex 11.00010931345477 3.513325661622686 7.9999558646007145
vertex 19.77662348235996 0.10245310961635187 7.9999558646007145
vertex 20.500141902482515 0.40165245628357416 7.9999558646007145
endloop
endfacet
facet normal 0 0 0.9999999999999999
outer loop
vertex 11.00010931345477 3.513325661622686 7.9999558646007145
vertex 20.500141902482515 0.40165245628357416 7.9999558646007145
vertex 21.12166054533215 0.878558081577389 7.9999558646007145
endloop
endfacet
facet normal 0 0 1
outer loop
vertex 11.00010931345477 3.513325661622686 7.9999558646007145
vertex 21.12166054533215 0.878558081577389 7.9999558646007145
vertex 21.598112838282532 1.500076724427028 7.9999558646007145
endloop
endfacet
facet normal 0 0 1
outer loop
vertex 11.00010931345477 3.513325661622686 7.9999558646007145
vertex 21.598112838282532 1.500076724427028 7.9999558646007145
vertex 21.897765517293188 2.223595144549584 7.9999558646007145
endloop
endfacet
facet normal 0 0 1
outer loop
vertex 11.00010931345477 3.513325661622686 7.9999558646007145
vertex 21.897765517293188 2.223595144549584 7.9999558646007145
vertex 21.999765294566107 3.000153448854056 7.9999558646007145
endloop
endfacet
facet normal 0 0 1
outer loop
vertex 11.00010931345477 3.513325661622686 7.9999558646007145
vertex 21.999765294566107 3.000153448854056 7.9999558646007145
vertex 21.999765294566107 19.99966299533007 7.9999558646007145
endloop
endfacet
facet normal 0 0 0.9999999999999999
outer loop
vertex 11.00010931345477 3.513325661622686 7.9999558646007145
vertex 21.999765294566107 19.99966299533007 7.9999558646007145
vertex 0 19.99966299533007 7.9999558646007145
endloop
endfacet
facet normal 0 0 -0.9999999999999999
outer loop
vertex 11.00010931345477 66.48662815289114 0
vertex 19.000065178055486 69.99995381451383 0
vertex 19.77662348235996 69.89750070489748 0
endloop
endfacet
facet normal 0 0 -1
outer loop
vertex 11.00010931345477 66.48662815289114 0
vertex 19.77662348235996 69.89750070489748 0
vertex 20.500141902482515 69.59784802588682 0
endloop
endfacet
facet normal 0 0 -0.9999999999999999
outer loop
vertex 11.00010931345477 66.48662815289114 0
vertex 20.500141902482515 69.59784802588682 0
vertex 21.12166054533215 69.12139573293643 0
endloop
endfacet
facet normal 0 0 -0.9999999999999999
outer loop
vertex 11.00010931345477 66.48662815289114 0
vertex 21.12166054533215 69.12139573293643 0
vertex 21.598112838282532 68.4998770900868 0
endloop
endfacet
facet normal 0 0 -1
outer loop
vertex 11.00010931345477 66.48662815289114 0
vertex 21.598112838282532 68.4998770900868 0
vertex 21.897765517293188 67.77635866996424 0
endloop
endfacet
facet normal 0 0 -1
outer loop
vertex 11.00010931345477 66.48662815289114 0
vertex 21.897765517293188 67.77635866996424 0
vertex 21.999765294566107 66.99980036565977 0
endloop
endfacet
facet normal 0 0 -1
outer loop
vertex 11.00010931345477 66.48662815289114 0
vertex 21.999765294566107 66.99980036565977 0
vertex 21.999765294566107 49.99983748684033 0
endloop
endfacet
facet normal 0 0 -1
outer loop
vertex 11.00010931345477 66.48662815289114 0
vertex 21.999765294566107 49.99983748684033 0
vertex 0 49.99983748684033 0
endloop
endfacet
facet normal 0 0 -0.9999999999999999
outer loop
vertex 11.00010931345477 66.48662815289114 0
vertex 0 49.99983748684033 0
vertex 0 66.99980036565977 0
endloop
endfacet
facet normal 0 0 -1
outer loop
vertex 11.00010931345477 66.48662815289114 0
vertex 0 66.99980036565977 0
vertex 0.10245310961635187 67.77635866996424 0
endloop
endfacet
facet normal 0 0 -1
outer loop
vertex 11.00010931345477 66.48662815289114 0
vertex 0.10245310961635187 67.77635866996424 0
vertex 0.40165245628357416 68.4998770900868 0
endloop
endfacet
facet normal 0 0 -1
outer loop
vertex 11.00010931345477 66.48662815289114 0
vertex 0.40165245628357416 68.4998770900868 0
vertex 0.878558081577389 69.12139573293643 0
endloop
endfacet
facet normal 0 0 -1
outer loop
vertex 11.00010931345477 66.48662815289114 0
vertex 0.878558081577389 69.12139573293643 0
vertex 1.500076724427028 69.59784802588682 0
endloop
endfacet
facet normal 0 0 -1
outer loop
vertex 11.00010931345477 66.48662815289114 0
vertex 1.500076724427028 69.59784802588682 0
vertex 2.223595144549584 69.89750070489748 0
endloop
endfacet
facet normal 0 0 -0.9999999999999999
outer loop
vertex 11.00010931345477 66.48662815289114 0
vertex 2.223595144549584 69.89750070489748 0
vertex 3.000153448854056 69.99995381451383 0
endloop
endfacet
facet normal 0 0 -1
outer loop
vertex 11.00010931345477 66.48662815289114 0
vertex 3.000153448854056 69.99995381451383 0
vertex 19.000065178055486 69.99995381451383 0
endloop
endfacet
facet normal 0 0 -1
outer loop
vertex -5.760947420374334 47.6842158765734 0
vertex 0 49.99983748684033 0
vertex 21.999765294566107 49.99983748684033 0
endloop
endfacet
facet normal 0 0 -1
outer loop
vertex -5.760947420374334 47.6842158765734 0
vertex 21.999765294566107 49.99983748684033 0
vertex 21.999765294566107 44.500009496284655 0
endloop
endfacet
facet normal 0 0 -1
outer loop
vertex -5.760947420374334 47.6842158765734 0
vertex 21.999765294566107 44.500009496284655 0
vertex 9.000007014218733 44.500009496284655 0
endloop
endfacet
facet normal 0 0 -1
outer loop
vertex -5.760947420374334 47.6842158765734 0
vertex 9.000007014218733 44.500009496284655 0
vertex -7.9999558646007145 44.500009496284655 0
endloop
endfacet
facet normal 0 0 -1
outer loop
vertex -5.760947420374334 47.6842158765734 0
vertex -7.9999558646007145 44.500009496284655 0
vertex -15.999911729201429 44.500009496284655 0
endloop
endfacet
facet normal 0 0 -1
outer loop
vertex -5.760947420374334 47.6842158765734 0
vertex -15.999911729201429 44.500009496284655 0
vertex -15.999911729201429 47.0001373703297 0
endloop
endfacet
facet normal 0 0 -0.9999999999999999
outer loop
vertex -5.760947420374334 47.6842158765734 0
vertex -15.999911729201429 47.0001373703297 0
vertex -15.897911951928512 47.77624234229074 0
endloop
endfacet
facet normal 0 0 -1
outer loop
vertex -5.760947420374334 47.6842158765734 0
vertex -15.897911951928512 47.77624234229074 0
vertex -15.59780594057442 48.50021409475673 0
endloop
endfacet
facet normal 0 0 -0.9999999999999999
outer loop
vertex -5.760947420374334 47.6842158765734 0
vertex -15.59780594057442 48.50021409475673 0
vertex -15.12135364762404 49.12127940526293 0
endloop
endfacet
facet normal 0 0 -1
outer loop
vertex -5.760947420374334 47.6842158765734 0
vertex -15.12135364762404 49.12127940526293 0
vertex -14.4998350047744 49.597731698213316 0
endloop
endfacet
facet normal 0 0 -1
outer loop
vertex -5.760947420374334 47.6842158765734 0
vertex -14.4998350047744 49.597731698213316 0
vertex -13.776316584651845 49.897837709567405 0
endloop
endfacet
facet normal 0 0 -1
outer loop
vertex -5.760947420374334 47.6842158765734 0
vertex -13.776316584651845 49.897837709567405 0
vertex -13.000211612690808 49.99983748684033 0
endloop
endfacet
facet normal 0 0 -0.9999999999999999
outer loop
vertex -5.760947420374334 47.6842158765734 0
vertex -13.000211612690808 49.99983748684033 0
vertex 0 49.99983748684033 0
endloop
endfacet
facet normal 0 0 -1
outer loop
vertex 41.99988162223961 43.999983921475646 0
vertex 41.99988162223961 25.99996989303818 0
vertex 22.00021862690954 25.99996989303818 0
endloop
endfacet
facet normal 0 0 -1
outer loop
vertex 41.99988162223961 43.999983921475646 0
vertex 22.00021862690954 25.99996989303818 0
vertex 22.00021862690954 43.999983921475646 0
endloop
endfacet
facet normal 0 0 -1
outer loop
vertex -7.9999558646007145 44.500009496284655 0
vertex -7.9999558646007145 25.499944318229172 0
vertex -15.999911729201429 25.499944318229172 0
endloop
endfacet
facet normal 0 0 -1
outer loop
vertex -7.9999558646007145 44.500009496284655 0
vertex -15.999911729201429 25.499944318229172 0
vertex -15.999911729201429 44.500009496284655 0
endloop
endfacet
facet normal 0 0 -0.9999999999999999
outer loop
vertex 21.999765294566107 44.500009496284655 0
vertex 21.999765294566107 25.499944318229172 0
vertex 9.000007014218733 25.499944318229172 0
endloop
endfacet
facet normal 0 0 -0.9999999999999999
outer loop
vertex 21.999765294566107 44.500009496284655 0
vertex 9.000007014218733 25.499944318229172 0
vertex 9.000007014218733 44.500009496284655 0
endloop
endfacet
facet normal 0 0 -1
outer loop
vertex -5.760947420374334 22.31573793794043 0
vertex -7.9999558646007145 25.499944318229172 0
vertex 9.000007014218733 25.499944318229172 0
endloop
endfacet
facet normal 0 0 -1
outer loop
vertex -5.760947420374334 22.31573793794043 0
vertex 9.000007014218733 25.499944318229172 0
vertex 21.999765294566107 25.499944318229172 0
endloop
endfacet
facet normal 0 0 -1
outer loop
vertex -5.760947420374334 22.31573793794043 0
vertex 21.999765294566107 25.499944318229172 0
vertex 21.999765294566107 19.99966299533007 0
endloop
endfacet
facet normal 0 0 -1
outer loop
vertex -5.760947420374334 22.31573793794043 0
vertex 21.999765294566107 19.99966299533007 0
vertex 0 19.99966299533007 0
endloop
endfacet
facet normal 0 0 -0.9999999999999999
outer loop
vertex -5.760947420374334 22.31573793794043 0
vertex 0 19.99966299533007 0
vertex -13.000211612690808 19.99966299533007 0
endloop
endfacet
facet normal 0 0 -1
outer loop
vertex -5.760947420374334 22.31573793794043 0
vertex -13.000211612690808 19.99966299533007 0
vertex -13.776316584651845 20.102116104946422 0
endloop
endfacet
facet normal 0 0 -1
outer loop
vertex -5.760947420374334 22.31573793794043 0
vertex -13.776316584651845 20.102116104946422 0
vertex -14.4998350047744 20.402222116300514 0
endloop
endfacet
facet normal 0 0 -1
outer loop
vertex -5.760947420374334 22.31573793794043 0
vertex -14.4998350047744 20.402222116300514 0
vertex -15.12135364762404 20.87867440925089 0
endloop
endfacet
facet normal 0 0 -1
outer loop
vertex -5.760947420374334 22.31573793794043 0
vertex -15.12135364762404 20.87867440925089 0
vertex -15.59780594057442 21.499739719757095 0
endloop
endfacet
facet normal 0 0 -1
outer loop
vertex -5.760947420374334 22.31573793794043 0
vertex -15.59780594057442 21.499739719757095 0
vertex -15.897911951928512 22.223711472223087 0
endloop
endfacet
facet normal 0 0 -1
outer loop
vertex -5.760947420374334 22.31573793794043 0
vertex -15.897911951928512 22.223711472223087 0
vertex -15.999911729201429 22.999816444184123 0
endloop
endfacet
facet normal 0 0 -1
outer loop
vertex -5.760947420374334 22.31573793794043 0
vertex -15.999911729201429 22.999816444184123 0
vertex -15.999911729201429 25.499944318229172 0
endloop
endfacet
facet normal 0 0 -1
outer loop
vertex -5.760947420374334 22.31573793794043 0
vertex -15.999911729201429 25.499944318229172 0
vertex -7.9999558646007145 25.499944318229172 0
endloop
endfacet
facet normal 0 0 -1
outer loop
vertex 11.00010931345477 3.513325661622686 0
vertex 21.999765294566107 19.99966299533007 0
vertex 21.999765294566107 3.000153448854056 0
endloop
endfacet
facet normal 0 0 -1
outer loop
vertex 11.00010931345477 3.513325661622686 0
vertex 21.999765294566107 3.000153448854056 0
vertex 21.897765517293188 2.223595144549584 0
endloop
endfacet
facet normal 0 0 -1
outer loop
vertex 11.00010931345477 3.513325661622686 0
vertex 21.897765517293188 2.223595144549584 0
vertex 21.598112838282532 1.500076724427028 0
endloop
endfacet
facet normal 0 0 -1
outer loop
vertex 11.00010931345477 3.513325661622686 0
vertex 21.598112838282532 1.500076724427028 0
vertex 21.12166054533215 0.878558081577389 0
endloop
endfacet
facet normal 0 0 -0.9999999999999999
outer loop
vertex 11.00010931345477 3.513325661622686 0
vertex 21.12166054533215 0.878558081577389 0
vertex 20.500141902482515 0.40165245628357416 0
endloop
endfacet
facet normal 0 0 -1
outer loop
vertex 11.00010931345477 3.513325661622686 0
vertex 20.500141902482515 0.40165245628357416 0
vertex 19.77662348235996 0.10245310961635187 0
endloop
endfacet
facet normal 0 0 -1
outer loop
vertex 11.00010931345477 3.513325661622686 0
vertex 19.77662348235996 0.10245310961635187 0
vertex 19.000065178055486 0 0
endloop
endfacet
facet normal 0 0 -1
outer loop
vertex 11.00010931345477 3.513325661622686 0
vertex 19.000065178055486 0 0
vertex 3.000153448854056 0 0
endloop
endfacet
facet normal 0 0 -1
outer loop
vertex 11.00010931345477 3.513325661622686 0
vertex 3.000153448854056 0 0
vertex 2.223595144549584 0.10245310961635187 0
endloop
endfacet
facet normal 0 0 -1
outer loop
vertex 11.00010931345477 3.513325661622686 0
vertex 2.223595144549584 0.10245310961635187 0
vertex 1.500076724427028 0.40165245628357416 0
endloop
endfacet
facet normal 0 0 -0.9999999999999999
outer loop
vertex 11.00010931345477 3.513325661622686 0
vertex 1.500076724427028 0.40165245628357416 0
vertex 0.878558081577389 0.878558081577389 0
endloop
endfacet
facet normal 0 0 -1
outer loop
vertex 11.00010931345477 3.513325661622686 0
vertex 0.878558081577389 0.878558081577389 0
vertex 0.40165245628357416 1.500076724427028 0
endloop
endfacet
facet normal 0 0 -1
outer loop
vertex 11.00010931345477 3.513325661622686 0
vertex 0.40165245628357416 1.500076724427028 0
vertex 0.10245310961635187 2.223595144549584 0
endloop
endfacet
facet normal 0 0 -1
outer loop
vertex 11.00010931345477 3.513325661622686 0
vertex 0.10245310961635187 2.223595144549584 0
vertex 0 3.000153448854056 0
endloop
endfacet
facet normal 0 0 -1
outer loop
vertex 11.00010931345477 3.513325661622686 0
vertex 0 3.000153448854056 0
vertex 0 19.99966299533007 0
endloop
endfacet
facet normal 0 0 -0.9999999999999999
outer loop
vertex 11.00010931345477 3.513325661622686 0
vertex 0 19.99966299533007 0
vertex 21.999765294566107 19.99966299533007 0
endloop
endfacet
facet normal 0 -1 0
outer loop
vertex 31.999823458402858 25.99996989303818 2.0001022992360373
vertex 41.99988162223961 25.99996989303818 2.0001022992360373
vertex 31.999823458402858 25.99996989303818 6.799985151527779
endloop
endfacet
facet normal 0 -1 0
outer loop
vertex 31.999823458402858 25.99996989303818 1.1999707130729353
vertex 31.999823458402858 25.99996989303818 2.0001022992360373
vertex 22.00021862690954 25.99996989303818 2.0001022992360373
endloop
endfacet
facet normal 0 -1 0
outer loop
vertex 31.999823458402858 25.99996989303818 1.1999707130729353
vertex 22.00021862690954 25.99996989303818 2.0001022992360373
vertex 22.00021862690954 25.99996989303818 0
endloop
endfacet
facet normal 0 -0.9999999999999999 0
outer loop
vertex 31.999823458402858 25.99996989303818 1.1999707130729353
vertex 22.00021862690954 25.99996989303818 0
vertex 41.99988162223961 25.99996989303818 0
endloop
endfacet
facet normal 0 -1 0
outer loop
vertex 31.999823458402858 25.99996989303818 1.1999707130729353
vertex 41.99988162223961 25.99996989303818 0
vertex 41.99988162223961 25.99996989303818 2.0001022992360373
endloop
endfacet
facet normal 0 -1 0
outer loop
vertex 31.999823458402858 25.99996989303818 1.1999707130729353
vertex 41.99988162223961 25.99996989303818 2.0001022992360373
vertex 31.999823458402858 25.99996989303818 2.0001022992360373
endloop
endfacet
facet normal 0 1 0
outer loop
vertex 41.99988162223961 43.999983921475646 2.0001022992360373
vertex 31.999823458402858 43.999983921475646 2.0001022992360373
vertex 31.999823458402858 43.999983921475646 6.799985151527779
endloop
endfacet
facet normal 0 1 0
outer loop
vertex 31.999823458402858 43.999983921475646 1.1999707130729353
vertex 31.999823458402858 43.999983921475646 2.0001022992360373
vertex 41.99988162223961 43.999983921475646 2.0001022992360373
endloop
endfacet
facet normal 0 1 0
outer loop
vertex 31.999823458402858 43.999983921475646 1.1999707130729353
vertex 41.99988162223961 43.999983921475646 2.0001022992360373
vertex 41.99988162223961 43.999983921475646 0
endloop
endfacet
facet normal 0 0.9999999999999999 0
outer loop
vertex 31.999823458402858 43.999983921475646 1.1999707130729353
vertex 41.99988162223961 43.999983921475646 0
vertex 22.00021862690954 43.999983921475646 0
endloop
endfacet
facet normal 0 1 0
outer loop
vertex 31.999823458402858 43.999983921475646 1.1999707130729353
vertex 22.00021862690954 43.999983921475646 0
vertex 22.00021862690954 43.999983921475646 2.0001022992360373
endloop
endfacet
facet normal 0 1 0
outer loop
vertex 31.999823458402858 43.999983921475646 1.1999707130729353
vertex 22.00021862690954 43.999983921475646 2.0001022992360373
vertex 31.999823458402858 43.999983921475646 2.0001022992360373
endloop
endfacet
facet normal -1 0 0
outer loop
vertex 31.999823458402858 25.99996989303818 2.0001022992360373
vertex 31.999823458402858 25.99996989303818 6.799985151527779
vertex 31.999823458402858 43.999983921475646 6.799985151527779
endloop
endfacet
facet normal -1 0 0
outer loop
vertex 31.999823458402858 25.99996989303818 2.0001022992360373
vertex 31.999823458402858 43.999983921475646 6.799985151527779
vertex 31.999823458402858 43.999983921475646 2.0001022992360373
endloop
endfacet
facet normal 0.43272043843906205 0 0.9015281593811177
outer loop
vertex 41.99988162223961 25.99996989303818 2.0001022992360373
vertex 41.99988162223961 43.999983921475646 2.0001022992360373
vertex 31.999823458402858 43.999983921475646 6.799985151527779
endloop
endfacet
facet normal 0.43272043843906205 0 0.9015281593811177
outer loop
vertex 41.99988162223961 25.99996989303818 2.0001022992360373
vertex 31.999823458402858 43.999983921475646 6.799985151527779
vertex 31.999823458402858 25.99996989303818 6.799985151527779
endloop
endfacet
facet normal -1 0 0
outer loop
vertex 22.00021862690954 43.999983921475646 2.0001022992360373
vertex 22.00021862690954 43.999983921475646 0
vertex 22.00021862690954 25.99996989303818 0
endloop
endfacet
facet normal -1 0 0
outer loop
vertex 22.00021862690954 43.999983921475646 2.0001022992360373
vertex 22.00021862690954 25.99996989303818 0
vertex 22.00021862690954 25.99996989303818 2.0001022992360373
endloop
endfacet
facet normal 1 0 0
outer loop
vertex 41.99988162223961 25.99996989303818 2.0001022992360373
vertex 41.99988162223961 25.99996989303818 0
vertex 41.99988162223961 43.999983921475646 0
endloop
endfacet
facet normal 1 0 0
outer loop
vertex 41.99988162223961 25.99996989303818 2.0001022992360373
vertex 41.99988162223961 43.999983921475646 0
vertex 41.99988162223961 43.999983921475646 2.0001022992360373
endloop
endfacet
facet normal 0 0 0.9999999999999999
outer loop
vertex 22.00021862690954 43.999983921475646 2.0001022992360373
vertex 22.00021862690954 25.99996989303818 2.0001022992360373
vertex 31.999823458402858 25.99996989303818 2.0001022992360373
endloop
endfacet
facet normal 0 0 0.9999999999999999
outer loop
vertex 22.00021862690954 43.999983921475646 2.0001022992360373
vertex 31.999823458402858 25.99996989303818 2.0001022992360373
vertex 31.999823458402858 43.999983921475646 2.0001022992360373
endloop
endfacet
endsolid JSCAD
