solid JSCAD
facet normal 1 0 0
outer loop
vertex 21.999861061415352 35.00006214253085 3.7500066581283056
vertex 21.999861061415352 50.00008877504408 7.500013316256611
vertex 21.999861061415352 44.49990101018519 7.500013316256611
endloop
endfacet
facet normal 1 0 0
outer loop
vertex 21.999861061415352 35.00006214253085 3.7500066581283056
vertex 21.999861061415352 44.49990101018519 7.500013316256611
vertex 21.999861061415352 25.50022327487652 7.500013316256611
endloop
endfacet
facet normal 1 0 0
outer loop
vertex 21.999861061415352 35.00006214253085 3.7500066581283056
vertex 21.999861061415352 25.50022327487652 7.500013316256611
vertex 21.999861061415352 19.99959051100753 7.500013316256611
endloop
endfacet
facet normal 1 0 0
outer loop
vertex 21.999861061415352 35.00006214253085 3.7500066581283056
vertex 21.999861061415352 19.99959051100753 7.500013316256611
vertex 21.999861061415352 3.0001833261066855 7.500013316256611
endloop
endfacet
facet normal 0.9999999999999999 0 0
outer loop
vertex 21.999861061415352 35.00006214253085 3.7500066581283056
vertex 21.999861061415352 3.0001833261066855 7.500013316256611
vertex 21.999861061415352 3.0001833261066855 0
endloop
endfacet
facet normal 1 0 0
outer loop
vertex 21.999861061415352 35.00006214253085 3.7500066581283056
vertex 21.999861061415352 3.0001833261066855 0
vertex 21.999861061415352 19.99959051100753 0
endloop
endfacet
facet normal 1 0 0
outer loop
vertex 21.999861061415352 35.00006214253085 3.7500066581283056
vertex 21.999861061415352 19.99959051100753 0
vertex 21.999861061415352 25.50022327487652 0
endloop
endfacet
facet normal 1 0 0
outer loop
vertex 21.999861061415352 35.00006214253085 3.7500066581283056
vertex 21.999861061415352 25.50022327487652 0
vertex 21.999861061415352 44.49990101018519 0
endloop
endfacet
facet normal 1 0 0
outer loop
vertex 21.999861061415352 35.00006214253085 3.7500066581283056
vertex 21.999861061415352 44.49990101018519 0
vertex 21.999861061415352 50.00008877504408 0
endloop
endfacet
facet normal 0.9999999999999999 0 0
outer loop
vertex 21.999861061415352 35.00006214253085 3.7500066581283056
vertex 21.999861061415352 50.00008877504408 0
vertex 21.999861061415352 66.99994095895502 0
endloop
endfacet
facet normal 0.9999999999999999 0 0
outer loop
vertex 21.999861061415352 35.00006214253085 3.7500066581283056
vertex 21.999861061415352 66.99994095895502 0
vertex 21.999861061415352 66.99994095895502 7.500013316256611
endloop
endfacet
facet normal 0.9999999999999999 0 0
outer loop
vertex 21.999861061415352 35.00006214253085 3.7500066581283056
vertex 21.999861061415352 66.99994095895502 7.500013316256611
vertex 21.999861061415352 50.00008877504408 7.500013316256611
endloop
endfacet
facet normal 0.9914252639528052 0.13067496315710275 0
outer loop
vertex 21.999861061415352 66.99994095895502 7.500013316256611
vertex 21.999861061415352 66.99994095895502 0
vertex 21.897511289091927 67.77646423158275 0
endloop
endfacet
facet normal 0.9914252639528052 0.13067496315710275 0
outer loop
vertex 21.999861061415352 66.99994095895502 7.500013316256611
vertex 21.897511289091927 67.77646423158275 0
vertex 21.897511289091927 67.77646423158275 7.500013316256611
endloop
endfacet
facet normal 0.9239822141331882 0.3824354428730835 0
outer loop
vertex 21.897511289091927 67.77646423158275 7.500013316256611
vertex 21.897511289091927 67.77646423158275 0
vertex 21.59802695529338 68.50003262200836 0
endloop
endfacet
facet normal 0.9239822141331882 0.3824354428730835 0
outer loop
vertex 21.897511289091927 67.77646423158275 7.500013316256611
vertex 21.59802695529338 68.50003262200836 0
vertex 21.59802695529338 68.50003262200836 7.500013316256611
endloop
endfacet
facet normal 0.7934050716090801 0.6086940055109712 0
outer loop
vertex 21.59802695529338 68.50003262200836 7.500013316256611
vertex 21.59802695529338 68.50003262200836 0
vertex 21.1214330154743 69.12125124011055 0
endloop
endfacet
facet normal 0.7934050716090801 0.6086940055109712 0
outer loop
vertex 21.59802695529338 68.50003262200836 7.500013316256611
vertex 21.1214330154743 69.12125124011055 0
vertex 21.1214330154743 69.12125124011055 7.500013316256611
endloop
endfacet
facet normal 0.6084196173698764 0.7936155046365295 0
outer loop
vertex 21.1214330154743 69.12125124011055 7.500013316256611
vertex 21.1214330154743 69.12125124011055 0
vertex 20.49976939836201 69.59784517992964 0
endloop
endfacet
facet normal 0.6084196173698764 0.7936155046365295 0
outer loop
vertex 21.1214330154743 69.12125124011055 7.500013316256611
vertex 20.49976939836201 69.59784517992964 0
vertex 20.49976939836201 69.59784517992964 7.500013316256611
endloop
endfacet
facet normal 0.3831214924864926 0.9236979603717453 0
outer loop
vertex 20.49976939836201 69.59784517992964 7.500013316256611
vertex 20.49976939836201 69.59784517992964 0
vertex 19.7766460069465 69.89777451273828 0
endloop
endfacet
facet normal 0.3831214924864926 0.9236979603717453 0
outer loop
vertex 20.49976939836201 69.59784517992964 7.500013316256611
vertex 19.7766460069465 69.89777451273828 0
vertex 19.7766460069465 69.89777451273828 7.500013316256611
endloop
endfacet
facet normal 0.13011645076719952 0.9914987187282428 0
outer loop
vertex 19.7766460069465 69.89777451273828 7.500013316256611
vertex 19.7766460069465 69.89777451273828 0
vertex 19.00012273431877 69.9996792860516 0
endloop
endfacet
facet normal 0.13011645076719952 0.9914987187282428 0
outer loop
vertex 19.7766460069465 69.89777451273828 7.500013316256611
vertex 19.00012273431877 69.9996792860516 0
vertex 19.00012273431877 69.9996792860516 7.500013316256611
endloop
endfacet
facet normal 0 0.9999999999999999 0
outer loop
vertex 19.00012273431877 69.9996792860516 7.500013316256611
vertex 19.00012273431877 69.9996792860516 0
vertex 3.0001833261066855 69.9996792860516 0
endloop
endfacet
facet normal 0 0.9999999999999999 0
outer loop
vertex 19.00012273431877 69.9996792860516 7.500013316256611
vertex 3.0001833261066855 69.9996792860516 0
vertex 3.0001833261066855 69.9996792860516 7.500013316256611
endloop
endfacet
facet normal -0.13011645076719944 0.9914987187282428 0
outer loop
vertex 3.0001833261066855 69.9996792860516 7.500013316256611
vertex 3.0001833261066855 69.9996792860516 0
vertex 2.223660053478954 69.89777451273828 0
endloop
endfacet
facet normal -0.13011645076719944 0.9914987187282428 0
outer loop
vertex 3.0001833261066855 69.9996792860516 7.500013316256611
vertex 2.223660053478954 69.89777451273828 0
vertex 2.223660053478954 69.89777451273828 7.500013316256611
endloop
endfacet
facet normal -0.3829204282895601 0.9237813299685916 0
outer loop
vertex 2.223660053478954 69.89777451273828 7.500013316256611
vertex 2.223660053478954 69.89777451273828 0
vertex 1.5000916630533427 69.59784517992964 0
endloop
endfacet
facet normal -0.3829204282895601 0.9237813299685916 0
outer loop
vertex 2.223660053478954 69.89777451273828 7.500013316256611
vertex 1.5000916630533427 69.59784517992964 0
vertex 1.5000916630533427 69.59784517992964 7.500013316256611
endloop
endfacet
facet normal -0.6084196173698782 0.793615504636528 0
outer loop
vertex 1.5000916630533427 69.59784517992964 7.500013316256611
vertex 1.5000916630533427 69.59784517992964 0
vertex 0.8784280459410556 69.12125124011055 0
endloop
endfacet
facet normal -0.6084196173698782 0.793615504636528 0
outer loop
vertex 1.5000916630533427 69.59784517992964 7.500013316256611
vertex 0.8784280459410556 69.12125124011055 0
vertex 0.8784280459410556 69.12125124011055 7.500013316256611
endloop
endfacet
facet normal -0.7934050716090796 0.608694005510972 0
outer loop
vertex 0.8784280459410556 69.12125124011055 7.500013316256611
vertex 0.8784280459410556 69.12125124011055 0
vertex 0.40183410612197223 68.50003262200836 0
endloop
endfacet
facet normal -0.7934050716090796 0.608694005510972 0
outer loop
vertex 0.8784280459410556 69.12125124011055 7.500013316256611
vertex 0.40183410612197223 68.50003262200836 0
vertex 0.40183410612197223 68.50003262200836 7.500013316256611
endloop
endfacet
facet normal -0.9239822141331878 0.3824354428730841 0
outer loop
vertex 0.40183410612197223 68.50003262200836 7.500013316256611
vertex 0.40183410612197223 68.50003262200836 0
vertex 0.10234977232342593 67.77646423158275 0
endloop
endfacet
facet normal -0.9239822141331878 0.3824354428730841 0
outer loop
vertex 0.40183410612197223 68.50003262200836 7.500013316256611
vertex 0.10234977232342593 67.77646423158275 0
vertex 0.10234977232342593 67.77646423158275 7.500013316256611
endloop
endfacet
facet normal -0.9914252639528052 0.13067496315710392 0
outer loop
vertex 0.10234977232342593 67.77646423158275 7.500013316256611
vertex 0.10234977232342593 67.77646423158275 0
vertex 0 66.99994095895502 0
endloop
endfacet
facet normal -0.9914252639528052 0.13067496315710392 0
outer loop
vertex 0.10234977232342593 67.77646423158275 7.500013316256611
vertex 0 66.99994095895502 0
vertex 0 66.99994095895502 7.500013316256611
endloop
endfacet
facet normal -0.9914252639528054 -0.13067496315710325 0
outer loop
vertex 0 3.0001833261066855 7.500013316256611
vertex 0 3.0001833261066855 0
vertex 0.10234977232342593 2.223660053478954 0
endloop
endfacet
facet normal -0.9914252639528054 -0.13067496315710325 0
outer loop
vertex 0 3.0001833261066855 7.500013316256611
vertex 0.10234977232342593 2.223660053478954 0
vertex 0.10234977232342593 2.223660053478954 7.500013316256611
endloop
endfacet
facet normal -0.9239822141331875 -0.38243544287308445 0
outer loop
vertex 0.10234977232342593 2.223660053478954 7.500013316256611
vertex 0.10234977232342593 2.223660053478954 0
vertex 0.40183410612197223 1.5000916630533427 0
endloop
endfacet
facet normal -0.9239822141331875 -0.38243544287308445 0
outer loop
vertex 0.10234977232342593 2.223660053478954 7.500013316256611
vertex 0.40183410612197223 1.5000916630533427 0
vertex 0.40183410612197223 1.5000916630533427 7.500013316256611
endloop
endfacet
facet normal -0.7936155046365274 -0.6084196173698789 0
outer loop
vertex 0.40183410612197223 1.5000916630533427 7.500013316256611
vertex 0.40183410612197223 1.5000916630533427 0
vertex 0.8784280459410556 0.8784280459410556 0
endloop
endfacet
facet normal -0.7936155046365274 -0.6084196173698789 0
outer loop
vertex 0.40183410612197223 1.5000916630533427 7.500013316256611
vertex 0.8784280459410556 0.8784280459410556 0
vertex 0.8784280459410556 0.8784280459410556 7.500013316256611
endloop
endfacet
facet normal -0.6084196173698789 -0.7936155046365274 0
outer loop
vertex 0.8784280459410556 0.8784280459410556 7.500013316256611
vertex 0.8784280459410556 0.8784280459410556 0
vertex 1.5000916630533427 0.40183410612197223 0
endloop
endfacet
facet normal -0.6084196173698789 -0.7936155046365274 0
outer loop
vertex 0.8784280459410556 0.8784280459410556 7.500013316256611
vertex 1.5000916630533427 0.40183410612197223 0
vertex 1.5000916630533427 0.40183410612197223 7.500013316256611
endloop
endfacet
facet normal -0.38243544287308445 -0.9239822141331875 0
outer loop
vertex 1.5000916630533427 0.40183410612197223 7.500013316256611
vertex 1.5000916630533427 0.40183410612197223 0
vertex 2.223660053478954 0.10234977232342593 0
endloop
endfacet
facet normal -0.38243544287308445 -0.9239822141331875 0
outer loop
vertex 1.5000916630533427 0.40183410612197223 7.500013316256611
vertex 2.223660053478954 0.10234977232342593 0
vertex 2.223660053478954 0.10234977232342593 7.500013316256611
endloop
endfacet
facet normal -0.13067496315710325 -0.9914252639528054 0
outer loop
vertex 2.223660053478954 0.10234977232342593 7.500013316256611
vertex 2.223660053478954 0.10234977232342593 0
vertex 3.0001833261066855 0 0
endloop
endfacet
facet normal -0.13067496315710325 -0.9914252639528054 0
outer loop
vertex 2.223660053478954 0.10234977232342593 7.500013316256611
vertex 3.0001833261066855 0 0
vertex 3.0001833261066855 0 7.500013316256611
endloop
endfacet
facet normal 0 -0.9999999999999999 0
outer loop
vertex 3.0001833261066855 0 7.500013316256611
vertex 3.0001833261066855 0 0
vertex 19.00012273431877 0 0
endloop
endfacet
facet normal 0 -0.9999999999999999 0
outer loop
vertex 3.0001833261066855 0 7.500013316256611
vertex 19.00012273431877 0 0
vertex 19.00012273431877 0 7.500013316256611
endloop
endfacet
facet normal 0.13067496315710334 -0.9914252639528053 0
outer loop
vertex 19.00012273431877 0 7.500013316256611
vertex 19.00012273431877 0 0
vertex 19.7766460069465 0.10234977232342593 0
endloop
endfacet
facet normal 0.13067496315710334 -0.9914252639528053 0
outer loop
vertex 19.00012273431877 0 7.500013316256611
vertex 19.7766460069465 0.10234977232342593 0
vertex 19.7766460069465 0.10234977232342593 7.500013316256611
endloop
endfacet
facet normal 0.3826363398272885 -0.9238990374730217 0
outer loop
vertex 19.7766460069465 0.10234977232342593 7.500013316256611
vertex 19.7766460069465 0.10234977232342593 0
vertex 20.49976939836201 0.40183410612197223 0
endloop
endfacet
facet normal 0.3826363398272885 -0.9238990374730217 0
outer loop
vertex 19.7766460069465 0.10234977232342593 7.500013316256611
vertex 20.49976939836201 0.40183410612197223 0
vertex 20.49976939836201 0.40183410612197223 7.500013316256611
endloop
endfacet
facet normal 0.6084196173698772 -0.7936155046365289 0
outer loop
vertex 20.49976939836201 0.40183410612197223 7.500013316256611
vertex 20.49976939836201 0.40183410612197223 0
vertex 21.1214330154743 0.8784280459410556 0
endloop
endfacet
facet normal 0.6084196173698772 -0.7936155046365289 0
outer loop
vertex 20.49976939836201 0.40183410612197223 7.500013316256611
vertex 21.1214330154743 0.8784280459410556 0
vertex 21.1214330154743 0.8784280459410556 7.500013316256611
endloop
endfacet
facet normal 0.793615504636528 -0.6084196173698782 0
outer loop
vertex 21.1214330154743 0.8784280459410556 7.500013316256611
vertex 21.1214330154743 0.8784280459410556 0
vertex 21.59802695529338 1.5000916630533427 0
endloop
endfacet
facet normal 0.793615504636528 -0.6084196173698782 0
outer loop
vertex 21.1214330154743 0.8784280459410556 7.500013316256611
vertex 21.59802695529338 1.5000916630533427 0
vertex 21.59802695529338 1.5000916630533427 7.500013316256611
endloop
endfacet
facet normal 0.923982214133188 -0.3824354428730839 0
outer loop
vertex 21.59802695529338 1.5000916630533427 7.500013316256611
vertex 21.59802695529338 1.5000916630533427 0
vertex 21.897511289091927 2.223660053478954 0
endloop
endfacet
facet normal 0.923982214133188 -0.3824354428730839 0
outer loop
vertex 21.59802695529338 1.5000916630533427 7.500013316256611
vertex 21.897511289091927 2.223660053478954 0
vertex 21.897511289091927 2.223660053478954 7.500013316256611
endloop
endfacet
facet normal 0.9914252639528055 -0.13067496315710211 0
outer loop
vertex 21.897511289091927 2.223660053478954 7.500013316256611
vertex 21.897511289091927 2.223660053478954 0
vertex 21.999861061415352 3.0001833261066855 0
endloop
endfacet
facet normal 0.9914252639528055 -0.13067496315710211 0
outer loop
vertex 21.897511289091927 2.223660053478954 7.500013316256611
vertex 21.999861061415352 3.0001833261066855 0
vertex 21.999861061415352 3.0001833261066855 7.500013316256611
endloop
endfacet
facet normal -1 0 0
outer loop
vertex 0 19.99959051100753 7.500013316256611
vertex 0 19.99959051100753 0
vertex 0 3.0001833261066855 0
endloop
endfacet
facet normal -1 0 0
outer loop
vertex 0 19.99959051100753 7.500013316256611
vertex 0 3.0001833261066855 0
vertex 0 3.0001833261066855 7.500013316256611
endloop
endfacet
facet normal -0.9999999999999999 0 0
outer loop
vertex 0 66.99994095895502 7.500013316256611
vertex 0 66.99994095895502 0
vertex 0 50.00008877504408 0
endloop
endfacet
facet normal -0.9999999999999999 0 0
outer loop
vertex 0 66.99994095895502 7.500013316256611
vertex 0 50.00008877504408 0
vertex 0 50.00008877504408 7.500013316256611
endloop
endfacet
facet normal -0.13074861090812614 0.9914155540163749 0
outer loop
vertex -13.0002010811155 50.00008877504408 7.500013316256611
vertex -13.0002010811155 50.00008877504408 0
vertex -13.77627935473313 49.89773900272065 0
endloop
endfacet
facet normal -0.13074861090812614 0.9914155540163749 0
outer loop
vertex -13.0002010811155 50.00008877504408 7.500013316256611
vertex -13.77627935473313 49.89773900272065 0
vertex -13.77627935473313 49.89773900272065 7.500013316256611
endloop
endfacet
facet normal -0.3829204282895604 0.9237813299685912 0
outer loop
vertex -13.77627935473313 49.89773900272065 7.500013316256611
vertex -13.77627935473313 49.89773900272065 0
vertex -14.49984774515874 49.597809669912 0
endloop
endfacet
facet normal -0.3829204282895604 0.9237813299685912 0
outer loop
vertex -13.77627935473313 49.89773900272065 7.500013316256611
vertex -14.49984774515874 49.597809669912 0
vertex -14.49984774515874 49.597809669912 7.500013316256611
endloop
endfacet
facet normal -0.6084196173698774 0.7936155046365286 0
outer loop
vertex -14.49984774515874 49.597809669912 7.500013316256611
vertex -14.49984774515874 49.597809669912 0
vertex -15.121511362271029 49.12121573009292 0
endloop
endfacet
facet normal -0.6084196173698774 0.7936155046365286 0
outer loop
vertex -14.49984774515874 49.597809669912 7.500013316256611
vertex -15.121511362271029 49.12121573009292 0
vertex -15.121511362271029 49.12121573009292 7.500013316256611
endloop
endfacet
facet normal -0.7934050716090769 0.6086940055109756 0
outer loop
vertex -15.121511362271029 49.12121573009292 7.500013316256611
vertex -15.121511362271029 49.12121573009292 0
vertex -15.598105302090111 48.49999711199074 0
endloop
endfacet
facet normal -0.7934050716090769 0.6086940055109756 0
outer loop
vertex -15.121511362271029 49.12121573009292 7.500013316256611
vertex -15.598105302090111 48.49999711199074 0
vertex -15.598105302090111 48.49999711199074 7.500013316256611
endloop
endfacet
facet normal -0.9237813299685902 0.3829204282895636 0
outer loop
vertex -15.598105302090111 48.49999711199074 7.500013316256611
vertex -15.598105302090111 48.49999711199074 0
vertex -15.89803463489876 47.776428721565125 0
endloop
endfacet
facet normal -0.9237813299685902 0.3829204282895636 0
outer loop
vertex -15.598105302090111 48.49999711199074 7.500013316256611
vertex -15.89803463489876 47.776428721565125 0
vertex -15.89803463489876 47.776428721565125 7.500013316256611
endloop
endfacet
facet normal -0.9914987187282426 0.13011645076720116 0
outer loop
vertex -15.89803463489876 47.776428721565125 7.500013316256611
vertex -15.89803463489876 47.776428721565125 0
vertex -15.999939408212084 46.99990544893739 0
endloop
endfacet
facet normal -0.9914987187282426 0.13011645076720116 0
outer loop
vertex -15.89803463489876 47.776428721565125 7.500013316256611
vertex -15.999939408212084 46.99990544893739 0
vertex -15.999939408212084 46.99990544893739 7.500013316256611
endloop
endfacet
facet normal -1 0 0
outer loop
vertex -15.999939408212084 35.00006214253085 3.7500066581283056
vertex -15.999939408212084 25.50022327487652 7.500013316256611
vertex -15.999939408212084 44.49990101018519 7.500013316256611
endloop
endfacet
facet normal -1 0 0
outer loop
vertex -15.999939408212084 35.00006214253085 3.7500066581283056
vertex -15.999939408212084 44.49990101018519 7.500013316256611
vertex -15.999939408212084 46.99990544893739 7.500013316256611
endloop
endfacet
facet normal -1 0 0
outer loop
vertex -15.999939408212084 35.00006214253085 3.7500066581283056
vertex -15.999939408212084 46.99990544893739 7.500013316256611
vertex -15.999939408212084 46.99990544893739 0
endloop
endfacet
facet normal -1 0 0
outer loop
vertex -15.999939408212084 35.00006214253085 3.7500066581283056
vertex -15.999939408212084 46.99990544893739 0
vertex -15.999939408212084 44.49990101018519 0
endloop
endfacet
facet normal -1 0 0
outer loop
vertex -15.999939408212084 35.00006214253085 3.7500066581283056
vertex -15.999939408212084 44.49990101018519 0
vertex -15.999939408212084 25.50022327487652 0
endloop
endfacet
facet normal -1 0 0
outer loop
vertex -15.999939408212084 35.00006214253085 3.7500066581283056
vertex -15.999939408212084 25.50022327487652 0
vertex -15.999939408212084 22.999773837114216 0
endloop
endfacet
facet normal -0.9999999999999999 0 0
outer loop
vertex -15.999939408212084 35.00006214253085 3.7500066581283056
vertex -15.999939408212084 22.999773837114216 0
vertex -15.999939408212084 22.999773837114216 7.500013316256611
endloop
endfacet
facet normal -1 0 0
outer loop
vertex -15.999939408212084 35.00006214253085 3.7500066581283056
vertex -15.999939408212084 22.999773837114216 7.500013316256611
vertex -15.999939408212084 25.50022327487652 7.500013316256611
endloop
endfacet
facet normal -0.9914890909016212 -0.13018979461953561 0
outer loop
vertex -15.999939408212084 22.999773837114216 7.500013316256611
vertex -15.999939408212084 22.999773837114216 0
vertex -15.89803463489876 22.223695563496584 0
endloop
endfacet
facet normal -0.9914890909016212 -0.13018979461953561 0
outer loop
vertex -15.999939408212084 22.999773837114216 7.500013316256611
vertex -15.89803463489876 22.223695563496584 0
vertex -15.89803463489876 22.223695563496584 7.500013316256611
endloop
endfacet
facet normal -0.923864568404363 -0.38271955691735915 0
outer loop
vertex -15.89803463489876 22.223695563496584 7.500013316256611
vertex -15.89803463489876 22.223695563496584 0
vertex -15.598105302090111 21.499682174060872 0
endloop
endfacet
facet normal -0.923864568404363 -0.38271955691735915 0
outer loop
vertex -15.89803463489876 22.223695563496584 7.500013316256611
vertex -15.598105302090111 21.499682174060872 0
vertex -15.598105302090111 21.499682174060872 7.500013316256611
endloop
endfacet
facet normal -0.793194353720318 -0.6089685683401131 0
outer loop
vertex -15.598105302090111 21.499682174060872 7.500013316256611
vertex -15.598105302090111 21.499682174060872 0
vertex -15.121511362271029 20.87890855496879 0
endloop
endfacet
facet normal -0.793194353720318 -0.6089685683401131 0
outer loop
vertex -15.598105302090111 21.499682174060872 7.500013316256611
vertex -15.121511362271029 20.87890855496879 0
vertex -15.121511362271029 20.87890855496879 7.500013316256611
endloop
endfacet
facet normal -0.6087772267206859 -0.7933412180305967 0
outer loop
vertex -15.121511362271029 20.87890855496879 7.500013316256611
vertex -15.121511362271029 20.87890855496879 0
vertex -14.49984774515874 20.401869616139603 0
endloop
endfacet
facet normal -0.6087772267206859 -0.7933412180305967 0
outer loop
vertex -15.121511362271029 20.87890855496879 7.500013316256611
vertex -14.49984774515874 20.401869616139603 0
vertex -14.49984774515874 20.401869616139603 7.500013316256611
endloop
endfacet
facet normal -0.3829204282895643 -0.9237813299685897 0
outer loop
vertex -14.49984774515874 20.401869616139603 7.500013316256611
vertex -14.49984774515874 20.401869616139603 0
vertex -13.77627935473313 20.101940283330954 0
endloop
endfacet
facet normal -0.3829204282895643 -0.9237813299685897 0
outer loop
vertex -14.49984774515874 20.401869616139603 7.500013316256611
vertex -13.77627935473313 20.101940283330954 0
vertex -13.77627935473313 20.101940283330954 7.500013316256611
endloop
endfacet
facet normal -0.13074861090812168 -0.9914155540163754 0
outer loop
vertex -13.77627935473313 20.101940283330954 7.500013316256611
vertex -13.77627935473313 20.101940283330954 0
vertex -13.0002010811155 19.99959051100753 0
endloop
endfacet
facet normal -0.13074861090812168 -0.9914155540163754 0
outer loop
vertex -13.77627935473313 20.101940283330954 7.500013316256611
vertex -13.0002010811155 19.99959051100753 0
vertex -13.0002010811155 19.99959051100753 7.500013316256611
endloop
endfacet
facet normal 0 1 0
outer loop
vertex 0 50.00008877504408 7.500013316256611
vertex 0 50.00008877504408 0
vertex -13.0002010811155 50.00008877504408 0
endloop
endfacet
facet normal 0 1 0
outer loop
vertex 0 50.00008877504408 7.500013316256611
vertex -13.0002010811155 50.00008877504408 0
vertex -13.0002010811155 50.00008877504408 7.500013316256611
endloop
endfacet
facet normal 0 -1 0
outer loop
vertex -13.0002010811155 19.99959051100753 7.500013316256611
vertex -13.0002010811155 19.99959051100753 0
vertex 0 19.99959051100753 0
endloop
endfacet
facet normal 0 -1 0
outer loop
vertex -13.0002010811155 19.99959051100753 7.500013316256611
vertex 0 19.99959051100753 0
vertex 0 19.99959051100753 7.500013316256611
endloop
endfacet
facet normal 1 0 0
outer loop
vertex -5.000008877504408 25.50022327487652 7.500013316256611
vertex -5.000008877504408 25.50022327487652 0
vertex -5.000008877504408 44.49990101018519 0
endloop
endfacet
facet normal 1 0 0
outer loop
vertex -5.000008877504408 25.50022327487652 7.500013316256611
vertex -5.000008877504408 44.49990101018519 0
vertex -5.000008877504408 44.49990101018519 7.500013316256611
endloop
endfacet
facet normal 0 0.9999999999999999 0
outer loop
vertex 11.999843306406538 25.50022327487652 7.500013316256611
vertex 11.999843306406538 25.50022327487652 0
vertex -5.000008877504408 25.50022327487652 0
endloop
endfacet
facet normal 0 0.9999999999999999 0
outer loop
vertex 11.999843306406538 25.50022327487652 7.500013316256611
vertex -5.000008877504408 25.50022327487652 0
vertex -5.000008877504408 25.50022327487652 7.500013316256611
endloop
endfacet
facet normal -1 0 0
outer loop
vertex 11.999843306406538 44.49990101018519 7.500013316256611
vertex 11.999843306406538 44.49990101018519 0
vertex 11.999843306406538 25.50022327487652 0
endloop
endfacet
facet normal -1 0 0
outer loop
vertex 11.999843306406538 44.49990101018519 7.500013316256611
vertex 11.999843306406538 25.50022327487652 0
vertex 11.999843306406538 25.50022327487652 7.500013316256611
endloop
endfacet
facet normal 0 -0.9999999999999999 0
outer loop
vertex -5.000008877504408 44.49990101018519 7.500013316256611
vertex -5.000008877504408 44.49990101018519 0
vertex 11.999843306406538 44.49990101018519 0
endloop
endfacet
facet normal 0 -0.9999999999999999 0
outer loop
vertex -5.000008877504408 44.49990101018519 7.500013316256611
vertex 11.999843306406538 44.49990101018519 0
vertex 11.999843306406538 44.49990101018519 7.500013316256611
endloop
endfacet
facet normal 0 0 0.9999999999999999
outer loop
vertex 10.999930530707676 66.48685710030759 7.500013316256611
vertex 3.0001833261066855 69.9996792860516 7.500013316256611
vertex 2.223660053478954 69.89777451273828 7.500013316256611
endloop
endfacet
facet normal 0 0 1
outer loop
vertex 10.999930530707676 66.48685710030759 7.500013316256611
vertex 2.223660053478954 69.89777451273828 7.500013316256611
vertex 1.5000916630533427 69.59784517992964 7.500013316256611
endloop
endfacet
facet normal 0 0 1
outer loop
vertex 10.999930530707676 66.48685710030759 7.500013316256611
vertex 1.5000916630533427 69.59784517992964 7.500013316256611
vertex 0.8784280459410556 69.12125124011055 7.500013316256611
endloop
endfacet
facet normal 0 0 1
outer loop
vertex 10.999930530707676 66.48685710030759 7.500013316256611
vertex 0.8784280459410556 69.12125124011055 7.500013316256611
vertex 0.40183410612197223 68.50003262200836 7.500013316256611
endloop
endfacet
facet normal 0 0 1
outer loop
vertex 10.999930530707676 66.48685710030759 7.500013316256611
vertex 0.40183410612197223 68.50003262200836 7.500013316256611
vertex 0.10234977232342593 67.77646423158275 7.500013316256611
endloop
endfacet
facet normal 0 0 0.9999999999999999
outer loop
vertex 10.999930530707676 66.48685710030759 7.500013316256611
vertex 0.10234977232342593 67.77646423158275 7.500013316256611
vertex 0 66.99994095895502 7.500013316256611
endloop
endfacet
facet normal 0 0 1
outer loop
vertex 10.999930530707676 66.48685710030759 7.500013316256611
vertex 0 66.99994095895502 7.500013316256611
vertex 0 50.00008877504408 7.500013316256611
endloop
endfacet
facet normal 0 0 1
outer loop
vertex 10.999930530707676 66.48685710030759 7.500013316256611
vertex 0 50.00008877504408 7.500013316256611
vertex 21.999861061415352 50.00008877504408 7.500013316256611
endloop
endfacet
facet normal 0 0 1
outer loop
vertex 10.999930530707676 66.48685710030759 7.500013316256611
vertex 21.999861061415352 50.00008877504408 7.500013316256611
vertex 21.999861061415352 66.99994095895502 7.500013316256611
endloop
endfacet
facet normal 0 0 0.9999999999999999
outer loop
vertex 10.999930530707676 66.48685710030759 7.500013316256611
vertex 21.999861061415352 66.99994095895502 7.500013316256611
vertex 21.897511289091927 67.77646423158275 7.500013316256611
endloop
endfacet
facet normal 0 0 1
outer loop
vertex 10.999930530707676 66.48685710030759 7.500013316256611
vertex 21.897511289091927 67.77646423158275 7.500013316256611
vertex 21.59802695529338 68.50003262200836 7.500013316256611
endloop
endfacet
facet normal 0 0 0.9999999999999999
outer loop
vertex 10.999930530707676 66.48685710030759 7.500013316256611
vertex 21.59802695529338 68.50003262200836 7.500013316256611
vertex 21.1214330154743 69.12125124011055 7.500013316256611
endloop
endfacet
facet normal 0 0 0.9999999999999999
outer loop
vertex 10.999930530707676 66.48685710030759 7.500013316256611
vertex 21.1214330154743 69.12125124011055 7.500013316256611
vertex 20.49976939836201 69.59784517992964 7.500013316256611
endloop
endfacet
facet normal 0 0 1
outer loop
vertex 10.999930530707676 66.48685710030759 7.500013316256611
vertex 20.49976939836201 69.59784517992964 7.500013316256611
vertex 19.7766460069465 69.89777451273828 7.500013316256611
endloop
endfacet
facet normal 0 0 0.9999999999999999
outer loop
vertex 10.999930530707676 66.48685710030759 7.500013316256611
vertex 19.7766460069465 69.89777451273828 7.500013316256611
vertex 19.00012273431877 69.9996792860516 7.500013316256611
endloop
endfacet
facet normal 0 0 1
outer loop
vertex 10.999930530707676 66.48685710030759 7.500013316256611
vertex 19.00012273431877 69.9996792860516 7.500013316256611
vertex 3.0001833261066855 69.9996792860516 7.500013316256611
endloop
endfacet
facet normal 0 0 1
outer loop
vertex -5.299493211302954 47.68386892746394 7.500013316256611
vertex 0 50.00008877504408 7.500013316256611
vertex -13.0002010811155 50.00008877504408 7.500013316256611
endloop
endfacet
facet normal 0 0 1
outer loop
vertex -5.299493211302954 47.68386892746394 7.500013316256611
vertex -13.0002010811155 50.00008877504408 7.500013316256611
vertex -13.77627935473313 49.89773900272065 7.500013316256611
endloop
endfacet
facet normal 0 0 1
outer loop
vertex -5.299493211302954 47.68386892746394 7.500013316256611
vertex -13.77627935473313 49.89773900272065 7.500013316256611
vertex -14.49984774515874 49.597809669912 7.500013316256611
endloop
endfacet
facet normal 0 0 1
outer loop
vertex -5.299493211302954 47.68386892746394 7.500013316256611
vertex -14.49984774515874 49.597809669912 7.500013316256611
vertex -15.121511362271029 49.12121573009292 7.500013316256611
endloop
endfacet
facet normal 0 0 0.9999999999999999
outer loop
vertex -5.299493211302954 47.68386892746394 7.500013316256611
vertex -15.121511362271029 49.12121573009292 7.500013316256611
vertex -15.598105302090111 48.49999711199074 7.500013316256611
endloop
endfacet
facet normal 0 0 1
outer loop
vertex -5.299493211302954 47.68386892746394 7.500013316256611
vertex -15.598105302090111 48.49999711199074 7.500013316256611
vertex -15.89803463489876 47.776428721565125 7.500013316256611
endloop
endfacet
facet normal 0 0 1
outer loop
vertex -5.299493211302954 47.68386892746394 7.500013316256611
vertex -15.89803463489876 47.776428721565125 7.500013316256611
vertex -15.999939408212084 46.99990544893739 7.500013316256611
endloop
endfacet
facet normal 0 0 1
outer loop
vertex -5.299493211302954 47.68386892746394 7.500013316256611
vertex -15.999939408212084 46.99990544893739 7.500013316256611
vertex -15.999939408212084 44.49990101018519 7.500013316256611
endloop
endfacet
facet normal 0 0 0.9999999999999999
outer loop
vertex -5.299493211302954 47.68386892746394 7.500013316256611
vertex -15.999939408212084 44.49990101018519 7.500013316256611
vertex -5.000008877504408 44.49990101018519 7.500013316256611
endloop
endfacet
facet normal 0 0 1
outer loop
vertex -5.299493211302954 47.68386892746394 7.500013316256611
vertex -5.000008877504408 44.49990101018519 7.500013316256611
vertex 11.999843306406538 44.49990101018519 7.500013316256611
endloop
endfacet
facet normal 0 0 0.9999999999999999
outer loop
vertex -5.299493211302954 47.68386892746394 7.500013316256611
vertex 11.999843306406538 44.49990101018519 7.500013316256611
vertex 21.999861061415352 44.49990101018519 7.500013316256611
endloop
endfacet
facet normal 0 0 1
outer loop
vertex -5.299493211302954 47.68386892746394 7.500013316256611
vertex 21.999861061415352 44.49990101018519 7.500013316256611
vertex 21.999861061415352 50.00008877504408 7.500013316256611
endloop
endfacet
facet normal 0 0 1
outer loop
vertex -5.299493211302954 47.68386892746394 7.500013316256611
vertex 21.999861061415352 50.00008877504408 7.500013316256611
vertex 0 50.00008877504408 7.500013316256611
endloop
endfacet
facet normal 0 0 0.9999999999999999
outer loop
vertex 11.999843306406538 44.49990101018519 7.500013316256611
vertex 11.999843306406538 25.50022327487652 7.500013316256611
vertex 21.999861061415352 25.50022327487652 7.500013316256611
endloop
endfacet
facet normal 0 0 0.9999999999999999
outer loop
vertex 11.999843306406538 44.49990101018519 7.500013316256611
vertex 21.999861061415352 25.50022327487652 7.500013316256611
vertex 21.999861061415352 44.49990101018519 7.500013316256611
endloop
endfacet
facet normal 0 0 1
outer loop
vertex -15.999939408212084 44.49990101018519 7.500013316256611
vertex -15.999939408212084 25.50022327487652 7.500013316256611
vertex -5.000008877504408 25.50022327487652 7.500013316256611
endloop
endfacet
facet normal 0 0 1
outer loop
vertex -15.999939408212084 44.49990101018519 7.500013316256611
vertex -5.000008877504408 25.50022327487652 7.500013316256611
vertex -5.000008877504408 44.49990101018519 7.500013316256611
endloop
endfacet
facet normal 0 0 1
outer loop
vertex -5.299493211302954 22.31581035858767 7.500013316256611
vertex 11.999843306406538 25.50022327487652 7.500013316256611
vertex -5.000008877504408 25.50022327487652 7.500013316256611
endloop
endfacet
facet normal 0 0 1
outer loop
vertex -5.299493211302954 22.31581035858767 7.500013316256611
vertex -5.000008877504408 25.50022327487652 7.500013316256611
vertex -15.999939408212084 25.50022327487652 7.500013316256611
endloop
endfacet
facet normal 0 0 1
outer loop
vertex -5.299493211302954 22.31581035858767 7.500013316256611
vertex -15.999939408212084 25.50022327487652 7.500013316256611
vertex -15.999939408212084 22.999773837114216 7.500013316256611
endloop
endfacet
facet normal 0 0 1
outer loop
vertex -5.299493211302954 22.31581035858767 7.500013316256611
vertex -15.999939408212084 22.999773837114216 7.500013316256611
vertex -15.89803463489876 22.223695563496584 7.500013316256611
endloop
endfacet
facet normal 0 0 1
outer loop
vertex -5.299493211302954 22.31581035858767 7.500013316256611
vertex -15.89803463489876 22.223695563496584 7.500013316256611
vertex -15.598105302090111 21.499682174060872 7.500013316256611
endloop
endfacet
facet normal 0 0 1
outer loop
vertex -5.299493211302954 22.31581035858767 7.500013316256611
vertex -15.598105302090111 21.499682174060872 7.500013316256611
vertex -15.121511362271029 20.87890855496879 7.500013316256611
endloop
endfacet
facet normal 0 0 1
outer loop
vertex -5.299493211302954 22.31581035858767 7.500013316256611
vertex -15.121511362271029 20.87890855496879 7.500013316256611
vertex -14.49984774515874 20.401869616139603 7.500013316256611
endloop
endfacet
facet normal 0 0 1
outer loop
vertex -5.299493211302954 22.31581035858767 7.500013316256611
vertex -14.49984774515874 20.401869616139603 7.500013316256611
vertex -13.77627935473313 20.101940283330954 7.500013316256611
endloop
endfacet
facet normal 0 0 1
outer loop
vertex -5.299493211302954 22.31581035858767 7.500013316256611
vertex -13.77627935473313 20.101940283330954 7.500013316256611
vertex -13.0002010811155 19.99959051100753 7.500013316256611
endloop
endfacet
facet normal 0 0 0.9999999999999999
outer loop
vertex -5.299493211302954 22.31581035858767 7.500013316256611
vertex -13.0002010811155 19.99959051100753 7.500013316256611
vertex 0 19.99959051100753 7.500013316256611
endloop
endfacet
facet normal 0 0 1
outer loop
vertex -5.299493211302954 22.31581035858767 7.500013316256611
vertex 0 19.99959051100753 7.500013316256611
vertex 21.999861061415352 19.99959051100753 7.500013316256611
endloop
endfacet
facet normal 0 0 1
outer loop
vertex -5.299493211302954 22.31581035858767 7.500013316256611
vertex 21.999861061415352 19.99959051100753 7.500013316256611
vertex 21.999861061415352 25.50022327487652 7.500013316256611
endloop
endfacet
facet normal 0 0 1
outer loop
vertex -5.299493211302954 22.31581035858767 7.500013316256611
vertex 21.999861061415352 25.50022327487652 7.500013316256611
vertex 11.999843306406538 25.50022327487652 7.500013316256611
endloop
endfacet
facet normal 0 0 1
outer loop
vertex 10.999930530707676 3.5132671847541204 7.500013316256611
vertex 0 19.99959051100753 7.500013316256611
vertex 0 3.0001833261066855 7.500013316256611
endloop
endfacet
facet normal 0 0 1
outer loop
vertex 10.999930530707676 3.5132671847541204 7.500013316256611
vertex 0 3.0001833261066855 7.500013316256611
vertex 0.10234977232342593 2.223660053478954 7.500013316256611
endloop
endfacet
facet normal 0 0 1
outer loop
vertex 10.999930530707676 3.5132671847541204 7.500013316256611
vertex 0.10234977232342593 2.223660053478954 7.500013316256611
vertex 0.40183410612197223 1.5000916630533427 7.500013316256611
endloop
endfacet
facet normal 0 0 1
outer loop
vertex 10.999930530707676 3.5132671847541204 7.500013316256611
vertex 0.40183410612197223 1.5000916630533427 7.500013316256611
vertex 0.8784280459410556 0.8784280459410556 7.500013316256611
endloop
endfacet
facet normal 0 0 1
outer loop
vertex 10.999930530707676 3.5132671847541204 7.500013316256611
vertex 0.8784280459410556 0.8784280459410556 7.500013316256611
vertex 1.5000916630533427 0.40183410612197223 7.500013316256611
endloop
endfacet
facet normal 0 0 1
outer loop
vertex 10.999930530707676 3.5132671847541204 7.500013316256611
vertex 1.5000916630533427 0.40183410612197223 7.500013316256611
vertex 2.223660053478954 0.10234977232342593 7.500013316256611
endloop
endfacet
facet normal 0 0 0.9999999999999999
outer loop
vertex 10.999930530707676 3.5132671847541204 7.500013316256611
vertex 2.223660053478954 0.10234977232342593 7.500013316256611
vertex 3.0001833261066855 0 7.500013316256611
endloop
endfacet
facet normal 0 0 0.9999999999999999
outer loop
vertex 10.999930530707676 3.5132671847541204 7.500013316256611
vertex 3.0001833261066855 0 7.500013316256611
vertex 19.00012273431877 0 7.500013316256611
endloop
endfacet
facet normal 0 0 0.9999999999999999
outer loop
vertex 10.999930530707676 3.5132671847541204 7.500013316256611
vertex 19.00012273431877 0 7.500013316256611
vertex 19.7766460069465 0.10234977232342593 7.500013316256611
endloop
endfacet
facet normal 0 0 1
outer loop
vertex 10.999930530707676 3.5132671847541204 7.500013316256611
vertex 19.7766460069465 0.10234977232342593 7.500013316256611
vertex 20.49976939836201 0.40183410612197223 7.500013316256611
endloop
endfacet
facet normal 0 0 1
outer loop
vertex 10.999930530707676 3.5132671847541204 7.500013316256611
vertex 20.49976939836201 0.40183410612197223 7.500013316256611
vertex 21.1214330154743 0.8784280459410556 7.500013316256611
endloop
endfacet
facet normal 0 0 1
outer loop
vertex 10.999930530707676 3.5132671847541204 7.500013316256611
vertex 21.1214330154743 0.8784280459410556 7.500013316256611
vertex 21.59802695529338 1.5000916630533427 7.500013316256611
endloop
endfacet
facet normal 0 0 1
outer loop
vertex 10.999930530707676 3.5132671847541204 7.500013316256611
vertex 21.59802695529338 1.5000916630533427 7.500013316256611
vertex 21.897511289091927 2.223660053478954 7.500013316256611
endloop
endfacet
facet normal 0 0 1
outer loop
vertex 10.999930530707676 3.5132671847541204 7.500013316256611
vertex 21.897511289091927 2.223660053478954 7.500013316256611
vertex 21.999861061415352 3.0001833261066855 7.500013316256611
endloop
endfacet
facet normal 0 0 1
outer loop
vertex 10.999930530707676 3.5132671847541204 7.500013316256611
vertex 21.999861061415352 3.0001833261066855 7.500013316256611
vertex 21.999861061415352 19.99959051100753 7.500013316256611
endloop
endfacet
facet normal 0 0 1
outer loop
vertex 10.999930530707676 3.5132671847541204 7.500013316256611
vertex 21.999861061415352 19.99959051100753 7.500013316256611
vertex 0 19.99959051100753 7.500013316256611
endloop
endfacet
facet normal 0 0 -0.9999999999999999
outer loop
vertex 10.999930530707676 66.48685710030759 0
vertex 19.00012273431877 69.9996792860516 0
vertex 19.7766460069465 69.89777451273828 0
endloop
endfacet
facet normal 0 0 -1
outer loop
vertex 10.999930530707676 66.48685710030759 0
vertex 19.7766460069465 69.89777451273828 0
vertex 20.49976939836201 69.59784517992964 0
endloop
endfacet
facet normal 0 0 -0.9999999999999999
outer loop
vertex 10.999930530707676 66.48685710030759 0
vertex 20.49976939836201 69.59784517992964 0
vertex 21.1214330154743 69.12125124011055 0
endloop
endfacet
facet normal 0 0 -0.9999999999999999
outer loop
vertex 10.999930530707676 66.48685710030759 0
vertex 21.1214330154743 69.12125124011055 0
vertex 21.59802695529338 68.50003262200836 0
endloop
endfacet
facet normal 0 0 -1
outer loop
vertex 10.999930530707676 66.48685710030759 0
vertex 21.59802695529338 68.50003262200836 0
vertex 21.897511289091927 67.77646423158275 0
endloop
endfacet
facet normal 0 0 -0.9999999999999999
outer loop
vertex 10.999930530707676 66.48685710030759 0
vertex 21.897511289091927 67.77646423158275 0
vertex 21.999861061415352 66.99994095895502 0
endloop
endfacet
facet normal 0 0 -1
outer loop
vertex 10.999930530707676 66.48685710030759 0
vertex 21.999861061415352 66.99994095895502 0
vertex 21.999861061415352 50.00008877504408 0
endloop
endfacet
facet normal 0 0 -1
outer loop
vertex 10.999930530707676 66.48685710030759 0
vertex 21.999861061415352 50.00008877504408 0
vertex 0 50.00008877504408 0
endloop
endfacet
facet normal 0 0 -1
outer loop
vertex 10.999930530707676 66.48685710030759 0
vertex 0 50.00008877504408 0
vertex 0 66.99994095895502 0
endloop
endfacet
facet normal 0 0 -0.9999999999999999
outer loop
vertex 10.999930530707676 66.48685710030759 0
vertex 0 66.99994095895502 0
vertex 0.10234977232342593 67.77646423158275 0
endloop
endfacet
facet normal 0 0 -1
outer loop
vertex 10.999930530707676 66.48685710030759 0
vertex 0.10234977232342593 67.77646423158275 0
vertex 0.40183410612197223 68.50003262200836 0
endloop
endfacet
facet normal 0 0 -1
outer loop
vertex 10.999930530707676 66.48685710030759 0
vertex 0.40183410612197223 68.50003262200836 0
vertex 0.8784280459410556 69.12125124011055 0
endloop
endfacet
facet normal 0 0 -1
outer loop
vertex 10.999930530707676 66.48685710030759 0
vertex 0.8784280459410556 69.12125124011055 0
vertex 1.5000916630533427 69.59784517992964 0
endloop
endfacet
facet normal 0 0 -1
outer loop
vertex 10.999930530707676 66.48685710030759 0
vertex 1.5000916630533427 69.59784517992964 0
vertex 2.223660053478954 69.89777451273828 0
endloop
endfacet
facet normal 0 0 -0.9999999999999999
outer loop
vertex 10.999930530707676 66.48685710030759 0
vertex 2.223660053478954 69.89777451273828 0
vertex 3.0001833261066855 69.9996792860516 0
endloop
endfacet
facet normal 0 0 -1
outer loop
vertex 10.999930530707676 66.48685710030759 0
vertex 3.0001833261066855 69.9996792860516 0
vertex 19.00012273431877 69.9996792860516 0
endloop
endfacet
facet normal 0 0 -1
outer loop
vertex -5.299493211302954 47.68386892746394 0
vertex 0 50.00008877504408 0
vertex 21.999861061415352 50.00008877504408 0
endloop
endfacet
facet normal 0 0 -1
outer loop
vertex -5.299493211302954 47.68386892746394 0
vertex 21.999861061415352 50.00008877504408 0
vertex 21.999861061415352 44.49990101018519 0
endloop
endfacet
facet normal 0 0 -0.9999999999999999
outer loop
vertex -5.299493211302954 47.68386892746394 0
vertex 21.999861061415352 44.49990101018519 0
vertex 11.999843306406538 44.49990101018519 0
endloop
endfacet
facet normal 0 0 -1
outer loop
vertex -5.299493211302954 47.68386892746394 0
vertex 11.999843306406538 44.49990101018519 0
vertex -5.000008877504408 44.49990101018519 0
endloop
endfacet
facet normal 0 0 -0.9999999999999999
outer loop
vertex -5.299493211302954 47.68386892746394 0
vertex -5.000008877504408 44.49990101018519 0
vertex -15.999939408212084 44.49990101018519 0
endloop
endfacet
facet normal 0 0 -1
outer loop
vertex -5.299493211302954 47.68386892746394 0
vertex -15.999939408212084 44.49990101018519 0
vertex -15.999939408212084 46.99990544893739 0
endloop
endfacet
facet normal 0 0 -1
outer loop
vertex -5.299493211302954 47.68386892746394 0
vertex -15.999939408212084 46.99990544893739 0
vertex -15.89803463489876 47.776428721565125 0
endloop
endfacet
facet normal 0 0 -1
outer loop
vertex -5.299493211302954 47.68386892746394 0
vertex -15.89803463489876 47.776428721565125 0
vertex -15.598105302090111 48.49999711199074 0
endloop
endfacet
facet normal 0 0 -0.9999999999999999
outer loop
vertex -5.299493211302954 47.68386892746394 0
vertex -15.598105302090111 48.49999711199074 0
vertex -15.121511362271029 49.12121573009292 0
endloop
endfacet
facet normal 0 0 -1
outer loop
vertex -5.299493211302954 47.68386892746394 0
vertex -15.121511362271029 49.12121573009292 0
vertex -14.49984774515874 49.597809669912 0
endloop
endfacet
facet normal 0 0 -1
outer loop
vertex -5.299493211302954 47.68386892746394 0
vertex -14.49984774515874 49.597809669912 0
vertex -13.77627935473313 49.89773900272065 0
endloop
endfacet
facet normal 0 0 -1
outer loop
vertex -5.299493211302954 47.68386892746394 0
vertex -13.77627935473313 49.89773900272065 0
vertex -13.0002010811155 50.00008877504408 0
endloop
endfacet
facet normal 0 0 -1
outer loop
vertex -5.299493211302954 47.68386892746394 0
vertex -13.0002010811155 50.00008877504408 0
vertex 0 50.00008877504408 0
endloop
endfacet
facet normal 0 0 -0.9999999999999999
outer loop
vertex 40.000071020035264 44.00016712184081 0
vertex 40.000071020035264 25.9999571632209 0
vertex 21.999861061415352 25.9999571632209 0
endloop
endfacet
facet normal 0 0 -0.9999999999999999
outer loop
vertex 40.000071020035264 44.00016712184081 0
vertex 21.999861061415352 25.9999571632209 0
vertex 21.999861061415352 44.00016712184081 0
endloop
endfacet
facet normal 0 0 -1
outer loop
vertex -5.000008877504408 44.49990101018519 0
vertex -5.000008877504408 25.50022327487652 0
vertex -15.999939408212084 25.50022327487652 0
endloop
endfacet
facet normal 0 0 -1
outer loop
vertex -5.000008877504408 44.49990101018519 0
vertex -15.999939408212084 25.50022327487652 0
vertex -15.999939408212084 44.49990101018519 0
endloop
endfacet
facet normal 0 0 -0.9999999999999999
outer loop
vertex 21.999861061415352 44.49990101018519 0
vertex 21.999861061415352 25.50022327487652 0
vertex 11.999843306406538 25.50022327487652 0
endloop
endfacet
facet normal 0 0 -0.9999999999999999
outer loop
vertex 21.999861061415352 44.49990101018519 0
vertex 11.999843306406538 25.50022327487652 0
vertex 11.999843306406538 44.49990101018519 0
endloop
endfacet
facet normal 0 0 -1
outer loop
vertex -5.299493211302954 22.31581035858767 0
vertex -5.000008877504408 25.50022327487652 0
vertex 11.999843306406538 25.50022327487652 0
endloop
endfacet
facet normal 0 0 -1
outer loop
vertex -5.299493211302954 22.31581035858767 0
vertex 11.999843306406538 25.50022327487652 0
vertex 21.999861061415352 25.50022327487652 0
endloop
endfacet
facet normal 0 0 -1
outer loop
vertex -5.299493211302954 22.31581035858767 0
vertex 21.999861061415352 25.50022327487652 0
vertex 21.999861061415352 19.99959051100753 0
endloop
endfacet
facet normal 0 0 -1
outer loop
vertex -5.299493211302954 22.31581035858767 0
vertex 21.999861061415352 19.99959051100753 0
vertex 0 19.99959051100753 0
endloop
endfacet
facet normal 0 0 -0.9999999999999999
outer loop
vertex -5.299493211302954 22.31581035858767 0
vertex 0 19.99959051100753 0
vertex -13.0002010811155 19.99959051100753 0
endloop
endfacet
facet normal 0 0 -1
outer loop
vertex -5.299493211302954 22.31581035858767 0
vertex -13.0002010811155 19.99959051100753 0
vertex -13.77627935473313 20.101940283330954 0
endloop
endfacet
facet normal 0 0 -1
outer loop
vertex -5.299493211302954 22.31581035858767 0
vertex -13.77627935473313 20.101940283330954 0
vertex -14.49984774515874 20.401869616139603 0
endloop
endfacet
facet normal 0 0 -1
outer loop
vertex -5.299493211302954 22.31581035858767 0
vertex -14.49984774515874 20.401869616139603 0
vertex -15.121511362271029 20.87890855496879 0
endloop
endfacet
facet normal 0 0 -1
outer loop
vertex -5.299493211302954 22.31581035858767 0
vertex -15.121511362271029 20.87890855496879 0
vertex -15.598105302090111 21.499682174060872 0
endloop
endfacet
facet normal 0 0 -1
outer loop
vertex -5.299493211302954 22.31581035858767 0
vertex -15.598105302090111 21.499682174060872 0
vertex -15.89803463489876 22.223695563496584 0
endloop
endfacet
facet normal 0 0 -1
outer loop
vertex -5.299493211302954 22.31581035858767 0
vertex -15.89803463489876 22.223695563496584 0
vertex -15.999939408212084 22.999773837114216 0
endloop
endfacet
facet normal 0 0 -1
outer loop
vertex -5.299493211302954 22.31581035858767 0
vertex -15.999939408212084 22.999773837114216 0
vertex -15.999939408212084 25.50022327487652 0
endloop
endfacet
facet normal 0 0 -1
outer loop
vertex -5.299493211302954 22.31581035858767 0
vertex -15.999939408212084 25.50022327487652 0
vertex -5.000008877504408 25.50022327487652 0
endloop
endfacet
facet normal 0 0 -1
outer loop
vertex 10.999930530707676 3.5132671847541204 0
vertex 21.999861061415352 19.99959051100753 0
vertex 21.999861061415352 3.0001833261066855 0
endloop
endfacet
facet normal 0 0 -1
outer loop
vertex 10.999930530707676 3.5132671847541204 0
vertex 21.999861061415352 3.0001833261066855 0
vertex 21.897511289091927 2.223660053478954 0
endloop
endfacet
facet normal 0 0 -1
outer loop
vertex 10.999930530707676 3.5132671847541204 0
vertex 21.897511289091927 2.223660053478954 0
vertex 21.59802695529338 1.5000916630533427 0
endloop
endfacet
facet normal 0 0 -1
outer loop
vertex 10.999930530707676 3.5132671847541204 0
vertex 21.59802695529338 1.5000916630533427 0
vertex 21.1214330154743 0.8784280459410556 0
endloop
endfacet
facet normal 0 0 -1
outer loop
vertex 10.999930530707676 3.5132671847541204 0
vertex 21.1214330154743 0.8784280459410556 0
vertex 20.49976939836201 0.40183410612197223 0
endloop
endfacet
facet normal 0 0 -1
outer loop
vertex 10.999930530707676 3.5132671847541204 0
vertex 20.49976939836201 0.40183410612197223 0
vertex 19.7766460069465 0.10234977232342593 0
endloop
endfacet
facet normal 0 0 -0.9999999999999999
outer loop
vertex 10.999930530707676 3.5132671847541204 0
vertex 19.7766460069465 0.10234977232342593 0
vertex 19.00012273431877 0 0
endloop
endfacet
facet normal 0 0 -0.9999999999999999
outer loop
vertex 10.999930530707676 3.5132671847541204 0
vertex 19.00012273431877 0 0
vertex 3.0001833261066855 0 0
endloop
endfacet
facet normal 0 0 -0.9999999999999999
outer loop
vertex 10.999930530707676 3.5132671847541204 0
vertex 3.0001833261066855 0 0
vertex 2.223660053478954 0.10234977232342593 0
endloop
endfacet
facet normal 0 0 -1
outer loop
vertex 10.999930530707676 3.5132671847541204 0
vertex 2.223660053478954 0.10234977232342593 0
vertex 1.5000916630533427 0.40183410612197223 0
endloop
endfacet
facet normal 0 0 -1
outer loop
vertex 10.999930530707676 3.5132671847541204 0
vertex 1.5000916630533427 0.40183410612197223 0
vertex 0.8784280459410556 0.8784280459410556 0
endloop
endfacet
facet normal 0 0 -1
outer loop
vertex 10.999930530707676 3.5132671847541204 0
vertex 0.8784280459410556 0.8784280459410556 0
vertex 0.40183410612197223 1.5000916630533427 0
endloop
endfacet
facet normal 0 0 -1
outer loop
vertex 10.999930530707676 3.5132671847541204 0
vertex 0.40183410612197223 1.5000916630533427 0
vertex 0.10234977232342593 2.223660053478954 0
endloop
endfacet
facet normal 0 0 -1
outer loop
vertex 10.999930530707676 3.5132671847541204 0
vertex 0.10234977232342593 2.223660053478954 0
vertex 0 3.0001833261066855 0
endloop
endfacet
facet normal 0 0 -1
outer loop
vertex 10.999930530707676 3.5132671847541204 0
vertex 0 3.0001833261066855 0
vertex 0 19.99959051100753 0
endloop
endfacet
facet normal 0 0 -1
outer loop
vertex 10.999930530707676 3.5132671847541204 0
vertex 0 19.99959051100753 0
vertex 21.999861061415352 19.99959051100753 0
endloop
endfacet
facet normal 0 -0.9999999999999999 0
outer loop
vertex 30.999966040725308 25.9999571632209 1.9998255513977223
vertex 40.000071020035264 25.9999571632209 1.9998255513977223
vertex 30.999966040725308 25.9999571632209 5.000008877504408
endloop
endfacet
facet normal 0 -1 0
outer loop
vertex 30.999966040725308 25.9999571632209 1.1997173312345926
vertex 30.999966040725308 25.9999571632209 1.9998255513977223
vertex 21.999861061415352 25.9999571632209 1.9998255513977223
endloop
endfacet
facet normal 0 -1 0
outer loop
vertex 30.999966040725308 25.9999571632209 1.1997173312345926
vertex 21.999861061415352 25.9999571632209 1.9998255513977223
vertex 21.999861061415352 25.9999571632209 0
endloop
endfacet
facet normal 0 -1 0
outer loop
vertex 30.999966040725308 25.9999571632209 1.1997173312345926
vertex 21.999861061415352 25.9999571632209 0
vertex 40.000071020035264 25.9999571632209 0
endloop
endfacet
facet normal 0 -1 0
outer loop
vertex 30.999966040725308 25.9999571632209 1.1997173312345926
vertex 40.000071020035264 25.9999571632209 0
vertex 40.000071020035264 25.9999571632209 1.9998255513977223
endloop
endfacet
facet normal 0 -1 0
outer loop
vertex 30.999966040725308 25.9999571632209 1.1997173312345926
vertex 40.000071020035264 25.9999571632209 1.9998255513977223
vertex 30.999966040725308 25.9999571632209 1.9998255513977223
endloop
endfacet
facet normal 0 0.9999999999999999 0
outer loop
vertex 40.000071020035264 44.00016712184081 1.9998255513977223
vertex 30.999966040725308 44.00016712184081 1.9998255513977223
vertex 30.999966040725308 44.00016712184081 5.000008877504408
endloop
endfacet
facet normal 0 1 0
outer loop
vertex 30.999966040725308 44.00016712184081 1.1997173312345926
vertex 30.999966040725308 44.00016712184081 1.9998255513977223
vertex 40.000071020035264 44.00016712184081 1.9998255513977223
endloop
endfacet
facet normal 0 1 0
outer loop
vertex 30.999966040725308 44.00016712184081 1.1997173312345926
vertex 40.000071020035264 44.00016712184081 1.9998255513977223
vertex 40.000071020035264 44.00016712184081 0
endloop
endfacet
facet normal 0 1 0
outer loop
vertex 30.999966040725308 44.00016712184081 1.1997173312345926
vertex 40.000071020035264 44.00016712184081 0
vertex 21.999861061415352 44.00016712184081 0
endloop
endfacet
facet normal 0 1 0
outer loop
vertex 30.999966040725308 44.00016712184081 1.1997173312345926
vertex 21.999861061415352 44.00016712184081 0
vertex 21.999861061415352 44.00016712184081 1.9998255513977223
endloop
endfacet
facet normal 0 1 0
outer loop
vertex 30.999966040725308 44.00016712184081 1.1997173312345926
vertex 21.999861061415352 44.00016712184081 1.9998255513977223
vertex 30.999966040725308 44.00016712184081 1.9998255513977223
endloop
endfacet
facet normal -0.9999999999999999 0 0
outer loop
vertex 30.999966040725308 25.9999571632209 1.9998255513977223
vertex 30.999966040725308 25.9999571632209 5.000008877504408
vertex 30.999966040725308 44.00016712184081 5.000008877504408
endloop
endfacet
facet normal -0.9999999999999999 0 0
outer loop
vertex 30.999966040725308 25.9999571632209 1.9998255513977223
vertex 30.999966040725308 44.00016712184081 5.000008877504408
vertex 30.999966040725308 44.00016712184081 1.9998255513977223
endloop
endfacet
facet normal 0.3162418378526157 0 0.9486786073226273
outer loop
vertex 40.000071020035264 25.9999571632209 1.9998255513977223
vertex 40.000071020035264 44.00016712184081 1.9998255513977223
vertex 30.999966040725308 44.00016712184081 5.000008877504408
endloop
endfacet
facet normal 0.3162418378526157 0 0.9486786073226273
outer loop
vertex 40.000071020035264 25.9999571632209 1.9998255513977223
vertex 30.999966040725308 44.00016712184081 5.000008877504408
vertex 30.999966040725308 25.9999571632209 5.000008877504408
endloop
endfacet
facet normal -1 0 0
outer loop
vertex 21.999861061415352 44.00016712184081 1.9998255513977223
vertex 21.999861061415352 44.00016712184081 0
vertex 21.999861061415352 25.9999571632209 0
endloop
endfacet
facet normal -1 0 0
outer loop
vertex 21.999861061415352 44.00016712184081 1.9998255513977223
vertex 21.999861061415352 25.9999571632209 0
vertex 21.999861061415352 25.9999571632209 1.9998255513977223
endloop
endfacet
facet normal 1 0 0
outer loop
vertex 40.000071020035264 25.9999571632209 1.9998255513977223
vertex 40.000071020035264 25.9999571632209 0
vertex 40.000071020035264 44.00016712184081 0
endloop
endfacet
facet normal 1 0 0
outer loop
vertex 40.000071020035264 25.9999571632209 1.9998255513977223
vertex 40.000071020035264 44.00016712184081 0
vertex 40.000071020035264 44.00016712184081 1.9998255513977223
endloop
endfacet
facet normal 0 0 0.9999999999999999
outer loop
vertex 21.999861061415352 44.00016712184081 1.9998255513977223
vertex 21.999861061415352 25.9999571632209 1.9998255513977223
vertex 30.999966040725308 25.9999571632209 1.9998255513977223
endloop
endfacet
facet normal 0 0 0.9999999999999999
outer loop
vertex 21.999861061415352 44.00016712184081 1.9998255513977223
vertex 30.999966040725308 25.9999571632209 1.9998255513977223
vertex 30.999966040725308 44.00016712184081 1.9998255513977223
endloop
endfacet
endsolid JSCAD
