solid lowpoly_cow
 facet normal 0 0 0
  outer loop
   vertex -20 -8 8
   vertex 20 -8 8
   vertex 20 8 8
  endloop
 endfacet
 facet normal 0 0 0
  outer loop
   vertex -20 -8 8
   vertex 20 8 8
   vertex -20 8 8
  endloop
 endfacet
 facet normal 0 0 0
  outer loop
   vertex -20 -8 24
   vertex 20 -8 24
   vertex 20 8 24
  endloop
 endfacet
 facet normal 0 0 0
  outer loop
   vertex -20 -8 24
   vertex 20 8 24
   vertex -20 8 24
  endloop
 endfacet
 facet normal 0 0 0
  outer loop
   vertex -20 -8 8
   vertex -20 -8 24
   vertex 20 -8 24
  endloop
 endfacet
 facet normal 0 0 0
  outer loop
   vertex -20 -8 8
   vertex 20 -8 24
   vertex 20 -8 8
  endloop
 endfacet
 facet normal 0 0 0
  outer loop
   vertex 20 -8 8
   vertex 20 -8 24
   vertex 20 8 24
  endloop
 endfacet
 facet normal 0 0 0
  outer loop
   vertex 20 -8 8
   vertex 20 8 24
   vertex 20 8 8
  endloop
 endfacet
 facet normal 0 0 0
  outer loop
   vertex 20 8 8
   vertex 20 8 24
   vertex -20 8 24
  endloop
 endfacet
 facet normal 0 0 0
  outer loop
   vertex 20 8 8
   vertex -20 8 24
   vertex -20 8 8
  endloop
 endfacet
 facet normal 0 0 0
  outer loop
   vertex -20 8 8
   vertex -20 8 24
   vertex -20 -8 24
  endloop
 endfacet
 facet normal 0 0 0
  outer loop
   vertex -20 8 8
   vertex -20 -8 24
   vertex -20 -8 8
  endloop
 endfacet
 facet normal 0 0 0
  outer loop
   vertex 20 -5 12
   vertex 32 -5 12
   vertex 32 5 12
  endloop
 endfacet
 facet normal 0 0 0
  outer loop
   vertex 20 -5 12
   vertex 32 5 12
   vertex 20 5 12
  endloop
 endfacet
 facet normal 0 0 0
  outer loop
   vertex 20 -5 22
   vertex 32 -5 22
   vertex 32 5 22
  endloop
 endfacet
 facet normal 0 0 0
  outer loop
   vertex 20 -5 22
   vertex 32 5 22
   vertex 20 5 22
  endloop
 endfacet
 facet normal 0 0 0
  outer loop
   vertex 20 -5 12
   vertex 20 -5 22
   vertex 32 -5 22
  endloop
 endfacet
 facet normal 0 0 0
  outer loop
   vertex 20 -5 12
   vertex 32 -5 22
   vertex 32 -5 12
  endloop
 endfacet
 facet normal 0 0 0
  outer loop
   vertex 32 -5 12
   vertex 32 -5 22
   vertex 32 5 22
  endloop
 endfacet
 facet normal 0 0 0
  outer loop
   vertex 32 -5 12
   vertex 32 5 22
   vertex 32 5 12
  endloop
 endfacet
 facet normal 0 0 0
  outer loop
   vertex 32 5 12
   vertex 32 5 22
   vertex 20 5 22
  endloop
 endfacet
 facet normal 0 0 0
  outer loop
   vertex 32 5 12
   vertex 20 5 22
   vertex 20 5 12
  endloop
 endfacet
 facet normal 0 0 0
  outer loop
   vertex 20 5 12
   vertex 20 5 22
   vertex 20 -5 22
  endloop
 endfacet
 facet normal 0 0 0
  outer loop
   vertex 20 5 12
   vertex 20 -5 22
   vertex 20 -5 12
  endloop
 endfacet
 facet normal 0 0 0
  outer loop
   vertex -15 -6 0
   vertex -11 -6 0
   vertex -11 -3 0
  endloop
 endfacet
 facet normal 0 0 0
  outer loop
   vertex -15 -6 0
   vertex -11 -3 0
   vertex -15 -3 0
  endloop
 endfacet
 facet normal 0 0 0
  outer loop
   vertex -15 -6 8
   vertex -11 -6 8
   vertex -11 -3 8
  endloop
 endfacet
 facet normal 0 0 0
  outer loop
   vertex -15 -6 8
   vertex -11 -3 8
   vertex -15 -3 8
  endloop
 endfacet
 facet normal 0 0 0
  outer loop
   vertex -15 -6 0
   vertex -15 -6 8
   vertex -11 -6 8
  endloop
 endfacet
 facet normal 0 0 0
  outer loop
   vertex -15 -6 0
   vertex -11 -6 8
   vertex -11 -6 0
  endloop
 endfacet
 facet normal 0 0 0
  outer loop
   vertex -11 -6 0
   vertex -11 -6 8
   vertex -11 -3 8
  endloop
 endfacet
 facet normal 0 0 0
  outer loop
   vertex -11 -6 0
   vertex -11 -3 8
   vertex -11 -3 0
  endloop
 endfacet
 facet normal 0 0 0
  outer loop
   vertex -11 -3 0
   vertex -11 -3 8
   vertex -15 -3 8
  endloop
 endfacet
 facet normal 0 0 0
  outer loop
   vertex -11 -3 0
   vertex -15 -3 8
   vertex -15 -3 0
  endloop
 endfacet
 facet normal 0 0 0
  outer loop
   vertex -15 -3 0
   vertex -15 -3 8
   vertex -15 -6 8
  endloop
 endfacet
 facet normal 0 0 0
  outer loop
   vertex -15 -3 0
   vertex -15 -6 8
   vertex -15 -6 0
  endloop
 endfacet
 facet normal 0 0 0
  outer loop
   vertex -15 3 0
   vertex -11 3 0
   vertex -11 6 0
  endloop
 endfacet
 facet normal 0 0 0
  outer loop
   vertex -15 3 0
   vertex -11 6 0
   vertex -15 6 0
  endloop
 endfacet
 facet normal 0 0 0
  outer loop
   vertex -15 3 8
   vertex -11 3 8
   vertex -11 6 8
  endloop
 endfacet
 facet normal 0 0 0
  outer loop
   vertex -15 3 8
   vertex -11 6 8
   vertex -15 6 8
  endloop
 endfacet
 facet normal 0 0 0
  outer loop
   vertex -15 3 0
   vertex -15 3 8
   vertex -11 3 8
  endloop
 endfacet
 facet normal 0 0 0
  outer loop
   vertex -15 3 0
   vertex -11 3 8
   vertex -11 3 0
  endloop
 endfacet
 facet normal 0 0 0
  outer loop
   vertex -11 3 0
   vertex -11 3 8
   vertex -11 6 8
  endloop
 endfacet
 facet normal 0 0 0
  outer loop
   vertex -11 3 0
   vertex -11 6 8
   vertex -11 6 0
  endloop
 endfacet
 facet normal 0 0 0
  outer loop
   vertex -11 6 0
   vertex -11 6 8
   vertex -15 6 8
  endloop
 endfacet
 facet normal 0 0 0
  outer loop
   vertex -11 6 0
   vertex -15 6 8
   vertex -15 6 0
  endloop
 endfacet
 facet normal 0 0 0
  outer loop
   vertex -15 6 0
   vertex -15 6 8
   vertex -15 3 8
  endloop
 endfacet
 facet normal 0 0 0
  outer loop
   vertex -15 6 0
   vertex -15 3 8
   vertex -15 3 0
  endloop
 endfacet
 facet normal 0 0 0
  outer loop
   vertex 10 -6 0
   vertex 14 -6 0
   vertex 14 -3 0
  endloop
 endfacet
 facet normal 0 0 0
  outer loop
   vertex 10 -6 0
   vertex 14 -3 0
   vertex 10 -3 0
  endloop
 endfacet
 facet normal 0 0 0
  outer loop
   vertex 10 -6 8
   vertex 14 -6 8
   vertex 14 -3 8
  endloop
 endfacet
 facet normal 0 0 0
  outer loop
   vertex 10 -6 8
   vertex 14 -3 8
   vertex 10 -3 8
  endloop
 endfacet
 facet normal 0 0 0
  outer loop
   vertex 10 -6 0
   vertex 10 -6 8
   vertex 14 -6 8
  endloop
 endfacet
 facet normal 0 0 0
  outer loop
   vertex 10 -6 0
   vertex 14 -6 8
   vertex 14 -6 0
  endloop
 endfacet
 facet normal 0 0 0
  outer loop
   vertex 14 -6 0
   vertex 14 -6 8
   vertex 14 -3 8
  endloop
 endfacet
 facet normal 0 0 0
  outer loop
   vertex 14 -6 0
   vertex 14 -3 8
   vertex 14 -3 0
  endloop
 endfacet
 facet normal 0 0 0
  outer loop
   vertex 14 -3 0
   vertex 14 -3 8
   vertex 10 -3 8
  endloop
 endfacet
 facet normal 0 0 0
  outer loop
   vertex 14 -3 0
   vertex 10 -3 8
   vertex 10 -3 0
  endloop
 endfacet
 facet normal 0 0 0
  outer loop
   vertex 10 -3 0
   vertex 10 -3 8
   vertex 10 -6 8
  endloop
 endfacet
 facet normal 0 0 0
  outer loop
   vertex 10 -3 0
   vertex 10 -6 8
   vertex 10 -6 0
  endloop
 endfacet
 facet normal 0 0 0
  outer loop
   vertex 10 3 0
   vertex 14 3 0
   vertex 14 6 0
  endloop
 endfacet
 facet normal 0 0 0
  outer loop
   vertex 10 3 0
   vertex 14 6 0
   vertex 10 6 0
  endloop
 endfacet
 facet normal 0 0 0
  outer loop
   vertex 10 3 8
   vertex 14 3 8
   vertex 14 6 8
  endloop
 endfacet
 facet normal 0 0 0
  outer loop
   vertex 10 3 8
   vertex 14 6 8
   vertex 10 6 8
  endloop
 endfacet
 facet normal 0 0 0
  outer loop
   vertex 10 3 0
   vertex 10 3 8
   vertex 14 3 8
  endloop
 endfacet
 facet normal 0 0 0
  outer loop
   vertex 10 3 0
   vertex 14 3 8
   vertex 14 3 0
  endloop
 endfacet
 facet normal 0 0 0
  outer loop
   vertex 14 3 0
   vertex 14 3 8
   vertex 14 6 8
  endloop
 endfacet
 facet normal 0 0 0
  outer loop
   vertex 14 3 0
   vertex 14 6 8
   vertex 14 6 0
  endloop
 endfacet
 facet normal 0 0 0
  outer loop
   vertex 14 6 0
   vertex 14 6 8
   vertex 10 6 8
  endloop
 endfacet
 facet normal 0 0 0
  outer loop
   vertex 14 6 0
   vertex 10 6 8
   vertex 10 6 0
  endloop
 endfacet
 facet normal 0 0 0
  outer loop
   vertex 10 6 0
   vertex 10 6 8
   vertex 10 3 8
  endloop
 endfacet
 facet normal 0 0 0
  outer loop
   vertex 10 6 0
   vertex 10 3 8
   vertex 10 3 0
  endloop
 endfacet
 facet normal 0 0 0
  outer loop
   vertex 28 -6 22
   vertex 30 -6 22
   vertex 30 -4 22
  endloop
 endfacet
 facet normal 0 0 0
  outer loop
   vertex 28 -6 22
   vertex 30 -4 22
   vertex 28 -4 22
  endloop
 endfacet
 facet normal 0 0 0
  outer loop
   vertex 28 -6 26
   vertex 30 -6 26
   vertex 30 -4 26
  endloop
 endfacet
 facet normal 0 0 0
  outer loop
   vertex 28 -6 26
   vertex 30 -4 26
   vertex 28 -4 26
  endloop
 endfacet
 facet normal 0 0 0
  outer loop
   vertex 28 -6 22
   vertex 28 -6 26
   vertex 30 -6 26
  endloop
 endfacet
 facet normal 0 0 0
  outer loop
   vertex 28 -6 22
   vertex 30 -6 26
   vertex 30 -6 22
  endloop
 endfacet
 facet normal 0 0 0
  outer loop
   vertex 30 -6 22
   vertex 30 -6 26
   vertex 30 -4 26
  endloop
 endfacet
 facet normal 0 0 0
  outer loop
   vertex 30 -6 22
   vertex 30 -4 26
   vertex 30 -4 22
  endloop
 endfacet
 facet normal 0 0 0
  outer loop
   vertex 30 -4 22
   vertex 30 -4 26
   vertex 28 -4 26
  endloop
 endfacet
 facet normal 0 0 0
  outer loop
   vertex 30 -4 22
   vertex 28 -4 26
   vertex 28 -4 22
  endloop
 endfacet
 facet normal 0 0 0
  outer loop
   vertex 28 -4 22
   vertex 28 -4 26
   vertex 28 -6 26
  endloop
 endfacet
 facet normal 0 0 0
  outer loop
   vertex 28 -4 22
   vertex 28 -6 26
   vertex 28 -6 22
  endloop
 endfacet
 facet normal 0 0 0
  outer loop
   vertex 28 4 22
   vertex 30 4 22
   vertex 30 6 22
  endloop
 endfacet
 facet normal 0 0 0
  outer loop
   vertex 28 4 22
   vertex 30 6 22
   vertex 28 6 22
  endloop
 endfacet
 facet normal 0 0 0
  outer loop
   vertex 28 4 26
   vertex 30 4 26
   vertex 30 6 26
  endloop
 endfacet
 facet normal 0 0 0
  outer loop
   vertex 28 4 26
   vertex 30 6 26
   vertex 28 6 26
  endloop
 endfacet
 facet normal 0 0 0
  outer loop
   vertex 28 4 22
   vertex 28 4 26
   vertex 30 4 26
  endloop
 endfacet
 facet normal 0 0 0
  outer loop
   vertex 28 4 22
   vertex 30 4 26
   vertex 30 4 22
  endloop
 endfacet
 facet normal 0 0 0
  outer loop
   vertex 30 4 22
   vertex 30 4 26
   vertex 30 6 26
  endloop
 endfacet
 facet normal 0 0 0
  outer loop
   vertex 30 4 22
   vertex 30 6 26
   vertex 30 6 22
  endloop
 endfacet
 facet normal 0 0 0
  outer loop
   vertex 30 6 22
   vertex 30 6 26
   vertex 28 6 26
  endloop
 endfacet
 facet normal 0 0 0
  outer loop
   vertex 30 6 22
   vertex 28 6 26
   vertex 28 6 22
  endloop
 endfacet
 facet normal 0 0 0
  outer loop
   vertex 28 6 22
   vertex 28 6 26
   vertex 28 4 26
  endloop
 endfacet
 facet normal 0 0 0
  outer loop
   vertex 28 6 22
   vertex 28 4 26
   vertex 28 4 22
  endloop
 endfacet
 facet normal 0 0 0
  outer loop
   vertex 32 -1 16
   vertex 42 -1 16
   vertex 42 1 16
  endloop
 endfacet
 facet normal 0 0 0
  outer loop
   vertex 32 -1 16
   vertex 42 1 16
   vertex 32 1 16
  endloop
 endfacet
 facet normal 0 0 0
  outer loop
   vertex 32 -1 18
   vertex 42 -1 18
   vertex 42 1 18
  endloop
 endfacet
 facet normal 0 0 0
  outer loop
   vertex 32 -1 18
   vertex 42 1 18
   vertex 32 1 18
  endloop
 endfacet
 facet normal 0 0 0
  outer loop
   vertex 32 -1 16
   vertex 32 -1 18
   vertex 42 -1 18
  endloop
 endfacet
 facet normal 0 0 0
  outer loop
   vertex 32 -1 16
   vertex 42 -1 18
   vertex 42 -1 16
  endloop
 endfacet
 facet normal 0 0 0
  outer loop
   vertex 42 -1 16
   vertex 42 -1 18
   vertex 42 1 18
  endloop
 endfacet
 facet normal 0 0 0
  outer loop
   vertex 42 -1 16
   vertex 42 1 18
   vertex 42 1 16
  endloop
 endfacet
 facet normal 0 0 0
  outer loop
   vertex 42 1 16
   vertex 42 1 18
   vertex 32 1 18
  endloop
 endfacet
 facet normal 0 0 0
  outer loop
   vertex 42 1 16
   vertex 32 1 18
   vertex 32 1 16
  endloop
 endfacet
 facet normal 0 0 0
  outer loop
   vertex 32 1 16
   vertex 32 1 18
   vertex 32 -1 18
  endloop
 endfacet
 facet normal 0 0 0
  outer loop
   vertex 32 1 16
   vertex 32 -1 18
   vertex 32 -1 16
  endloop
 endfacet
endsolid lowpoly_cow